{
.appVersion = "3058";
.formatVersion = 3;
DisplayStrings = (
"░▒▓ a```a/quotedbl.inqu \"/quotedbl.utqu \"\"\"a

⠴⠦⠇⠋⠙⠸{⸨█░░░░░⸩⠦

↓

⸨█░░░░░⸩

|3⚑3 9

::

⎇ax 

ᚠ


20*30 -
2 * 1
.*|:~~
****-* +
~",
"{a} ☰ 1 ☲[8235]



/uniE0B0/uniE0B1/uniE0B2/uniE0B3",
".* .? .+ .= .^ !! != !> !? => =. =: =^ =, =< =~ =+ =- =// =| =* ?: ?@ ?^ ?- ?+ ?. ?> ?< ?& ?| ?! ?= ?~ |% |~ |? |= |_ |. |- |^ |: |* ~& ~% ~> ~< ~? ~! ~| ~_ ~+ ~= ~$ ~// :- :_ :+ :^ :* :~ %= %- %. %+ %^ %~ %* %_ ^- ^+ ^= ^~ ^| ^? $- $: $? $% $@ $^ $= $_ ;: ;~ ;; ;//

$$$$$*a$

($)

$()
$4.00",
"/A.l/C.l/D.l/G.l/H.l/M.l/N.l/O.l/Q.l/W.l/A.r/C.r/D.r/G.r/H.r/M.r/N.r/O.r/Q.r/W.r/A.w/C.w/D.w/G.w/H.w/M.w/N.w/O.w/Q.w/W.w/iacute_j.loclNLD/i.li 

nnuwm

nwbhiskers
saw
/n.w/n.w/n.w o/n.w oo/n.w m

 i  d qbpun~ifi
conjuration ıis takin
/asciitilde.w 
educationote
elder gods
tild
a~e ~ urbit brandmark

i]


 ~ ~hanrut-binsep ?@ a@

!@=#$%^&*(t)
~#
!@#$%^&*(a)[0]fntl[w]{a}
|:!|*?

\"\"/asciitilde.r/asciitilde.l 
&bBreadmakers
BRAVOHAVEN


s


=>=//<=//=!=?= yes.:? well? well, t`

:;, , a; :

||=//

so, the


---===
^-$($a)
hey ? listen!a


rune compatible typeface",
"let's!@#=$%^&*()
1234567890#
Oco2

|-asdf
=//
~~~~~~~~
~~~~~~ ~~ ~; M .M M.M

=> t>>==<<=
===
",
"=/greater.ineq < |-| =/bar.ineq |Ħ <=>a_@eTitania
_/underscore.half |_/bar.inun _/underscore.half |/bar.inun/bar.utun  //_/underscore.half/slash.inun __/underscore.half/backslash asdf//|
_|+HmH Hm H 
_|
_/bar.inun  -/bar.inhy | -///slash.inhy -/slash.uthy/backslash.inhy -/backslash.uthy 
Io+/hyphen.half |- -|
++-++
//_ asf //_ _/backslash  _/bar.utun |_
/underscore.half/bar.utun |_|
/hyphen.half  |-|//-//|_|
-//
mMm MmM M m
_/backslash  /backslash __/backslash _  /backslash |_//_
//_
+-//",
"¢2c$€2-=£Y¥+−×−÷=≠><≥≤±3~^∥",
"-//--//  //- //-////

//_ _|_-|/hyphen.mdhy/hyphen.half//-/backslash 

glyphs = (
{
glyphname = A;
lastChange = "2020-04-28 00:31:32 +0000";
layers = (
{
anchors = (
{
name = bottom;
pos = (500,0);
},
{
name = ogonek;
pos = (930,0);
},
{
name = top;
pos = (500,1044);
}
);
background = {
shapes = (
{
closed = 1;
nodes = (
(192,0,l),
(493,896,l),
(495,896,l),
(808,0,l),
(960,0,l),
(592,1044,l),
(399,1044,l),
(40,0,l)
);
},
{
closed = 1;
nodes = (
(190,164,l),
(840,164,l),
(840,304,l),
(190,304,l)
);
}
);
};
layerId = "7B6A6B4E-EFCA-423F-B1F3-F70C1AFA501E";
shapes = (
{
closed = 1;
nodes = (
(192,0,l),
(456,896,ls),
(469,939,o),
(526,939,o),
(539,896,cs),
(808,0,l),
(960,0,l),
(646,991,ls),
(607,1114,o),
(391,1115,o),
(352,991,cs),
(40,0,l)
);
},
{
closed = 1;
nodes = (
(195,264,l),
(805,264,l),
(805,399,l),
(195,399,l)
);
}
);
width = 1000;
},
{
anchors = (
{
name = bottom;
pos = (500,0);
},
{
name = ogonek;
pos = (938,0);
},
{
name = top;
pos = (500,1044);
}
);
background = {
shapes = (
{
closed = 1;
nodes = (
(192,0,l),
(493,896,l),
(495,896,l),
(808,0,l),
(960,0,l),
(592,1044,l),
(399,1044,l),
(40,0,l)
);
},
{
closed = 1;
nodes = (
(190,164,l),
(840,164,l),
(840,304,l),
(190,304,l)
);
}
);
};
layerId = "75A0A031-BEAD-45F4-8089-5B3FA8FFE7DC";
shapes = (
{
closed = 1;
nodes = (
(72,0,l),
(394,955,ls),
(434,1075,o),
(564,1075,o),
(605,955,cs),
(928,0,l),
(960,0,l),
(638,955,ls),
(584,1115,o),
(416,1116,o),
(362,955,cs),
(40,0,l)
);
},
{
closed = 1;
nodes = (
(190,377,l),
(810,377,l),
(810,404,l),
(190,404,l)
);
}
);
width = 1000;
}
);
unicode = 65;
},
{
glyphname = AE;
lastChange = "2020-04-20 21:27:55 +0000";
layers = (
{
layerId = "7B6A6B4E-EFCA-423F-B1F3-F70C1AFA501E";
shapes = (
{
closed = 1;
nodes = (
(172,0,l),
(436,871,ls),
(443,893,o),
(460,909,o),
(478,909,c),
(548,909,l),
(549,1044,l),
(479,1044,l),
(405,1044,o),
(346,1013,o),
(326,951,cs),
(20,0,l)
);
},
{
closed = 1;
nodes = (
(980,0,l),
(980,135,l),
(670,135,l),
(670,435,l),
(940,435,l),
(940,565,l),
(670,565,l),
(670,909,l),
(940,909,l),
(940,1044,l),
(530,1044,l),
(530,0,l)
);
},
{
closed = 1;
nodes = (
(170,264,l),
(550,264,l),
(550,404,l),
(170,404,l)
);
}
);
width = 1000;
},
{
layerId = "75A0A031-BEAD-45F4-8089-5B3FA8FFE7DC";
shapes = (
{
closed = 1;
nodes = (
(52,0,l),
(356,945,ls),
(375,1003,o),
(420,1017,o),
(478,1017,cs),
(548,1017,l),
(549,1044,l),
(479,1044,ls),
(405,1044,o),
(346,1013,o),
(326,951,cs),
(20,0,l)
);
},
{
closed = 1;
nodes = (
(980,0,l),
(980,27,l),
(560,27,l),
(560,487,l),
(940,487,l),
(940,514,l),
(560,514,l),
(560,1017,l),
(940,1017,l),
(940,1044,l),
(530,1044,l),
(530,0,l)
);
},
{
closed = 1;
nodes = (
(150,321,l),
(550,321,l),
(550,348,l),
(150,348,l)
);
}
);
width = 1000;
}
);
unicode = 198;
},
{
glyphname = B;
lastChange = "2020-04-18 08:53:45 +0000";
layers = (
{
layerId = "7B6A6B4E-EFCA-423F-B1F3-F70C1AFA501E";
shapes = (
{
closed = 1;
nodes = (
(300,0,l),
(300,1044,l),
(160,1044,l),
(160,0,l)
);
},
{
closed = 1;
nodes = (
(234,0,l),
(616,0,ls),
(811,0,o),
(880,113,o),
(880,267,cs),
(880,426,o),
(805,487,o),
(738,509,c),
(821,556,o),
(855,662,o),
(855,766,cs),
(855,945,o),
(756,1044,o),
(553,1044,cs),
(234,1044,l),
(234,909,l),
(534,909,ls),
(630,909,o),
(715,875,o),
(715,737,cs),
(715,571,o),
(593,559,o),
(511,559,cs),
(234,559,l),
(234,429,l),
(551,429,ls),
(640,429,o),
(736,404,o),
(736,266,cs),
(736,153,o),
(672,136,o),
(589,136,cs),
(234,136,l)
);
}
);
width = 1000;
},
{
layerId = "75A0A031-BEAD-45F4-8089-5B3FA8FFE7DC";
shapes = (
{
closed = 1;
nodes = (
(190,0,l),
(190,1044,l),
(160,1044,l),
(160,0,l)
);
},
{
closed = 1;
nodes = (
(174,0,l),
(616,0,ls),
(811,0,o),
(880,113,o),
(880,267,cs),
(880,426,o),
(805,485,o),
(678,507,c),
(818,554,o),
(855,662,o),
(855,770,cs),
(855,945,o),
(756,1044,o),
(553,1044,cs),
(174,1044,l),
(174,1017,l),
(553,1017,ls),
(740,1017,o),
(822,919,o),
(822,770,cs),
(822,587,o),
(693,516,o),
(551,516,cs),
(174,516,l),
(174,489,l),
(551,489,ls),
(770,489,o),
(847,414,o),
(847,266,cs),
(847,133,o),
(789,28,o),
(616,28,cs),
(174,28,l)
);
}
);
width = 1000;
}
);
unicode = 66;
},
{
glyphname = C;
lastChange = "2020-04-18 08:39:49 +0000";
layers = (
{
anchors = (
{
name = bottom;
pos = (500,0);
},
{
name = top;
pos = (500,1052);
}
);
layerId = "7B6A6B4E-EFCA-423F-B1F3-F70C1AFA501E";
shapes = (
{
closed = 1;
nodes = (
(813,296,l),
(762,179,o),
(647,115,o),
(530,115,cs),
(346,115,o),
(220,264,o),
(220,464,cs),
(220,580,ls),
(220,780,o),
(336,929,o),
(528,929,cs),
(627,929,o),
(774,888,o),
(784,790,c),
(910,820,l),
(900,981,o),
(720,1064,o),
(528,1064,cs),
(221,1064,o),
(80,865,o),
(80,582,cs),
(80,462,ls),
(80,208,o),
(231,-20,o),
(530,-20,cs),
(703,-20,o),
(851,64,o),
(910,204,c)
);
}
);
width = 1000;
},
{
anchors = (
{
name = bottom;
pos = (500,0);
},
{
name = top;
pos = (500,1052);
}
);
layerId = "75A0A031-BEAD-45F4-8089-5B3FA8FFE7DC";
shapes = (
{
closed = 1;
nodes = (
(883,216,l),
(838,99,o),
(707,7,o),
(530,7,cs),
(256,7,o),
(110,224,o),
(110,484,cs),
(110,560,ls),
(110,840,o),
(246,1037,o),
(528,1037,cs),
(697,1037,o),
(874,968,o),
(884,816,c),
(910,820,l),
(900,981,o),
(720,1064,o),
(528,1064,cs),
(221,1064,o),
(80,865,o),
(80,562,cs),
(80,482,ls),
(80,208,o),
(231,-20,o),
(530,-20,cs),
(703,-20,o),
(851,64,o),
(910,204,c)
);
}
);
width = 1000;
}
);
unicode = 67;
},
{
glyphname = D;
lastChange = "2020-04-18 08:49:25 +0000";
layers = (
{
anchors = (
{
name = bottom;
pos = (500,0);
},
{
name = center;
pos = (270,276);
},
{
name = top;
pos = (500,1052);
}
);
layerId = "7B6A6B4E-EFCA-423F-B1F3-F70C1AFA501E";
shapes = (
{
closed = 1;
nodes = (
(369,0,ls),
(746,0,o),
(900,262,o),
(900,523,cs),
(900,765,o),
(765,1044,o),
(388,1044,cs),
(160,1044,l),
(160,0,l)
);
},
{
closed = 1;
nodes = (
(300,909,l),
(382,909,ls),
(709,909,o),
(755,682,o),
(755,522,cs),
(755,309,o),
(663,135,o),
(388,135,cs),
(300,135,l)
);
}
);
width = 1000;
},
{
anchors = (
{
name = bottom;
pos = (500,0);
},
{
name = center;
pos = (270,276);
},
{
name = top;
pos = (500,1052);
}
);
layerId = "75A0A031-BEAD-45F4-8089-5B3FA8FFE7DC";
shapes = (
{
closed = 1;
nodes = (
(388,0,ls),
(746,0,o),
(900,262,o),
(900,523,cs),
(900,765,o),
(765,1044,o),
(388,1044,cs),
(160,1044,l),
(160,0,l)
);
},
{
closed = 1;
nodes = (
(190,1017,l),
(388,1017,ls),
(749,1017,o),
(867,753,o),
(867,523,cs),
(867,280,o),
(733,27,o),
(388,27,cs),
(190,27,l)
);
}
);
width = 1000;
}
);
unicode = 68;
},
{
glyphname = E;
lastChange = "2020-04-18 08:37:47 +0000";
layers = (
{
anchors = (
{
name = bottom;
pos = (500,0);
},
{
name = ogonek;
pos = (833,0);
},
{
name = top;
pos = (500,1052);
},
{
name = topleft;
pos = (20,1152);
}
);
layerId = "7B6A6B4E-EFCA-423F-B1F3-F70C1AFA501E";
shapes = (
{
closed = 1;
nodes = (
(880,0,l),
(880,135,l),
(320,135,l),
(320,435,l),
(840,435,l),
(840,565,l),
(320,565,l),
(320,909,l),
(840,909,l),
(840,1044,l),
(180,1044,l),
(180,0,l)
);
}
);
width = 1000;
},
{
anchors = (
{
name = bottom;
pos = (500,0);
},
{
name = ogonek;
pos = (833,0);
},
{
name = top;
pos = (500,1052);
},
{
name = topleft;
pos = (20,1152);
}
);
layerId = "75A0A031-BEAD-45F4-8089-5B3FA8FFE7DC";
shapes = (
{
closed = 1;
nodes = (
(880,0,l),
(880,27,l),
(210,27,l),
(210,487,l),
(840,487,l),
(840,514,l),
(210,514,l),
(210,1017,l),
(840,1017,l),
(840,1044,l),
(180,1044,l),
(180,0,l)
);
}
);
width = 1000;
}
);
unicode = 69;
},
{
glyphname = Estroke;
lastChange = "2020-04-20 21:13:02 +0000";
layers = (
{
anchors = (
{
name = _center;
pos = (903,450);
},
{
name = bottom;
pos = (1000,0);
},
{
name = ogonek;
pos = (1333,0);
},
{
name = top;
pos = (1000,1052);
},
{
name = topleft;
pos = (520,1152);
}
);
guides = (
{
angle = 61.387;
pos = (300,441);
}
);
layerId = "7B6A6B4E-EFCA-423F-B1F3-F70C1AFA501E";
shapes = (
{
closed = 1;
nodes = (
(880,0,l),
(880,135,l),
(320,135,l),
(320,435,l),
(840,435,l),
(840,565,l),
(320,565,l),
(320,909,l),
(840,909,l),
(840,1044,l),
(180,1044,l),
(180,0,l)
);
},
{
closed = 1;
nodes = (
(70,-280,l),
(219,-280,l),
(1130,1280,l),
(981,1280,l)
);
}
);
width = 1000;
},
{
anchors = (
{
name = _center;
pos = (903,450);
},
{
name = bottom;
pos = (1000,0);
},
{
name = ogonek;
pos = (1333,0);
},
{
name = top;
pos = (1000,1052);
},
{
name = topleft;
pos = (520,1152);
}
);
guides = (
{
angle = 61.387;
pos = (300,441);
}
);
layerId = "75A0A031-BEAD-45F4-8089-5B3FA8FFE7DC";
shapes = (
{
closed = 1;
nodes = (
(880,0,l),
(880,27,l),
(210,27,l),
(210,487,l),
(840,487,l),
(840,514,l),
(210,514,l),
(210,1017,l),
(840,1017,l),
(840,1044,l),
(180,1044,l),
(180,0,l)
);
},
{
closed = 1;
nodes = (
(-34,-280,l),
(3,-280,l),
(1034,1280,l),
(997,1280,l)
);
}
);
width = 1000;
}
);
unicode = 582;
},
{
glyphname = F;
lastChange = "2020-04-18 08:37:23 +0000";
layers = (
{
layerId = "7B6A6B4E-EFCA-423F-B1F3-F70C1AFA501E";
shapes = (
{
closed = 1;
nodes = (
(350,0,l),
(350,433,l),
(880,433,l),
(880,568,l),
(350,568,l),
(350,909,l),
(880,909,l),
(880,1044,l),
(210,1044,l),
(210,0,l)
);
}
);
width = 1000;
},
{
layerId = "75A0A031-BEAD-45F4-8089-5B3FA8FFE7DC";
shapes = (
{
closed = 1;
nodes = (
(240,0,l),
(240,487,l),
(880,487,l),
(880,514,l),
(240,514,l),
(240,1017,l),
(880,1017,l),
(880,1044,l),
(210,1044,l),
(210,0,l)
);
}
);
width = 1000;
}
);
unicode = 70;
},
{
glyphname = G;
lastChange = "2020-04-19 03:18:42 +0000";
layers = (
{
anchors = (
{
name = bottom;
pos = (500,0);
},
{
name = top;
pos = (500,1052);
}
);
layerId = "7B6A6B4E-EFCA-423F-B1F3-F70C1AFA501E";
shapes = (
{
closed = 1;
nodes = (
(709,-20,o),
(880,95,o),
(880,311,cs),
(880,568,l),
(754,568,l),
(754,311,ls),
(754,176,o),
(616,115,o),
(500,115,cs),
(316,115,o),
(220,264,o),
(220,464,cs),
(220,580,ls),
(220,780,o),
(346,929,o),
(518,929,cs),
(607,929,o),
(739,888,o),
(749,790,c),
(875,820,l),
(865,981,o),
(700,1064,o),
(518,1064,cs),
(231,1064,o),
(80,865,o),
(80,582,cs),
(80,462,ls),
(80,208,o),
(201,-20,o),
(500,-20,cs)
);
},
{
closed = 1;
nodes = (
(980,568,l),
(498,568,l),
(498,433,l),
(980,433,l)
);
}
);
width = 1000;
},
{
anchors = (
{
name = bottom;
pos = (500,0);
},
{
name = top;
pos = (500,1052);
}
);
layerId = "75A0A031-BEAD-45F4-8089-5B3FA8FFE7DC";
shapes = (
{
closed = 1;
nodes = (
(709,-20,o),
(880,95,o),
(880,311,cs),
(880,514,l),
(850,514,l),
(850,311,ls),
(850,109,o),
(696,7,o),
(500,7,cs),
(225,7,o),
(110,234,o),
(110,464,cs),
(110,580,ls),
(110,842,o),
(264,1037,o),
(518,1037,cs),
(675,1037,o),
(812,965,o),
(845,830,c),
(875,840,l),
(845,981,o),
(700,1064,o),
(518,1064,cs),
(231,1064,o),
(80,865,o),
(80,582,cs),
(80,462,ls),
(80,208,o),
(201,-20,o),
(500,-20,cs)
);
},
{
closed = 1;
nodes = (
(980,514,l),
(498,514,l),
(498,487,l),
(980,487,l)
);
}
);
width = 1000;
}
);
unicode = 71;
},
{
glyphname = H;
lastChange = "2020-04-18 08:34:08 +0000";
layers = (
{
layerId = "7B6A6B4E-EFCA-423F-B1F3-F70C1AFA501E";
shapes = (
{
closed = 1;
nodes = (
(230,433,l),
(762,433,l),
(762,568,l),
(230,568,l)
);
},
{
closed = 1;
nodes = (
(150,0,l),
(290,0,l),
(290,1044,l),
(150,1044,l)
);
},
{
closed = 1;
nodes = (
(710,0,l),
(850,0,l),
(850,1044,l),
(710,1044,l)
);
}
);
width = 1000;
},
{
layerId = "75A0A031-BEAD-45F4-8089-5B3FA8FFE7DC";
shapes = (
{
closed = 1;
nodes = (
(150,487,l),
(850,487,l),
(850,514,l),
(150,514,l)
);
},
{
closed = 1;
nodes = (
(150,0,l),
(180,0,l),
(180,1044,l),
(150,1044,l)
);
},
{
closed = 1;
nodes = (
(820,0,l),
(850,0,l),
(850,1044,l),
(820,1044,l)
);
}
);
width = 1000;
}
);
unicode = 72;
},
{
glyphname = Hbar;
lastChange = "2020-04-20 21:24:11 +0000";
layers = (
{
anchors = (
{
name = _center;
pos = (539,427);
}
);
layerId = "7B6A6B4E-EFCA-423F-B1F3-F70C1AFA501E";
shapes = (
{
closed = 1;
nodes = (
(230,633,l),
(762,633,l),
(762,768,l),
(230,768,l)
);
},
{
closed = 1;
nodes = (
(150,0,l),
(290,0,l),
(290,1044,l),
(150,1044,l)
);
},
{
closed = 1;
nodes = (
(710,0,l),
(850,0,l),
(850,1044,l),
(710,1044,l)
);
},
{
closed = 1;
nodes = (
(230,233,l),
(762,233,l),
(762,368,l),
(230,368,l)
);
}
);
width = 1000;
},
{
anchors = (
{
name = _center;
pos = (539,427);
}
);
layerId = "75A0A031-BEAD-45F4-8089-5B3FA8FFE7DC";
shapes = (
{
closed = 1;
nodes = (
(150,627,l),
(850,627,l),
(850,654,l),
(150,654,l)
);
},
{
closed = 1;
nodes = (
(150,0,l),
(180,0,l),
(180,1044,l),
(150,1044,l)
);
},
{
closed = 1;
nodes = (
(820,0,l),
(850,0,l),
(850,1044,l),
(820,1044,l)
);
},
{
closed = 1;
nodes = (
(150,347,l),
(850,347,l),
(850,374,l),
(150,374,l)
);
}
);
width = 1000;
}
);
unicode = 294;
},
{
glyphname = I;
lastChange = "2020-04-20 15:27:18 +0000";
layers = (
{
anchors = (
{
name = bottom;
pos = (500,0);
},
{
name = ogonek;
pos = (900,10);
},
{
name = top;
pos = (500,1044);
},
{
name = topleft;
pos = (20,1152);
}
);
layerId = "7B6A6B4E-EFCA-423F-B1F3-F70C1AFA501E";
shapes = (
{
closed = 1;
nodes = (
(860,909,l),
(860,1044,l),
(140,1044,l),
(140,909,l)
);
},
{
closed = 1;
nodes = (
(570,0,l),
(570,1044,l),
(430,1044,l),
(430,0,l)
);
},
{
closed = 1;
nodes = (
(140,135,l),
(140,0,l),
(860,0,l),
(860,135,l)
);
}
);
width = 1000;
},
{
anchors = (
{
name = bottom;
pos = (500,0);
},
{
name = ogonek;
pos = (900,10);
},
{
name = top;
pos = (500,1052);
},
{
name = topleft;
pos = (20,1152);
}
);
layerId = "75A0A031-BEAD-45F4-8089-5B3FA8FFE7DC";
shapes = (
{
closed = 1;
nodes = (
(860,1017,l),
(860,1044,l),
(140,1044,l),
(140,1017,l)
);
},
{
closed = 1;
nodes = (
(515,0,l),
(515,1044,l),
(485,1044,l),
(485,0,l)
);
},
{
closed = 1;
nodes = (
(140,27,l),
(140,0,l),
(860,0,l),
(860,27,l)
);
}
);
width = 1000;
}
);
unicode = 73;
},
{
glyphname = J;
lastChange = "2020-04-19 03:31:21 +0000";
layers = (
{
layerId = "7B6A6B4E-EFCA-423F-B1F3-F70C1AFA501E";
shapes = (
{
closed = 1;
nodes = (
(560,1044,l),
(560,381,ls),
(560,139,o),
(510,115,o),
(140,115,c),
(140,-30,l),
(616,-30,o),
(700,-8,o),
(700,381,cs),
(700,1044,l)
);
},
{
closed = 1;
nodes = (
(960,909,l),
(960,1044,l),
(140,1044,l),
(140,909,l)
);
}
);
width = 1000;
},
{
layerId = "75A0A031-BEAD-45F4-8089-5B3FA8FFE7DC";
shapes = (
{
closed = 1;
nodes = (
(670,1044,l),
(670,381,ls),
(670,19,o),
(600,-3,o),
(140,-3,c),
(140,-30,l),
(616,-30,o),
(700,-8,o),
(700,381,cs),
(700,1044,l)
);
},
{
closed = 1;
nodes = (
(960,1017,l),
(960,1044,l),
(140,1044,l),
(140,1017,l)
);
}
);
width = 1000;
}
);
unicode = 74;
},
{
glyphname = K;
lastChange = "2020-04-20 07:40:19 +0000";
layers = (
{
background = {
shapes = (
{
closed = 1;
nodes = (
(444,700,l),
(111,700,l),
(111,600,l),
(444,600,l)
);
},
{
closed = 1;
nodes = (
(444,660,l),
(333,660,l),
(333,0,l),
(444,0,l)
);
},
{
closed = 1;
nodes = (
(222,300,l),
(111,300,l),
(111,0,l),
(222,0,l)
);
},
{
closed = 1;
nodes = (
(666,400,l),
(400,400,l),
(400,300,l),
(666,300,l)
);
},
{
closed = 1;
nodes = (
(366,500,l),
(111,500,l),
(111,400,l),
(366,400,l)
);
},
{
closed = 1;
nodes = (
(888,100,l),
(622,100,l),
(622,0,l),
(888,0,l)
);
},
{
closed = 1;
nodes = (
(777,20,l),
(888,20,l),
(888,500,l),
(777,500,l)
);
},
{
closed = 1;
nodes = (
(888,700,l),
(555,700,l),
(555,600,l),
(888,600,l)
);
},
{
closed = 1;
nodes = (
(666,0,l),
(666,700,l),
(555,700,l),
(555,0,l)
);
}
);
};
layerId = "7B6A6B4E-EFCA-423F-B1F3-F70C1AFA501E";
shapes = (
{
closed = 1;
nodes = (
(160,0,l),
(294,0,l),
(294,1044,l),
(160,1044,l)
);
},
{
closed = 1;
nodes = (
(294,405,l),
(945,969,l),
(853,1082,l),
(294,579,l)
);
},
{
closed = 1;
nodes = (
(200,540,l),
(760,0,l),
(960,0,l),
(400,541,l)
);
}
);
width = 1000;
},
{
background = {
shapes = (
{
closed = 1;
nodes = (
(444,700,l),
(111,700,l),
(111,600,l),
(444,600,l)
);
},
{
closed = 1;
nodes = (
(444,660,l),
(333,660,l),
(333,0,l),
(444,0,l)
);
},
{
closed = 1;
nodes = (
(222,300,l),
(111,300,l),
(111,0,l),
(222,0,l)
);
},
{
closed = 1;
nodes = (
(666,400,l),
(400,400,l),
(400,300,l),
(666,300,l)
);
},
{
closed = 1;
nodes = (
(366,500,l),
(111,500,l),
(111,400,l),
(366,400,l)
);
},
{
closed = 1;
nodes = (
(888,100,l),
(622,100,l),
(622,0,l),
(888,0,l)
);
},
{
closed = 1;
nodes = (
(777,20,l),
(888,20,l),
(888,500,l),
(777,500,l)
);
},
{
closed = 1;
nodes = (
(888,700,l),
(555,700,l),
(555,600,l),
(888,600,l)
);
},
{
closed = 1;
nodes = (
(666,0,l),
(666,700,l),
(555,700,l),
(555,0,l)
);
}
);
};
layerId = "75A0A031-BEAD-45F4-8089-5B3FA8FFE7DC";
shapes = (
{
closed = 1;
nodes = (
(160,0,l),
(190,0,l),
(190,1044,l),
(160,1044,l)
);
},
{
closed = 1;
nodes = (
(190,445,l),
(875,1061,l),
(853,1082,l),
(190,485,l)
);
},
{
closed = 1;
nodes = (
(275,560,l),
(856,0,l),
(902,0,l),
(321,561,l)
);
}
);
width = 1000;
}
);
unicode = 75;
},
{
glyphname = L;
lastChange = "2020-04-21 19:07:49 +0000";
layers = (
{
anchors = (
{
name = bottom;
pos = (500,0);
},
{
name = center;
pos = (400,476);
},
{
name = top;
pos = (500,1052);
},
{
name = topright;
pos = (1000,1042);
}
);
layerId = "7B6A6B4E-EFCA-423F-B1F3-F70C1AFA501E";
shapes = (
{
closed = 1;
nodes = (
(270,135,l),
(270,0,l),
(860,0,l),
(860,135,l)
);
},
{
closed = 1;
nodes = (
(350,1044,l),
(210,1044,l),
(210,0,l),
(350,0,l)
);
}
);
width = 1000;
},
{
anchors = (
{
name = bottom;
pos = (500,0);
},
{
name = center;
pos = (400,476);
},
{
name = top;
pos = (500,1052);
},
{
name = topright;
pos = (1000,1042);
}
);
layerId = "75A0A031-BEAD-45F4-8089-5B3FA8FFE7DC";
shapes = (
{
closed = 1;
nodes = (
(220,27,l),
(220,0,l),
(880,0,l),
(880,27,l)
);
},
{
closed = 1;
nodes = (
(230,1044,l),
(200,1044,l),
(200,0,l),
(230,0,l)
);
}
);
width = 1000;
}
);
unicode = 76;
},
{
glyphname = M;
lastChange = "2020-04-19 03:21:22 +0000";
layers = (
{
layerId = "7B6A6B4E-EFCA-423F-B1F3-F70C1AFA501E";
shapes = (
{
closed = 1;
nodes = (
(192,0,l),
(229,872,ls),
(231,911,o),
(269,912,o),
(281,874,cs),
(429,391,ls),
(456,301,o),
(526,306,o),
(553,384,cs),
(720,874,ls),
(732,910,o),
(775,913,o),
(776,872,cs),
(800,0,l),
(940,0,l),
(904,938,ls),
(897,1128,o),
(672,1136,o),
(613,955,cs),
(509,633,ls),
(501,607,o),
(494,609,o),
(487,633,cs),
(391,952,ls),
(334,1141,o),
(103,1121,o),
(96,938,cs),
(60,0,l)
);
}
);
width = 1000;
},
{
layerId = "75A0A031-BEAD-45F4-8089-5B3FA8FFE7DC";
shapes = (
{
closed = 1;
nodes = (
(130,0,l),
(156,932,ls),
(160,1090,o),
(335,1082,o),
(355,926,cs),
(419,421,ls),
(431,328,o),
(550,332,o),
(563,414,cs),
(645,929,ls),
(668,1072,o),
(836,1100,o),
(841,932,cs),
(867,0,l),
(900,0,l),
(874,938,ls),
(869,1128,o),
(647,1128,o),
(617,939,cs),
(533,414,ls),
(527,376,o),
(455,370,o),
(449,421,cs),
(384,933,ls),
(359,1130,o),
(131,1121,o),
(126,938,cs),
(100,0,l)
);
}
);
width = 1000;
}
);
unicode = 77;
},
{
glyphname = N;
lastChange = "2020-04-20 07:57:43 +0000";
layers = (
{
anchors = (
{
name = bottom;
pos = (500,0);
},
{
name = top;
pos = (500,1052);
}
);
background = {
shapes = (
{
closed = 1;
nodes = (
(192,0,l),
(493,896,l),
(495,896,l),
(808,0,l),
(960,0,l),
(592,1044,l),
(399,1044,l),
(40,0,l)
);
},
{
closed = 1;
nodes = (
(190,164,l),
(840,164,l),
(840,304,l),
(190,304,l)
);
}
);
};
layerId = "7B6A6B4E-EFCA-423F-B1F3-F70C1AFA501E";
shapes = (
{
closed = 1;
nodes = (
(566,107,ls),
(625,-73,o),
(860,-68,o),
(860,110,cs),
(860,1044,l),
(730,1044,l),
(730,174,ls),
(730,129,o),
(705,113,o),
(684,174,cs),
(424,937,ls),
(363,1116,o),
(140,1112,o),
(140,864,cs),
(140,0,l),
(270,0,l),
(270,870,ls),
(270,905,o),
(293,940,o),
(316,870,cs)
);
}
);
width = 1000;
},
{
anchors = (
{
name = bottom;
pos = (500,0);
},
{
name = top;
pos = (500,1052);
}
);
background = {
shapes = (
{
closed = 1;
nodes = (
(192,0,l),
(493,896,l),
(495,896,l),
(808,0,l),
(960,0,l),
(592,1044,l),
(399,1044,l),
(40,0,l)
);
},
{
closed = 1;
nodes = (
(190,164,l),
(840,164,l),
(840,304,l),
(190,304,l)
);
}
);
};
layerId = "75A0A031-BEAD-45F4-8089-5B3FA8FFE7DC";
shapes = (
{
closed = 1;
nodes = (
(674,53,ls),
(723,-67,o),
(860,-28,o),
(860,66,cs),
(860,1044,l),
(830,1044,l),
(830,66,ls),
(830,-4,o),
(734,-22,o),
(700,63,cs),
(326,991,ls),
(277,1113,o),
(140,1072,o),
(140,983,cs),
(140,0,l),
(170,0,l),
(170,983,ls),
(170,1049,o),
(269,1058,o),
(296,991,cs)
);
}
);
width = 1000;
}
);
unicode = 78;
},
{
glyphname = Eng;
lastChange = "2020-04-20 21:15:16 +0000";
layers = (
{
layerId = "7B6A6B4E-EFCA-423F-B1F3-F70C1AFA501E";
shapes = (
{
closed = 1;
nodes = (
(670,-173,l),
(785,-123,l),
(424,937,ls),
(363,1116,o),
(140,1112,o),
(140,864,cs),
(140,0,l),
(270,0,l),
(270,870,ls),
(270,905,o),
(293,938,o),
(316,870,cs)
);
},
{
closed = 1;
nodes = (
(720,1044,l),
(720,43,ls),
(720,-149,o),
(720,-173,o),
(300,-173,c),
(300,-318,l),
(726,-318,o),
(860,-246,o),
(860,63,cs),
(860,1044,l)
);
}
);
width = 1000;
},
{
layerId = "75A0A031-BEAD-45F4-8089-5B3FA8FFE7DC";
shapes = (
{
closed = 1;
nodes = (
(784,-220,l),
(810,-210,l),
(326,991,ls),
(277,1112,o),
(140,1072,o),
(140,983,cs),
(140,0,l),
(170,0,l),
(170,983,ls),
(170,1049,o),
(269,1057,o),
(296,991,cs)
);
},
{
closed = 1;
nodes = (
(830,1044,l),
(830,93,ls),
(830,-269,o),
(760,-291,o),
(300,-291,c),
(300,-318,l),
(776,-318,o),
(860,-296,o),
(860,93,cs),
(860,1044,l)
);
}
);
width = 1000;
}
);
unicode = 330;
},
{
glyphname = O;
lastChange = "2020-04-28 00:19:30 +0000";
layers = (
{
anchors = (
{
name = bottom;
pos = (500,0);
},
{
name = center;
pos = (500,527);
},
{
name = ogonek;
pos = (900,10);
},
{
name = top;
pos = (500,1052);
},
{
name = topleft;
pos = (20,1152);
},
{
name = topright;
pos = (980,1152);
}
);
layerId = "7B6A6B4E-EFCA-423F-B1F3-F70C1AFA501E";
shapes = (
{
closed = 1;
nodes = (
(231,1074,o),
(80,873,o),
(80,590,cs),
(80,470,ls),
(80,216,o),
(231,-20,o),
(500,-20,cs),
(779,-20,o),
(920,216,o),
(920,470,cs),
(920,590,ls),
(920,873,o),
(779,1074,o),
(500,1074,cs)
);
},
{
closed = 1;
nodes = (
(674,939,o),
(780,788,o),
(780,588,cs),
(780,472,ls),
(780,272,o),
(674,115,o),
(500,115,cs),
(326,115,o),
(220,272,o),
(220,472,cs),
(220,588,ls),
(220,788,o),
(326,939,o),
(500,939,cs)
);
}
);
width = 1000;
},
{
anchors = (
{
name = bottom;
pos = (500,0);
},
{
name = center;
pos = (500,576);
},
{
name = ogonek;
pos = (900,10);
},
{
name = top;
pos = (500,1052);
},
{
name = topleft;
pos = (20,1152);
},
{
name = topright;
pos = (980,1152);
}
);
layerId = "75A0A031-BEAD-45F4-8089-5B3FA8FFE7DC";
shapes = (
{
closed = 1;
nodes = (
(231,1074,o),
(80,870,o),
(80,587,cs),
(80,467,ls),
(80,213,o),
(231,-20,o),
(500,-20,cs),
(779,-20,o),
(920,213,o),
(920,467,cs),
(920,587,ls),
(920,870,o),
(779,1074,o),
(500,1074,cs)
);
},
{
closed = 1;
nodes = (
(754,1047,o),
(890,855,o),
(890,585,cs),
(890,469,ls),
(890,229,o),
(754,7,o),
(500,7,cs),
(246,7,o),
(110,229,o),
(110,469,cs),
(110,585,ls),
(110,855,o),
(246,1047,o),
(500,1047,cs)
);
}
);
width = 1000;
}
);
unicode = 79;
},
{
glyphname = OE;
lastChange = "2020-04-20 21:30:30 +0000";
layers = (
{
layerId = "7B6A6B4E-EFCA-423F-B1F3-F70C1AFA501E";
shapes = (
{
closed = 1;
nodes = (
(980,0,l),
(980,135,l),
(650,135,l),
(650,435,l),
(940,435,l),
(940,565,l),
(650,565,l),
(650,909,l),
(940,909,l),
(940,1044,l),
(510,1044,l),
(510,0,l)
);
},
{
closed = 1;
nodes = (
(211,1044,o),
(60,873,o),
(60,590,cs),
(60,470,ls),
(60,216,o),
(211,0,o),
(480,0,cs),
(588,0,l),
(588,139,l),
(480,135,ls),
(306,129,o),
(200,272,o),
(200,472,cs),
(200,588,ls),
(200,788,o),
(306,909,o),
(480,909,cs),
(583,909,l),
(583,1044,l),
(480,1044,ls)
);
}
);
width = 1000;
},
{
layerId = "75A0A031-BEAD-45F4-8089-5B3FA8FFE7DC";
shapes = (
{
closed = 1;
nodes = (
(980,0,l),
(980,27,l),
(560,27,l),
(560,487,l),
(940,487,l),
(940,514,l),
(560,514,l),
(560,1017,l),
(940,1017,l),
(940,1044,l),
(530,1044,l),
(530,0,l)
);
},
{
closed = 1;
nodes = (
(211,1044,o),
(60,873,o),
(60,590,cs),
(60,470,ls),
(60,216,o),
(211,0,o),
(480,0,cs),
(548,0,l),
(548,24,l),
(480,25,ls),
(226,29,o),
(90,242,o),
(90,472,cs),
(90,588,ls),
(90,848,o),
(226,1019,o),
(480,1019,cs),
(543,1019,l),
(543,1044,l),
(480,1044,ls)
);
}
);
width = 1000;
}
);
unicode = 338;
},
{
glyphname = P;
lastChange = "2020-04-19 03:14:44 +0000";
layers = (
{
background = {
shapes = (
{
closed = 1;
nodes = (
(880,436,l),
(880,991,l),
(795,1044,l),
(150,1044,l),
(150,926,l),
(684,926,l),
(745,878,l),
(745,528,l),
(609,509,l),
(284,509,l),
(284,988,l),
(150,988,l),
(150,0,l),
(284,0,l),
(284,391,l),
(622,391,l)
);
}
);
};
layerId = "7B6A6B4E-EFCA-423F-B1F3-F70C1AFA501E";
shapes = (
{
closed = 1;
nodes = (
(160,361,l),
(498,361,ls),
(755,361,o),
(920,499,o),
(920,718,cs),
(920,961,o),
(750,1044,o),
(501,1044,cs),
(160,1044,l),
(160,0,l),
(300,0,l),
(300,972,l),
(160,909,l),
(497,909,ls),
(680,909,o),
(775,857,o),
(775,716,cs),
(775,579,o),
(679,496,o),
(502,496,cs),
(160,496,l)
);
}
);
width = 1000;
},
{
background = {
shapes = (
{
closed = 1;
nodes = (
(880,436,l),
(880,991,l),
(795,1044,l),
(150,1044,l),
(150,926,l),
(684,926,l),
(745,878,l),
(745,528,l),
(609,509,l),
(284,509,l),
(284,988,l),
(150,988,l),
(150,0,l),
(284,0,l),
(284,391,l),
(622,391,l)
);
}
);
};
layerId = "75A0A031-BEAD-45F4-8089-5B3FA8FFE7DC";
shapes = (
{
closed = 1;
nodes = (
(160,361,l),
(498,361,ls),
(755,361,o),
(920,483,o),
(920,718,cs),
(920,961,o),
(750,1044,o),
(501,1044,cs),
(160,1044,l),
(160,0,l),
(190,0,l),
(190,1042,l),
(160,1017,l),
(497,1017,ls),
(737,1017,o),
(887,934,o),
(887,718,cs),
(887,502,o),
(737,388,o),
(502,388,cs),
(160,388,l)
);
}
);
width = 1000;
}
);
unicode = 80;
},
{
glyphname = Thorn;
lastChange = "2020-04-20 21:00:56 +0000";
layers = (
{
layerId = "7B6A6B4E-EFCA-423F-B1F3-F70C1AFA501E";
shapes = (
{
closed = 1;
nodes = (
(160,191,l),
(498,191,ls),
(755,191,o),
(920,329,o),
(920,548,cs),
(920,791,o),
(750,874,o),
(501,874,cs),
(160,874,l),
(160,739,l),
(497,739,ls),
(680,739,o),
(775,687,o),
(775,546,cs),
(775,409,o),
(679,326,o),
(502,326,cs),
(160,326,l)
);
},
{
closed = 1;
nodes = (
(160,0,l),
(294,0,l),
(294,1044,l),
(160,1044,l)
);
}
);
width = 1000;
},
{
layerId = "75A0A031-BEAD-45F4-8089-5B3FA8FFE7DC";
shapes = (
{
closed = 1;
nodes = (
(160,191,l),
(498,191,ls),
(755,191,o),
(920,313,o),
(920,548,cs),
(920,791,o),
(750,874,o),
(501,874,cs),
(160,874,l),
(160,847,l),
(497,847,ls),
(737,847,o),
(887,764,o),
(887,548,cs),
(887,332,o),
(737,218,o),
(502,218,cs),
(160,218,l)
);
},
{
closed = 1;
nodes = (
(160,0,l),
(190,0,l),
(190,1044,l),
(160,1044,l)
);
}
);
width = 1000;
}
);
unicode = 222;
},
{
glyphname = Q;
lastChange = "2020-04-19 02:38:28 +0000";
layers = (
{
layerId = "7B6A6B4E-EFCA-423F-B1F3-F70C1AFA501E";
shapes = (
{
closed = 1;
nodes = (
(903,-229,l),
(1006,-128,l),
(706,172,l),
(603,71,l)
);
},
{
ref = O;
}
);
width = 1000;
},
{
layerId = "75A0A031-BEAD-45F4-8089-5B3FA8FFE7DC";
shapes = (
{
closed = 1;
nodes = (
(923,-209,l),
(946,-188,l),
(706,52,l),
(683,31,l)
);
},
{
ref = O;
}
);
width = 1000;
}
);
unicode = 81;
},
{
glyphname = R;
lastChange = "2020-04-19 03:16:57 +0000";
layers = (
{
anchors = (
{
name = bottom;
pos = (500,0);
},
{
name = top;
pos = (500,1052);
}
);
layerId = "7B6A6B4E-EFCA-423F-B1F3-F70C1AFA501E";
shapes = (
{
closed = 1;
nodes = (
(160,381,l),
(398,381,ls),
(735,381,o),
(900,529,o),
(900,738,cs),
(900,971,o),
(730,1044,o),
(481,1044,cs),
(160,1044,l),
(160,0,l),
(300,0,l),
(300,972,l),
(160,909,l),
(477,909,ls),
(660,909,o),
(755,867,o),
(755,736,cs),
(755,609,o),
(659,516,o),
(402,516,cs),
(160,516,l)
);
},
{
closed = 1;
nodes = (
(233,508,l),
(760,0,l),
(960,0,l),
(433,509,l)
);
}
);
width = 1000;
},
{
anchors = (
{
name = bottom;
pos = (500,0);
},
{
name = top;
pos = (500,1052);
}
);
layerId = "75A0A031-BEAD-45F4-8089-5B3FA8FFE7DC";
shapes = (
{
closed = 1;
nodes = (
(160,381,l),
(407,381,ls),
(735,381,o),
(900,512,o),
(900,738,cs),
(900,966,o),
(730,1044,o),
(481,1044,cs),
(160,1044,l),
(160,0,l),
(190,0,l),
(190,1044,l),
(160,1017,l),
(477,1017,ls),
(714,1017,o),
(870,948,o),
(870,738,cs),
(870,533,o),
(719,408,o),
(402,408,cs),
(160,408,l)
);
},
{
closed = 1;
nodes = (
(510,392,l),
(917,0,l),
(960,0,l),
(553,393,l)
);
}
);
width = 1000;
}
);
unicode = 82;
},
{
glyphname = S;
lastChange = "2020-04-20 15:47:59 +0000";
layers = (
{
anchors = (
{
name = bottom;
pos = (500,0);
},
{
name = top;
pos = (500,1052);
}
);
layerId = "7B6A6B4E-EFCA-423F-B1F3-F70C1AFA501E";
shapes = (
{
closed = 1;
nodes = (
(880,708,o),
(285,497,o),
(285,768,cs),
(285,868,o),
(361,929,o),
(490,929,cs),
(578,929,o),
(690,902,o),
(760,837,c),
(837,961,l),
(758,1037,o),
(602,1065,o),
(490,1065,cs),
(247,1065,o),
(145,934,o),
(145,762,cs),
(145,350,o),
(740,552,o),
(740,285,cs),
(740,165,o),
(624,118,o),
(497,118,cs),
(378,118,o),
(299,159,o),
(210,242,c),
(110,124,l),
(214,6,o),
(376,-20,o),
(494,-20,cs),
(696,-20,o),
(880,58,o),
(880,291,cs)
);
}
);
width = 1000;
},
{
anchors = (
{
name = bottom;
pos = (500,0);
},
{
name = top;
pos = (500,1052);
}
);
layerId = "75A0A031-BEAD-45F4-8089-5B3FA8FFE7DC";
shapes = (
{
closed = 1;
nodes = (
(880,718,o),
(178,389,o),
(178,775,cs),
(178,918,o),
(262,1038,o),
(490,1038,cs),
(592,1038,o),
(739,1013,o),
(817,941,c),
(837,961,l),
(758,1037,o),
(602,1065,o),
(490,1065,cs),
(247,1065,o),
(145,934,o),
(145,775,cs),
(145,350,o),
(847,681,o),
(847,282,cs),
(847,73,o),
(677,7,o),
(494,7,cs),
(385,7,o),
(234,30,o),
(130,144,c),
(110,124,l),
(214,6,o),
(376,-20,o),
(494,-20,cs),
(696,-20,o),
(880,58,o),
(880,282,cs)
);
}
);
width = 1000;
}
);
unicode = 83;
},
{
glyphname = Germandbls;
lastChange = "2020-04-22 03:40:37 +0000";
layers = (
{
background = {
shapes = (
{
closed = 1;
nodes = (
(-48,40,l),
(-48,0,l),
(178,0,l),
(178,40,l)
);
},
{
closed = 1;
nodes = (
(433,688,o),
(343,720,o),
(256,720,cs),
(141,720,o),
(30,663,o),
(30,486,cs),
(30,24,l),
(110,24,l),
(110,492,ls),
(110,603,o),
(119,676,o),
(237,676,cs),
(331,676,o),
(352,630,o),
(352,585,cs),
(352,555,o),
(343,526,o),
(295,506,cs),
(218,474,o),
(185,431,o),
(185,372,cs),
(185,304,o),
(229,250,o),
(322,195,cs),
(393,153,o),
(419,125,o),
(419,92,cs),
(419,56,o),
(388,31,o),
(354,21,c),
(240,63,l),
(215,10,l),
(256,-4,o),
(298,-14,o),
(342,-14,cs),
(433,-14,o),
(495,30,o),
(495,109,cs),
(495,174,o),
(453,210,o),
(366,263,cs),
(297,305,o),
(258,335,o),
(258,386,cs),
(258,418,o),
(273,450,o),
(321,470,cs),
(398,502,o),
(433,525,o),
(433,587,cs)
);
}
);
};
layerId = "7B6A6B4E-EFCA-423F-B1F3-F70C1AFA501E";
shapes = (
{
closed = 1;
nodes = (
(270,0,l),
(270,909,l),
(582,909,ls),
(663,909,o),
(670,885,o),
(627,831,cs),
(524,701,ls),
(487,654,o),
(477,638,o),
(529,617,cs),
(720,540,o),
(808,479,o),
(808,332,cs),
(808,167,o),
(704,125,o),
(584,125,cs),
(488,125,o),
(424,152,o),
(372,180,c),
(372,35,l),
(416,13,o),
(484,-13,o),
(584,-13,cs),
(826,-13,o),
(950,133,o),
(950,332,cs),
(950,510,o),
(849,630,o),
(734,687,cs),
(702,703,o),
(698,708,o),
(718,734,cs),
(814,861,ls),
(899,974,o),
(854,1044,o),
(726,1044,cs),
(130,1044,l),
(130,0,l)
);
}
);
width = 1000;
},
{
background = {
shapes = (
{
closed = 1;
nodes = (
(-48,40,l),
(-48,0,l),
(178,0,l),
(178,40,l)
);
},
{
closed = 1;
nodes = (
(433,688,o),
(343,720,o),
(256,720,cs),
(141,720,o),
(30,663,o),
(30,486,cs),
(30,24,l),
(110,24,l),
(110,492,ls),
(110,603,o),
(119,676,o),
(237,676,cs),
(331,676,o),
(352,630,o),
(352,585,cs),
(352,555,o),
(343,526,o),
(295,506,cs),
(218,474,o),
(185,431,o),
(185,372,cs),
(185,304,o),
(229,250,o),
(322,195,cs),
(393,153,o),
(419,125,o),
(419,92,cs),
(419,56,o),
(388,31,o),
(354,21,c),
(240,63,l),
(215,10,l),
(256,-4,o),
(298,-14,o),
(342,-14,cs),
(433,-14,o),
(495,30,o),
(495,109,cs),
(495,174,o),
(453,210,o),
(366,263,cs),
(297,305,o),
(258,335,o),
(258,386,cs),
(258,418,o),
(273,450,o),
(321,470,cs),
(398,502,o),
(433,525,o),
(433,587,cs)
);
}
);
};
layerId = "75A0A031-BEAD-45F4-8089-5B3FA8FFE7DC";
shapes = (
{
closed = 1;
nodes = (
(170,0,l),
(170,1016,l),
(721,1016,ls),
(760,1016,o),
(777,1015,o),
(750,978,cs),
(501,630,ls),
(469,585,o),
(483,587,o),
(519,587,cs),
(695,587,o),
(920,539,o),
(920,312,cs),
(920,147,o),
(804,14,o),
(584,14,cs),
(488,14,o),
(394,41,o),
(312,89,c),
(312,55,l),
(390,13,o),
(480,-13,o),
(584,-13,cs),
(826,-13,o),
(950,131,o),
(950,312,cs),
(950,544,o),
(751,612,o),
(556,612,cs),
(527,612,o),
(520,610,o),
(541,640,cs),
(786,985,ls),
(823,1038,o),
(794,1044,o),
(744,1044,cs),
(140,1044,l),
(140,0,l)
);
}
);
width = 1000;
}
);
unicode = 7838;
},
{
glyphname = T;
lastChange = "2020-04-18 08:35:10 +0000";
layers = (
{
anchors = (
{
name = bottom;
pos = (500,0);
},
{
name = center;
pos = (684,676);
},
{
name = top;
pos = (500,1052);
}
);
layerId = "7B6A6B4E-EFCA-423F-B1F3-F70C1AFA501E";
shapes = (
{
closed = 1;
nodes = (
(570,1044,l),
(430,1044,l),
(430,0,l),
(570,0,l)
);
},
{
closed = 1;
nodes = (
(50,1044,l),
(50,909,l),
(950,909,l),
(950,1044,l)
);
}
);
width = 1000;
},
{
anchors = (
{
name = bottom;
pos = (500,0);
},
{
name = center;
pos = (684,676);
},
{
name = top;
pos = (500,1052);
}
);
layerId = "75A0A031-BEAD-45F4-8089-5B3FA8FFE7DC";
shapes = (
{
closed = 1;
nodes = (
(515,1044,l),
(485,1044,l),
(485,0,l),
(515,0,l)
);
},
{
closed = 1;
nodes = (
(50,1044,l),
(50,1017,l),
(950,1017,l),
(950,1044,l)
);
}
);
width = 1000;
}
);
unicode = 84;
},
{
glyphname = Tbar;
lastChange = "2020-04-20 21:03:34 +0000";
layers = (
{
anchors = (
{
name = bottom;
pos = (500,0);
},
{
name = center;
pos = (684,676);
},
{
name = top;
pos = (500,1052);
}
);
layerId = "7B6A6B4E-EFCA-423F-B1F3-F70C1AFA501E";
shapes = (
{
closed = 1;
nodes = (
(570,1044,l),
(430,1044,l),
(430,0,l),
(570,0,l)
);
},
{
closed = 1;
nodes = (
(50,1044,l),
(50,909,l),
(950,909,l),
(950,1044,l)
);
},
{
closed = 1;
nodes = (
(50,568,l),
(50,433,l),
(950,433,l),
(950,568,l)
);
}
);
width = 1000;
},
{
anchors = (
{
name = bottom;
pos = (500,0);
},
{
name = center;
pos = (684,676);
},
{
name = top;
pos = (500,1052);
}
);
layerId = "75A0A031-BEAD-45F4-8089-5B3FA8FFE7DC";
shapes = (
{
closed = 1;
nodes = (
(515,1044,l),
(485,1044,l),
(485,0,l),
(515,0,l)
);
},
{
closed = 1;
nodes = (
(50,1044,l),
(50,1017,l),
(950,1017,l),
(950,1044,l)
);
},
{
closed = 1;
nodes = (
(50,514,l),
(50,487,l),
(950,487,l),
(950,514,l)
);
}
);
width = 1000;
}
);
unicode = 358;
},
{
glyphname = U;
lastChange = "2020-04-18 08:36:29 +0000";
layers = (
{
anchors = (
{
name = bottom;
pos = (500,0);
},
{
name = ogonek;
pos = (900,10);
},
{
name = top;
pos = (500,1052);
},
{
name = topright;
pos = (980,1152);
}
);
layerId = "7B6A6B4E-EFCA-423F-B1F3-F70C1AFA501E";
shapes = (
{
closed = 1;
nodes = (
(720,373,ls),
(720,198,o),
(682,115,o),
(500,115,cs),
(322,115,o),
(280,198,o),
(280,373,cs),
(280,1044,l),
(140,1044,l),
(140,373,ls),
(140,60,o),
(239,-20,o),
(500,-20,cs),
(757,-20,o),
(860,60,o),
(860,373,cs),
(860,1044,l),
(720,1044,l)
);
}
);
width = 1000;
},
{
anchors = (
{
name = bottom;
pos = (500,0);
},
{
name = ogonek;
pos = (900,10);
},
{
name = top;
pos = (500,1052);
},
{
name = topright;
pos = (980,1152);
}
);
layerId = "75A0A031-BEAD-45F4-8089-5B3FA8FFE7DC";
shapes = (
{
closed = 1;
nodes = (
(830,313,ls),
(830,78,o),
(742,7,o),
(500,7,cs),
(252,7,o),
(170,78,o),
(170,313,cs),
(170,1044,l),
(140,1044,l),
(140,313,ls),
(140,60,o),
(239,-20,o),
(500,-20,cs),
(757,-20,o),
(860,60,o),
(860,313,cs),
(860,1044,l),
(830,1044,l)
);
}
);
width = 1000;
}
);
unicode = 85;
},
{
glyphname = V;
lastChange = "2020-04-18 09:26:20 +0000";
layers = (
{
background = {
shapes = (
{
closed = 1;
nodes = (
(768,1044,l),
(726,766,l),
(610,115,l),
(423,118,l),
(282,800,l),
(244,1044,l),
(86,1044,l),
(145,774,l),
(308,0,l),
(710,0,l),
(864,772,l),
(915,1044,l)
);
}
);
};
layerId = "7B6A6B4E-EFCA-423F-B1F3-F70C1AFA501E";
shapes = (
{
closed = 1;
nodes = (
(802,1044,l),
(543,148,ls),
(531,105,o),
(482,105,o),
(469,148,cs),
(198,1044,l),
(40,1044,l),
(358,53,ls),
(397,-70,o),
(612,-71,o),
(651,53,cs),
(960,1044,l)
);
}
);
width = 1000;
},
{
background = {
shapes = (
{
closed = 1;
nodes = (
(768,1044,l),
(726,766,l),
(610,115,l),
(423,118,l),
(282,800,l),
(244,1044,l),
(86,1044,l),
(145,774,l),
(308,0,l),
(710,0,l),
(864,772,l),
(915,1044,l)
);
}
);
};
layerId = "75A0A031-BEAD-45F4-8089-5B3FA8FFE7DC";
shapes = (
{
closed = 1;
nodes = (
(927,1044,l),
(629,89,ls),
(592,-31,o),
(417,-31,o),
(378,89,cs),
(71,1044,l),
(39,1044,l),
(345,89,ls),
(396,-70,o),
(611,-71,o),
(661,89,cs),
(959,1044,l)
);
}
);
width = 1000;
}
);
unicode = 86;
},
{
glyphname = W;
lastChange = "2020-04-19 03:28:34 +0000";
layers = (
{
anchors = (
{
name = bottom;
pos = (500,0);
},
{
name = top;
pos = (500,1052);
}
);
background = {
shapes = (
{
closed = 1;
nodes = (
(728,263,l),
(695,263,l),
(576,546,l),
(467,546,l),
(305,263,l),
(272,263,l),
(272,1044,l),
(138,1044,l),
(138,0,l),
(299,0,l),
(483,329,l),
(516,329,l),
(674,0,l),
(862,0,l),
(862,1044,l),
(728,1044,l)
);
}
);
};
layerId = "7B6A6B4E-EFCA-423F-B1F3-F70C1AFA501E";
shapes = (
{
closed = 1;
nodes = (
(816,1044,l),
(749,155,ls),
(745,106,o),
(684,106,o),
(679,153,cs),
(628,666,ls),
(612,827,o),
(395,827,o),
(379,666,cs),
(329,153,ls),
(324,106,o),
(263,106,o),
(259,155,cs),
(185,1044,l),
(50,1044,l),
(135,99,ls),
(149,-59,o),
(417,-76,o),
(434,112,cs),
(479,614,ls),
(482,646,o),
(518,644,o),
(521,614,cs),
(566,115,ls),
(584,-81,o),
(852,-52,o),
(865,89,cs),
(950,1044,l)
);
}
);
width = 1000;
},
{
anchors = (
{
name = bottom;
pos = (500,0);
},
{
name = top;
pos = (500,1052);
}
);
background = {
shapes = (
{
closed = 1;
nodes = (
(728,263,l),
(695,263,l),
(576,546,l),
(467,546,l),
(305,263,l),
(272,263,l),
(272,1044,l),
(138,1044,l),
(138,0,l),
(299,0,l),
(483,329,l),
(516,329,l),
(674,0,l),
(862,0,l),
(862,1044,l),
(728,1044,l)
);
}
);
};
layerId = "75A0A031-BEAD-45F4-8089-5B3FA8FFE7DC";
shapes = (
{
closed = 1;
nodes = (
(918,1044,l),
(835,99,ls),
(823,-34,o),
(633,-44,o),
(616,125,cs),
(561,666,ls),
(552,756,o),
(448,757,o),
(439,666,cs),
(384,122,ls),
(369,-30,o),
(178,-32,o),
(165,109,cs),
(82,1044,l),
(50,1044,l),
(135,99,ls),
(149,-59,o),
(395,-75,o),
(414,112,cs),
(469,666,ls),
(474,718,o),
(526,716,o),
(531,666,cs),
(586,115,ls),
(606,-81,o),
(852,-62,o),
(865,89,cs),
(950,1044,l)
);
}
);
width = 1000;
}
);
unicode = 87;
},
{
glyphname = X;
lastChange = "2020-04-19 03:30:37 +0000";
layers = (
{
layerId = "7B6A6B4E-EFCA-423F-B1F3-F70C1AFA501E";
shapes = (
{
closed = 1;
nodes = (
(148,-36,l),
(538,491,l),
(475,491,l),
(839,-36,l),
(960,44,l),
(559,598,l),
(559,510,l),
(936,1008,l),
(818,1088,l),
(475,617,l),
(538,617,l),
(197,1088,l),
(76,1008,l),
(453,510,l),
(454,598,l),
(40,44,l)
);
}
);
width = 1000;
},
{
layerId = "75A0A031-BEAD-45F4-8089-5B3FA8FFE7DC";
shapes = (
{
closed = 1;
nodes = (
(105,-4,l),
(513,540,l),
(499,540,l),
(887,-5,l),
(912,12,l),
(518,564,l),
(518,544,l),
(890,1039,l),
(864,1057,l),
(499,569,l),
(513,569,l),
(149,1056,l),
(124,1039,l),
(494,544,l),
(494,564,l),
(83,13,l)
);
}
);
width = 1000;
}
);
unicode = 88;
},
{
glyphname = Y;
lastChange = "2020-05-01 22:29:23 +0000";
layers = (
{
anchors = (
{
name = bottom;
pos = (500,0);
},
{
name = top;
pos = (500,1052);
},
{
name = topleft;
pos = (20,1152);
}
);
background = {
shapes = (
{
closed = 1;
nodes = (
(324,2,l),
(474,0,l),
(980,1044,l),
(830,1044,l)
);
},
{
closed = 1;
nodes = (
(611,485,l),
(498,487,ls),
(466,488,o),
(462,496,o),
(447,527,cs),
(202,1044,l),
(60,1044,l),
(331,454,ls),
(365,380,o),
(386,353,o),
(458,353,cs),
(611,353,l)
);
}
);
};
layerId = "7B6A6B4E-EFCA-423F-B1F3-F70C1AFA501E";
shapes = (
{
closed = 1;
nodes = (
(570,0,l),
(570,594,l),
(430,594,l),
(430,0,l)
);
},
{
closed = 1;
nodes = (
(500,376,l),
(970,1024,l),
(853,1104,l),
(500,607,l),
(147,1104,l),
(30,1024,l)
);
}
);
width = 1000;
},
{
anchors = (
{
name = bottom;
pos = (500,0);
},
{
name = top;
pos = (500,1052);
},
{
name = topleft;
pos = (20,1152);
}
);
background = {
shapes = (
{
closed = 1;
nodes = (
(381,2,l),
(414,0,l),
(920,1044,l),
(887,1044,l)
);
},
{
closed = 1;
nodes = (
(618,485,l),
(442,487,ls),
(417,487,o),
(407,498,o),
(391,527,cs),
(114,1044,l),
(80,1044,l),
(360,521,ls),
(380,483,o),
(397,458,o),
(442,458,cs),
(618,458,l)
);
}
);
};
layerId = "75A0A031-BEAD-45F4-8089-5B3FA8FFE7DC";
shapes = (
{
closed = 1;
nodes = (
(515,0,l),
(515,504,l),
(485,504,l),
(485,0,l)
);
},
{
closed = 1;
nodes = (
(500,466,l),
(920,1044,l),
(900,1060,l),
(500,517,l),
(100,1060,l),
(80,1044,l)
);
}
);
width = 1000;
}
);
unicode = 89;
},
{
glyphname = Z;
lastChange = "2020-04-19 03:23:12 +0000";
layers = (
{
anchors = (
{
name = bottom;
pos = (500,0);
},
{
name = top;
pos = (500,1052);
}
);
layerId = "7B6A6B4E-EFCA-423F-B1F3-F70C1AFA501E";
shapes = (
{
closed = 1;
nodes = (
(129,1044,l),
(129,909,l),
(628,909,ls),
(665,909,o),
(668,887,o),
(647,858,cs),
(174,197,ls),
(88,77,o),
(90,0,o),
(171,0,cs),
(890,0,l),
(890,135,l),
(357,135,ls),
(320,135,o),
(321,154,o),
(340,182,cs),
(804,844,ls),
(897,977,o),
(872,1044,o),
(797,1044,cs)
);
}
);
width = 1000;
},
{
anchors = (
{
name = bottom;
pos = (500,0);
},
{
name = top;
pos = (500,1052);
}
);
layerId = "75A0A031-BEAD-45F4-8089-5B3FA8FFE7DC";
shapes = (
{
closed = 1;
nodes = (
(129,1044,l),
(129,1017,l),
(798,1017,ls),
(847,1017,o),
(857,1014,o),
(817,966,cs),
(174,197,ls),
(79,84,o),
(90,0,o),
(171,0,cs),
(890,0,l),
(890,27,l),
(174,27,ls),
(115,27,o),
(133,103,o),
(204,187,cs),
(847,956,ls),
(917,1039,o),
(872,1044,o),
(797,1044,cs)
);
}
);
width = 1000;
}
);
unicode = 90;
},
{
glyphname = A.l;
lastChange = "2020-04-20 03:49:05 +0000";
layers = (
{
anchors = (
{
name = bottom;
pos = (500,0);
},
{
name = ogonek;
pos = (900,10);
},
{
name = top;
pos = (500,1052);
}
);
background = {
shapes = (
{
closed = 1;
nodes = (
(901,-448,l),
(901,1152,l),
(724,1152,l),
(724,-448,l)
);
},
{
closed = 1;
nodes = (
(1408,-448,l),
(1408,1152,l),
(1231,1152,l),
(1231,-448,l)
);
},
{
closed = 1;
nodes = (
(786,-448,l),
(786,-288,l),
(177,-288,l),
(177,-448,l)
);
},
{
closed = 1;
nodes = (
(1954,-448,l),
(1954,-288,l),
(1345,-288,l),
(1345,-448,l)
);
},
{
closed = 1;
nodes = (
(1954,992,l),
(1954,1152,l),
(177,1152,l),
(177,992,l)
);
},
{
closed = 1;
nodes = (
(1954,32,l),
(1954,192,l),
(177,192,l),
(177,32,l)
);
},
{
closed = 1;
nodes = (
(854,512,l),
(854,672,l),
(177,672,l),
(177,512,l)
);
},
{
closed = 1;
nodes = (
(1954,512,l),
(1954,672,l),
(1277,672,l),
(1277,512,l)
);
}
);
};
layerId = "7B6A6B4E-EFCA-423F-B1F3-F70C1AFA501E";
shapes = (
{
closed = 1;
nodes = (
(152,0,l),
(433,896,ls),
(447,939,o),
(501,939,o),
(515,896,cs),
(808,0,l),
(960,0,l),
(622,991,ls),
(580,1113,o),
(370,1114,o),
(329,991,cs),
(0,0,l)
);
},
{
closed = 1;
nodes = (
(150,264,l),
(800,264,l),
(800,404,l),
(150,404,l)
);
}
);
width = 1000;
},
{
anchors = (
{
name = bottom;
pos = (500,0);
},
{
name = ogonek;
pos = (900,10);
},
{
name = top;
pos = (500,1052);
}
);
background = {
shapes = (
{
closed = 1;
nodes = (
(901,-448,l),
(901,1152,l),
(724,1152,l),
(724,-448,l)
);
},
{
closed = 1;
nodes = (
(1408,-448,l),
(1408,1152,l),
(1231,1152,l),
(1231,-448,l)
);
},
{
closed = 1;
nodes = (
(786,-448,l),
(786,-288,l),
(177,-288,l),
(177,-448,l)
);
},
{
closed = 1;
nodes = (
(1954,-448,l),
(1954,-288,l),
(1345,-288,l),
(1345,-448,l)
);
},
{
closed = 1;
nodes = (
(1954,992,l),
(1954,1152,l),
(177,1152,l),
(177,992,l)
);
},
{
closed = 1;
nodes = (
(1954,32,l),
(1954,192,l),
(177,192,l),
(177,32,l)
);
},
{
closed = 1;
nodes = (
(854,512,l),
(854,672,l),
(177,672,l),
(177,512,l)
);
},
{
closed = 1;
nodes = (
(1954,512,l),
(1954,672,l),
(1277,672,l),
(1277,512,l)
);
}
);
};
layerId = "75A0A031-BEAD-45F4-8089-5B3FA8FFE7DC";
shapes = (
{
closed = 1;
nodes = (
(32,0,l),
(370,955,ls),
(413,1075,o),
(538,1074,o),
(581,955,cs),
(928,0,l),
(960,0,l),
(614,955,ls),
(556,1114,o),
(395,1115,o),
(338,955,cs),
(0,0,l)
);
},
{
closed = 1;
nodes = (
(170,377,l),
(790,377,l),
(790,404,l),
(170,404,l)
);
}
);
width = 1000;
}
);
},
{
glyphname = H.l;
lastChange = "2020-04-20 08:35:28 +0000";
layers = (
{
layerId = "7B6A6B4E-EFCA-423F-B1F3-F70C1AFA501E";
shapes = (
{
closed = 1;
nodes = (
(50,433,l),
(850,433,l),
(850,568,l),
(50,568,l)
);
},
{
closed = 1;
nodes = (
(50,0,l),
(190,0,l),
(190,1044,l),
(50,1044,l)
);
},
{
closed = 1;
nodes = (
(710,0,l),
(850,0,l),
(850,1044,l),
(710,1044,l)
);
}
);
width = 1000;
},
{
layerId = "75A0A031-BEAD-45F4-8089-5B3FA8FFE7DC";
shapes = (
{
closed = 1;
nodes = (
(50,487,l),
(850,487,l),
(850,514,l),
(50,514,l)
);
},
{
closed = 1;
nodes = (
(50,0,l),
(80,0,l),
(80,1044,l),
(50,1044,l)
);
},
{
closed = 1;
nodes = (
(820,0,l),
(850,0,l),
(850,1044,l),
(820,1044,l)
);
}
);
width = 1000;
}
);
},
{
glyphname = M.l;
lastChange = "2020-04-20 04:03:09 +0000";
layers = (
{
layerId = "7B6A6B4E-EFCA-423F-B1F3-F70C1AFA501E";
shapes = (
{
closed = 1;
nodes = (
(142,0,l),
(169,872,ls),
(170,911,o),
(198,912,o),
(211,874,cs),
(379,391,ls),
(410,303,o),
(473,309,o),
(503,384,cs),
(697,874,ls),
(711,910,o),
(742,913,o),
(743,872,cs),
(757,0,l),
(900,0,l),
(874,938,ls),
(869,1128,o),
(649,1133,o),
(583,955,cs),
(459,623,ls),
(449,597,o),
(446,599,o),
(437,623,cs),
(321,952,ls),
(255,1139,o),
(31,1121,o),
(26,938,cs),
(0,0,l)
);
}
);
width = 1000;
},
{
layerId = "75A0A031-BEAD-45F4-8089-5B3FA8FFE7DC";
shapes = (
{
closed = 1;
nodes = (
(30,0,l),
(55,912,ls),
(60,1090,o),
(231,1080,o),
(261,926,cs),
(359,421,ls),
(377,328,o),
(504,328,o),
(525,421,cs),
(639,929,ls),
(670,1069,o),
(836,1100,o),
(841,912,cs),
(867,0,l),
(900,0,l),
(875,918,ls),
(869,1128,o),
(652,1124,o),
(611,939,cs),
(495,421,ls),
(483,368,o),
(399,367,o),
(389,421,cs),
(290,933,ls),
(253,1126,o),
(31,1121,o),
(25,918,cs),
(0,0,l)
);
}
);
width = 1000;
}
);
},
{
glyphname = N.l;
lastChange = "2020-04-20 16:03:59 +0000";
layers = (
{
layerId = "7B6A6B4E-EFCA-423F-B1F3-F70C1AFA501E";
shapes = (
{
closed = 1;
nodes = (
(674,53,ls),
(745,-55,o),
(860,-28,o),
(860,50,cs),
(860,1044,l),
(730,1044,l),
(730,262,ls),
(730,247,o),
(710,253,o),
(704,262,cs),
(226,991,ls),
(155,1099,o),
(40,1072,o),
(40,994,cs),
(40,0,l),
(170,0,l),
(170,782,ls),
(170,797,o),
(190,791,o),
(196,782,cs)
);
}
);
width = 1000;
},
{
layerId = "75A0A031-BEAD-45F4-8089-5B3FA8FFE7DC";
shapes = (
{
closed = 1;
nodes = (
(674,53,ls),
(733,-62,o),
(860,-28,o),
(860,66,cs),
(860,1044,l),
(830,1044,l),
(830,66,ls),
(830,-4,o),
(742,-19,o),
(700,63,cs),
(226,991,ls),
(166,1108,o),
(40,1072,o),
(40,983,cs),
(40,0,l),
(70,0,l),
(70,983,ls),
(70,1049,o),
(163,1055,o),
(196,991,cs)
);
}
);
width = 1000;
}
);
},
{
glyphname = O.l;
lastChange = "2020-04-20 16:04:55 +0000";
layers = (
{
layerId = "7B6A6B4E-EFCA-423F-B1F3-F70C1AFA501E";
shapes = (
{
closed = 1;
nodes = (
(171,1074,o),
(20,873,o),
(20,590,cs),
(20,470,ls),
(20,216,o),
(171,-20,o),
(470,-20,cs),
(779,-20,o),
(920,216,o),
(920,470,cs),
(920,590,ls),
(920,873,o),
(779,1074,o),
(470,1074,cs)
);
},
{
closed = 1;
nodes = (
(654,939,o),
(780,788,o),
(780,588,cs),
(780,472,ls),
(780,272,o),
(654,115,o),
(470,115,cs),
(286,115,o),
(160,272,o),
(160,472,cs),
(160,588,ls),
(160,788,o),
(286,939,o),
(470,939,cs)
);
}
);
width = 1000;
},
{
layerId = "75A0A031-BEAD-45F4-8089-5B3FA8FFE7DC";
shapes = (
{
closed = 1;
nodes = (
(191,1074,o),
(20,870,o),
(20,587,cs),
(20,467,ls),
(20,213,o),
(191,-20,o),
(470,-20,cs),
(759,-20,o),
(920,213,o),
(920,467,cs),
(920,587,ls),
(920,870,o),
(759,1074,o),
(470,1074,cs)
);
},
{
closed = 1;
nodes = (
(734,1047,o),
(890,855,o),
(890,585,cs),
(890,469,ls),
(890,229,o),
(734,7,o),
(470,7,cs),
(206,7,o),
(50,229,o),
(50,469,cs),
(50,585,ls),
(50,855,o),
(206,1047,o),
(470,1047,cs)
);
}
);
width = 1000;
}
);
},
{
glyphname = Q.l;
lastChange = "2020-04-20 16:05:36 +0000";
layers = (
{
layerId = "7B6A6B4E-EFCA-423F-B1F3-F70C1AFA501E";
shapes = (
{
closed = 1;
nodes = (
(903,-229,l),
(1006,-128,l),
(706,172,l),
(603,71,l)
);
},
{
ref = O.l;
}
);
width = 1000;
},
{
layerId = "75A0A031-BEAD-45F4-8089-5B3FA8FFE7DC";
shapes = (
{
closed = 1;
nodes = (
(883,-209,l),
(906,-188,l),
(666,52,l),
(643,31,l)
);
},
{
ref = O.l;
}
);
width = 1000;
}
);
},
{
glyphname = W.l;
lastChange = "2020-04-20 03:50:17 +0000";
layers = (
{
layerId = "7B6A6B4E-EFCA-423F-B1F3-F70C1AFA501E";
shapes = (
{
closed = 1;
nodes = (
(816,1087,l),
(739,155,ls),
(735,106,o),
(675,106,o),
(669,153,cs),
(608,666,ls),
(589,827,o),
(368,827,o),
(349,666,cs),
(289,153,ls),
(284,106,o),
(223,106,o),
(219,155,cs),
(135,1087,l),
(0,1087,l),
(95,99,ls),
(110,-59,o),
(378,-76,o),
(399,112,cs),
(454,614,ls),
(458,646,o),
(493,644,o),
(496,614,cs),
(551,115,ls),
(573,-81,o),
(842,-52,o),
(855,89,cs),
(950,1087,l)
);
}
);
width = 1000;
},
{
layerId = "75A0A031-BEAD-45F4-8089-5B3FA8FFE7DC";
shapes = (
{
closed = 1;
nodes = (
(918,1044,l),
(835,99,ls),
(823,-34,o),
(639,-44,o),
(616,125,cs),
(541,666,ls),
(528,758,o),
(422,757,o),
(409,666,cs),
(334,122,ls),
(313,-30,o),
(128,-32,o),
(115,109,cs),
(32,1044,l),
(0,1044,l),
(85,99,ls),
(99,-59,o),
(339,-75,o),
(364,112,cs),
(439,666,ls),
(446,718,o),
(504,718,o),
(511,666,cs),
(586,115,ls),
(613,-81,o),
(852,-62,o),
(865,89,cs),
(950,1044,l)
);
}
);
width = 1000;
}
);
},
{
glyphname = A.r;
lastChange = "2020-04-20 03:48:14 +0000";
layers = (
{
anchors = (
{
name = bottom;
pos = (500,0);
},
{
name = ogonek;
pos = (900,10);
},
{
name = top;
pos = (500,1052);
}
);
background = {
shapes = (
{
closed = 1;
nodes = (
(901,-448,l),
(901,1152,l),
(724,1152,l),
(724,-448,l)
);
},
{
closed = 1;
nodes = (
(1408,-448,l),
(1408,1152,l),
(1231,1152,l),
(1231,-448,l)
);
},
{
closed = 1;
nodes = (
(786,-448,l),
(786,-288,l),
(177,-288,l),
(177,-448,l)
);
},
{
closed = 1;
nodes = (
(1954,-448,l),
(1954,-288,l),
(1345,-288,l),
(1345,-448,l)
);
},
{
closed = 1;
nodes = (
(1954,992,l),
(1954,1152,l),
(177,1152,l),
(177,992,l)
);
},
{
closed = 1;
nodes = (
(1954,32,l),
(1954,192,l),
(177,192,l),
(177,32,l)
);
},
{
closed = 1;
nodes = (
(854,512,l),
(854,672,l),
(177,672,l),
(177,512,l)
);
},
{
closed = 1;
nodes = (
(1954,512,l),
(1954,672,l),
(1277,672,l),
(1277,512,l)
);
}
);
};
layerId = "7B6A6B4E-EFCA-423F-B1F3-F70C1AFA501E";
shapes = (
{
alignment = -1;
pos = (40,0);
ref = A.l;
}
);
width = 1000;
},
{
anchors = (
{
name = bottom;
pos = (500,0);
},
{
name = ogonek;
pos = (900,10);
},
{
name = top;
pos = (500,1052);
}
);
background = {
shapes = (
{
closed = 1;
nodes = (
(901,-448,l),
(901,1152,l),
(724,1152,l),
(724,-448,l)
);
},
{
closed = 1;
nodes = (
(1408,-448,l),
(1408,1152,l),
(1231,1152,l),
(1231,-448,l)
);
},
{
closed = 1;
nodes = (
(786,-448,l),
(786,-288,l),
(177,-288,l),
(177,-448,l)
);
},
{
closed = 1;
nodes = (
(1954,-448,l),
(1954,-288,l),
(1345,-288,l),
(1345,-448,l)
);
},
{
closed = 1;
nodes = (
(1954,992,l),
(1954,1152,l),
(177,1152,l),
(177,992,l)
);
},
{
closed = 1;
nodes = (
(1954,32,l),
(1954,192,l),
(177,192,l),
(177,32,l)
);
},
{
closed = 1;
nodes = (
(854,512,l),
(854,672,l),
(177,672,l),
(177,512,l)
);
},
{
closed = 1;
nodes = (
(1954,512,l),
(1954,672,l),
(1277,672,l),
(1277,512,l)
);
}
);
};
layerId = "75A0A031-BEAD-45F4-8089-5B3FA8FFE7DC";
shapes = (
{
alignment = -1;
pos = (40,0);
ref = A.l;
}
);
width = 1000;
}
);
},
{
glyphname = A.w;
lastChange = "2020-04-20 03:48:51 +0000";
layers = (
{
layerId = "7B6A6B4E-EFCA-423F-B1F3-F70C1AFA501E";
shapes = (
{
closed = 1;
nodes = (
(152,0,l),
(453,896,ls),
(467,939,o),
(520,939,o),
(535,896,cs),
(848,0,l),
(1000,0,l),
(642,991,ls),
(598,1113,o),
(392,1114,o),
(349,991,cs),
(0,0,l)
);
},
{
closed = 1;
nodes = (
(150,264,l),
(820,264,l),
(820,404,l),
(150,404,l)
);
}
);
width = 1000;
},
{
layerId = "75A0A031-BEAD-45F4-8089-5B3FA8FFE7DC";
shapes = (
{
closed = 1;
nodes = (
(32,0,l),
(390,955,ls),
(435,1074,o),
(555,1073,o),
(601,955,cs),
(968,0,l),
(1000,0,l),
(634,955,ls),
(573,1113,o),
(418,1114,o),
(358,955,cs),
(0,0,l)
);
},
{
closed = 1;
nodes = (
(170,377,l),
(830,377,l),
(830,404,l),
(170,404,l)
);
}
);
width = 1000;
}
);
},
{
glyphname = C.w;
lastChange = "2020-04-20 07:41:53 +0000";
layers = (
{
layerId = "7B6A6B4E-EFCA-423F-B1F3-F70C1AFA501E";
shapes = (
{
closed = 1;
nodes = (
(823,296,l),
(772,179,o),
(657,115,o),
(530,115,cs),
(336,115,o),
(210,264,o),
(210,464,cs),
(210,580,ls),
(210,780,o),
(326,929,o),
(528,929,cs),
(637,929,o),
(784,888,o),
(794,790,c),
(920,820,l),
(910,981,o),
(730,1064,o),
(528,1064,cs),
(211,1064,o),
(70,865,o),
(70,582,cs),
(70,462,ls),
(70,208,o),
(221,-20,o),
(530,-20,cs),
(713,-20,o),
(861,64,o),
(920,204,c)
);
}
);
width = 1000;
},
{
layerId = "75A0A031-BEAD-45F4-8089-5B3FA8FFE7DC";
shapes = (
{
closed = 1;
nodes = (
(903,216,l),
(849,80,o),
(707,7,o),
(540,7,cs),
(259,7,o),
(110,227,o),
(110,464,cs),
(110,580,ls),
(110,840,o),
(255,1037,o),
(538,1037,cs),
(721,1037,o),
(890,958,o),
(900,810,c),
(930,820,l),
(920,981,o),
(740,1064,o),
(538,1064,cs),
(221,1064,o),
(80,865,o),
(80,582,cs),
(80,462,ls),
(80,208,o),
(231,-20,o),
(540,-20,cs),
(723,-20,o),
(871,64,o),
(930,204,c)
);
}
);
width = 1000;
}
);
},
{
glyphname = D.w;
lastChange = "2020-04-20 07:43:29 +0000";
layers = (
{
layerId = "7B6A6B4E-EFCA-423F-B1F3-F70C1AFA501E";
shapes = (
{
closed = 1;
nodes = (
(379,0,ls),
(776,0,o),
(940,262,o),
(940,523,cs),
(940,795,o),
(765,1044,o),
(398,1044,cs),
(100,1044,l),
(100,0,l)
);
},
{
closed = 1;
nodes = (
(240,909,l),
(392,909,ls),
(709,909,o),
(795,712,o),
(795,522,cs),
(795,309,o),
(693,135,o),
(398,135,cs),
(240,135,l)
);
}
);
width = 1000;
},
{
layerId = "75A0A031-BEAD-45F4-8089-5B3FA8FFE7DC";
shapes = (
{
closed = 1;
nodes = (
(388,0,ls),
(766,0,o),
(940,262,o),
(940,523,cs),
(940,765,o),
(785,1044,o),
(388,1044,cs),
(100,1044,l),
(100,0,l)
);
},
{
closed = 1;
nodes = (
(130,1017,l),
(388,1017,ls),
(769,1017,o),
(907,753,o),
(907,523,cs),
(907,280,o),
(753,27,o),
(388,27,cs),
(130,27,l)
);
}
);
width = 1000;
}
);
},
{
glyphname = G.w;
lastChange = "2020-04-19 04:13:49 +0000";
layers = (
{
layerId = "7B6A6B4E-EFCA-423F-B1F3-F70C1AFA501E";
shapes = (
{
closed = 1;
nodes = (
(1010,568,l),
(518,568,l),
(518,433,l),
(1010,433,l)
);
},
{
closed = 1;
nodes = (
(719,-20,o),
(910,95,o),
(910,311,cs),
(910,567,l),
(784,568,l),
(784,311,ls),
(784,176,o),
(626,115,o),
(500,115,cs),
(306,115,o),
(190,264,o),
(190,464,cs),
(190,580,ls),
(190,780,o),
(336,929,o),
(518,929,cs),
(617,929,o),
(769,888,o),
(779,790,c),
(905,820,l),
(895,981,o),
(710,1064,o),
(518,1064,cs),
(221,1064,o),
(50,865,o),
(50,582,cs),
(50,462,ls),
(50,208,o),
(191,-20,o),
(500,-20,cs)
);
}
);
width = 1000;
},
{
layerId = "75A0A031-BEAD-45F4-8089-5B3FA8FFE7DC";
shapes = (
{
closed = 1;
nodes = (
(1010,514,l),
(518,514,l),
(518,487,l),
(1010,487,l)
);
},
{
closed = 1;
nodes = (
(719,-20,o),
(910,95,o),
(910,311,cs),
(910,513,l),
(880,514,l),
(880,311,ls),
(880,109,o),
(708,7,o),
(500,7,cs),
(208,7,o),
(80,222,o),
(80,462,cs),
(80,578,ls),
(80,846,o),
(239,1037,o),
(518,1037,cs),
(698,1037,o),
(865,963,o),
(875,816,c),
(905,820,l),
(895,981,o),
(710,1064,o),
(518,1064,cs),
(221,1064,o),
(50,865,o),
(50,582,cs),
(50,462,ls),
(50,208,o),
(191,-20,o),
(500,-20,cs)
);
}
);
width = 1000;
}
);
},
{
glyphname = H.w;
lastChange = "2020-04-22 01:31:42 +0000";
layers = (
{
layerId = "7B6A6B4E-EFCA-423F-B1F3-F70C1AFA501E";
shapes = (
{
closed = 1;
nodes = (
(100,433,l),
(900,433,l),
(900,568,l),
(100,568,l)
);
},
{
closed = 1;
nodes = (
(100,0,l),
(240,0,l),
(240,1044,l),
(100,1044,l)
);
},
{
closed = 1;
nodes = (
(760,0,l),
(900,0,l),
(900,1044,l),
(760,1044,l)
);
}
);
width = 1000;
},
{
layerId = "75A0A031-BEAD-45F4-8089-5B3FA8FFE7DC";
shapes = (
{
closed = 1;
nodes = (
(100,487,l),
(900,487,l),
(900,514,l),
(100,514,l)
);
},
{
closed = 1;
nodes = (
(100,0,l),
(130,0,l),
(130,1044,l),
(100,1044,l)
);
},
{
closed = 1;
nodes = (
(870,0,l),
(900,0,l),
(900,1044,l),
(870,1044,l)
);
}
);
width = 1000;
}
);
},
{
glyphname = M.w;
lastChange = "2020-04-20 04:03:35 +0000";
layers = (
{
layerId = "7B6A6B4E-EFCA-423F-B1F3-F70C1AFA501E";
shapes = (
{
closed = 1;
nodes = (
(152,0,l),
(179,872,ls),
(180,911,o),
(205,912,o),
(221,874,cs),
(429,391,ls),
(466,306,o),
(518,311,o),
(553,384,cs),
(787,874,ls),
(804,910,o),
(832,913,o),
(833,872,cs),
(847,0,l),
(990,0,l),
(964,938,ls),
(959,1128,o),
(743,1128,o),
(667,955,cs),
(509,593,ls),
(498,567,o),
(497,569,o),
(487,593,cs),
(337,952,ls),
(261,1134,o),
(41,1121,o),
(36,938,cs),
(10,0,l)
);
}
);
width = 1000;
},
{
layerId = "75A0A031-BEAD-45F4-8089-5B3FA8FFE7DC";
shapes = (
{
closed = 1;
nodes = (
(30,0,l),
(56,932,ls),
(60,1090,o),
(206,1076,o),
(255,926,cs),
(419,421,ls),
(448,332,o),
(535,336,o),
(563,414,cs),
(745,929,ls),
(793,1066,o),
(936,1100,o),
(941,932,cs),
(967,0,l),
(1000,0,l),
(974,938,ls),
(969,1128,o),
(780,1120,o),
(717,939,cs),
(533,414,ls),
(520,378,o),
(465,372,o),
(449,421,cs),
(284,933,ls),
(223,1122,o),
(31,1121,o),
(26,938,cs),
(0,0,l)
);
}
);
width = 1000;
}
);
},
{
glyphname = N.w;
lastChange = "2020-04-20 16:04:22 +0000";
layers = (
{
layerId = "7B6A6B4E-EFCA-423F-B1F3-F70C1AFA501E";
shapes = (
{
closed = 1;
nodes = (
(724,53,ls),
(795,-55,o),
(910,-28,o),
(910,50,cs),
(910,1044,l),
(780,1044,l),
(780,262,ls),
(780,247,o),
(760,253,o),
(754,262,cs),
(276,991,ls),
(205,1099,o),
(90,1072,o),
(90,994,cs),
(90,0,l),
(220,0,l),
(220,782,ls),
(220,797,o),
(240,791,o),
(246,782,cs)
);
}
);
width = 1000;
},
{
layerId = "75A0A031-BEAD-45F4-8089-5B3FA8FFE7DC";
shapes = (
{
closed = 1;
nodes = (
(724,53,ls),
(783,-62,o),
(910,-28,o),
(910,66,cs),
(910,1044,l),
(880,1044,l),
(880,66,ls),
(880,-4,o),
(792,-19,o),
(750,63,cs),
(276,991,ls),
(216,1108,o),
(90,1072,o),
(90,983,cs),
(90,0,l),
(120,0,l),
(120,983,ls),
(120,1049,o),
(213,1055,o),
(246,991,cs)
);
}
);
width = 1000;
}
);
},
{
glyphname = O.w;
lastChange = "2020-04-20 16:05:14 +0000";
layers = (
{
layerId = "7B6A6B4E-EFCA-423F-B1F3-F70C1AFA501E";
shapes = (
{
closed = 1;
nodes = (
(211,1074,o),
(20,913,o),
(20,590,cs),
(20,470,ls),
(20,176,o),
(211,-20,o),
(500,-20,cs),
(799,-20,o),
(980,176,o),
(980,470,cs),
(980,590,ls),
(980,913,o),
(799,1074,o),
(500,1074,cs)
);
},
{
closed = 1;
nodes = (
(684,939,o),
(840,808,o),
(840,588,cs),
(840,472,ls),
(840,252,o),
(684,115,o),
(500,115,cs),
(316,115,o),
(160,252,o),
(160,472,cs),
(160,588,ls),
(160,808,o),
(316,939,o),
(500,939,cs)
);
}
);
width = 1000;
},
{
layerId = "75A0A031-BEAD-45F4-8089-5B3FA8FFE7DC";
shapes = (
{
closed = 1;
nodes = (
(221,1074,o),
(50,870,o),
(50,587,cs),
(50,467,ls),
(50,213,o),
(221,-20,o),
(500,-20,cs),
(789,-20,o),
(950,213,o),
(950,467,cs),
(950,587,ls),
(950,870,o),
(789,1074,o),
(500,1074,cs)
);
},
{
closed = 1;
nodes = (
(764,1047,o),
(920,855,o),
(920,585,cs),
(920,469,ls),
(920,229,o),
(764,7,o),
(500,7,cs),
(236,7,o),
(80,229,o),
(80,469,cs),
(80,585,ls),
(80,855,o),
(236,1047,o),
(500,1047,cs)
);
}
);
width = 1000;
}
);
},
{
glyphname = Q.w;
lastChange = "2020-04-20 16:05:43 +0000";
layers = (
{
layerId = "7B6A6B4E-EFCA-423F-B1F3-F70C1AFA501E";
shapes = (
{
closed = 1;
nodes = (
(903,-229,l),
(1006,-128,l),
(706,172,l),
(603,71,l)
);
},
{
ref = O.w;
}
);
width = 1000;
},
{
layerId = "75A0A031-BEAD-45F4-8089-5B3FA8FFE7DC";
shapes = (
{
closed = 1;
nodes = (
(923,-209,l),
(946,-188,l),
(706,52,l),
(683,31,l)
);
},
{
ref = O.w;
}
);
width = 1000;
}
);
},
{
glyphname = W.w;
lastChange = "2020-04-20 03:50:45 +0000";
layers = (
{
layerId = "7B6A6B4E-EFCA-423F-B1F3-F70C1AFA501E";
shapes = (
{
closed = 1;
nodes = (
(866,1087,l),
(779,155,ls),
(774,106,o),
(715,106,o),
(709,153,cs),
(638,666,ls),
(616,827,o),
(391,827,o),
(369,666,cs),
(299,153,ls),
(293,106,o),
(234,106,o),
(229,155,cs),
(135,1087,l),
(0,1087,l),
(105,99,ls),
(122,-59,o),
(390,-76,o),
(414,112,cs),
(479,614,ls),
(483,646,o),
(517,644,o),
(521,614,cs),
(586,115,ls),
(611,-81,o),
(880,-52,o),
(895,89,cs),
(1000,1087,l)
);
}
);
width = 1000;
},
{
layerId = "75A0A031-BEAD-45F4-8089-5B3FA8FFE7DC";
shapes = (
{
closed = 1;
nodes = (
(968,1044,l),
(885,99,ls),
(873,-34,o),
(695,-42,o),
(666,125,cs),
(571,666,ls),
(555,756,o),
(445,757,o),
(429,666,cs),
(334,122,ls),
(308,-30,o),
(128,-32,o),
(115,109,cs),
(32,1044,l),
(0,1044,l),
(85,99,ls),
(99,-59,o),
(332,-74,o),
(364,112,cs),
(459,666,ls),
(468,718,o),
(532,716,o),
(541,666,cs),
(636,115,ls),
(670,-80,o),
(902,-62,o),
(915,89,cs),
(1000,1044,l)
);
}
);
width = 1000;
}
);
},
{
glyphname = a;
lastChange = "2020-04-20 15:22:42 +0000";
layers = (
{
anchors = (
{
name = bottom;
pos = (450,0);
},
{
name = ogonek;
pos = (810,10);
},
{
name = top;
pos = (500,860);
}
);
background = {
shapes = (
{
closed = 1;
nodes = (
(210,704,l),
(322,736,o),
(426,746,o),
(514,746,cs),
(662,746,o),
(700,713,o),
(700,603,cs),
(700,0,l),
(840,0,l),
(840,620,ls),
(840,795,o),
(770,881,o),
(516,881,cs),
(424,881,o),
(319,871,o),
(210,852,c)
);
},
{
closed = 1;
nodes = (
(533,-20,o),
(668,38,o),
(700,124,c),
(700,252,l),
(645,166,o),
(528,115,o),
(407,115,cs),
(294,115,o),
(290,158,o),
(290,193,cs),
(290,226,ls),
(290,255,o),
(297,265,o),
(385,303,cs),
(739,456,l),
(739,591,l),
(382,450,ls),
(186,373,o),
(150,334,o),
(150,256,cs),
(150,152,ls),
(150,27,o),
(244,-20,o),
(380,-20,cs)
);
}
);
};
layerId = "7B6A6B4E-EFCA-423F-B1F3-F70C1AFA501E";
shapes = (
{
closed = 1;
nodes = (
(205,686,l),
(488,806,o),
(700,776,o),
(700,559,cs),
(700,0,l),
(840,0,l),
(840,567,ls),
(840,895,o),
(541,961,o),
(145,821,c)
);
},
{
closed = 1;
nodes = (
(493,-20,o),
(668,38,o),
(700,124,c),
(700,252,l),
(645,166,o),
(488,115,o),
(361,115,cs),
(244,115,o),
(240,158,o),
(240,193,cs),
(240,205,ls),
(240,234,o),
(248,244,o),
(345,282,cs),
(739,435,l),
(739,572,l),
(293,401,ls),
(139,342,o),
(100,313,o),
(100,235,cs),
(100,152,ls),
(100,27,o),
(194,-20,o),
(335,-20,cs)
);
}
);
width = 1000;
},
{
anchors = (
{
name = bottom;
pos = (450,0);
},
{
name = ogonek;
pos = (810,10);
},
{
name = top;
pos = (500,864);
}
);
background = {
shapes = (
{
closed = 1;
nodes = (
(210,704,l),
(322,736,o),
(426,746,o),
(514,746,cs),
(662,746,o),
(700,713,o),
(700,603,cs),
(700,0,l),
(840,0,l),
(840,620,ls),
(840,795,o),
(770,881,o),
(516,881,cs),
(424,881,o),
(319,871,o),
(210,852,c)
);
},
{
closed = 1;
nodes = (
(533,-20,o),
(668,38,o),
(700,124,c),
(700,252,l),
(645,166,o),
(528,115,o),
(407,115,cs),
(294,115,o),
(290,158,o),
(290,193,cs),
(290,226,ls),
(290,255,o),
(297,265,o),
(385,303,cs),
(739,456,l),
(739,591,l),
(382,450,ls),
(186,373,o),
(150,334,o),
(150,256,cs),
(150,152,ls),
(150,27,o),
(244,-20,o),
(380,-20,cs)
);
}
);
};
layerId = "75A0A031-BEAD-45F4-8089-5B3FA8FFE7DC";
shapes = (
{
closed = 1;
nodes = (
(155,796,l),
(536,932,o),
(810,876,o),
(810,567,cs),
(810,0,l),
(840,0,l),
(840,567,ls),
(840,895,o),
(541,961,o),
(145,821,c)
);
},
{
closed = 1;
nodes = (
(493,-20,o),
(678,40,o),
(810,96,c),
(810,122,l),
(671,64,o),
(492,7,o),
(335,7,cs),
(210,7,o),
(130,44,o),
(130,123,cs),
(130,175,ls),
(130,204,o),
(154,223,o),
(191,234,cs),
(840,435,l),
(840,462,l),
(184,257,ls),
(136,242,o),
(100,223,o),
(100,175,cs),
(100,122,ls),
(100,27,o),
(194,-20,o),
(335,-20,cs)
);
}
);
width = 1000;
}
);
unicode = 97;
},
{
glyphname = ae;
lastChange = "2020-04-22 03:25:29 +0000";
layers = (
{
layerId = "7B6A6B4E-EFCA-423F-B1F3-F70C1AFA501E";
shapes = (
{
closed = 1;
nodes = (
(162,0,l),
(386,691,ls),
(393,712,o),
(410,729,o),
(428,729,cs),
(528,729,l),
(529,864,l),
(421,864,ls),
(347,864,o),
(288,831,o),
(268,771,cs),
(10,0,l)
);
},
{
closed = 1;
nodes = (
(980,0,l),
(980,135,l),
(650,135,l),
(650,344,l),
(980,344,l),
(980,474,l),
(650,474,l),
(650,729,l),
(980,729,l),
(980,864,l),
(510,864,l),
(510,0,l)
);
},
{
closed = 1;
nodes = (
(180,344,l),
(530,344,l),
(530,474,l),
(180,474,l)
);
}
);
width = 1000;
},
{
layerId = "75A0A031-BEAD-45F4-8089-5B3FA8FFE7DC";
shapes = (
{
closed = 1;
nodes = (
(52,0,l),
(356,765,ls),
(378,821,o),
(420,837,o),
(478,837,cs),
(548,837,l),
(549,864,l),
(479,864,ls),
(405,864,o),
(350,831,o),
(326,771,cs),
(20,0,l)
);
},
{
closed = 1;
nodes = (
(980,0,l),
(980,27,l),
(560,27,l),
(560,371,l),
(940,371,l),
(940,398,l),
(560,398,l),
(560,837,l),
(940,837,l),
(940,864,l),
(530,864,l),
(530,0,l)
);
},
{
closed = 1;
nodes = (
(180,371,l),
(550,371,l),
(550,398,l),
(180,398,l)
);
}
);
width = 1000;
}
);
unicode = 230;
},
{
glyphname = b;
lastChange = "2020-05-01 22:09:52 +0000";
layers = (
{
background = {
shapes = (
{
closed = 1;
nodes = (
(910,712,o),
(770,874,o),
(542,874,cs),
(435,874,o),
(353,838,o),
(300,782,c),
(300,650,l),
(347,707,o),
(417,739,o),
(500,739,cs),
(652,739,o),
(768,632,o),
(768,460,cs),
(768,282,o),
(645,115,o),
(300,115,c),
(300,1152,l),
(160,1152,l),
(160,-20,l),
(300,-20,ls),
(751,-20,o),
(910,200,o),
(910,462,cs)
);
}
);
};
hints = (
{
origin = (1,6);
target = (0,3);
type = Stem;
}
);
layerId = "7B6A6B4E-EFCA-423F-B1F3-F70C1AFA501E";
shapes = (
{
closed = 1;
nodes = (
(513,-10,ls),
(764,-10,o),
(910,220,o),
(910,462,cs),
(910,712,o),
(770,874,o),
(552,874,cs),
(435,874,o),
(329,828,o),
(280,740,c),
(280,1152,l),
(140,1152,l),
(140,-10,l)
);
},
{
closed = 1;
nodes = (
(280,432,ls),
(280,666,o),
(436,739,o),
(542,739,cs),
(671,739,o),
(768,632,o),
(768,460,cs),
(768,286,o),
(669,125,o),
(513,125,cs),
(280,125,l)
);
}
);
width = 1000;
},
{
background = {
shapes = (
{
closed = 1;
nodes = (
(910,712,o),
(770,874,o),
(542,874,cs),
(435,874,o),
(353,838,o),
(300,782,c),
(300,650,l),
(347,707,o),
(417,739,o),
(500,739,cs),
(652,739,o),
(768,632,o),
(768,460,cs),
(768,282,o),
(645,115,o),
(300,115,c),
(300,1152,l),
(160,1152,l),
(160,-20,l),
(300,-20,ls),
(751,-20,o),
(910,200,o),
(910,462,cs)
);
}
);
};
hints = (
{
origin = (1,6);
target = (0,3);
type = Stem;
}
);
layerId = "75A0A031-BEAD-45F4-8089-5B3FA8FFE7DC";
shapes = (
{
closed = 1;
nodes = (
(518,-10,ls),
(771,-10,o),
(910,213,o),
(910,462,cs),
(910,712,o),
(770,874,o),
(558,874,cs),
(395,874,o),
(222,776,o),
(180,590,c),
(180,1152,l),
(150,1152,l),
(150,-10,l)
);
},
{
closed = 1;
nodes = (
(180,432,ls),
(180,766,o),
(417,847,o),
(557,847,cs),
(752,847,o),
(877,694,o),
(877,460,cs),
(877,231,o),
(751,17,o),
(518,17,cs),
(180,17,l)
);
}
);
width = 1000;
}
);
unicode = 98;
},
{
glyphname = c;
lastChange = "2020-04-20 15:46:44 +0000";
layers = (
{
anchors = (
{
name = bottom;
pos = (500,0);
},
{
name = top;
pos = (590,864);
}
);
background = {
shapes = (
{
closed = 1;
nodes = (
(757,-30,o),
(930,146,o),
(930,430,cs),
(930,714,o),
(757,890,o),
(500,890,cs),
(243,890,o),
(70,714,o),
(70,430,cs),
(70,146,o),
(243,-30,o),
(500,-30,cs)
);
},
{
closed = 1;
nodes = (
(341,150,o),
(230,262,o),
(230,430,cs),
(230,598,o),
(341,710,o),
(500,710,cs),
(659,710,o),
(770,598,o),
(770,430,cs),
(770,262,o),
(659,150,o),
(500,150,cs)
);
}
);
};
layerId = "7B6A6B4E-EFCA-423F-B1F3-F70C1AFA501E";
shapes = (
{
closed = 1;
nodes = (
(880,802,l),
(806,858,o),
(692,884,o),
(589,884,cs),
(318,884,o),
(120,697,o),
(120,432,cs),
(120,166,o),
(318,-20,o),
(581,-20,cs),
(697,-20,o),
(818,16,o),
(880,73,c),
(850,196,l),
(789,156,o),
(690,116,o),
(591,116,cs),
(406,116,o),
(262,256,o),
(262,430,cs),
(262,603,o),
(408,744,o),
(593,744,cs),
(692,744,o),
(793,704,o),
(848,660,c)
);
}
);
width = 1000;
},
{
anchors = (
{
name = bottom;
pos = (540,0);
},
{
name = top;
pos = (500,900);
}
);
background = {
shapes = (
{
closed = 1;
nodes = (
(757,-30,o),
(930,146,o),
(930,430,cs),
(930,714,o),
(757,890,o),
(500,890,cs),
(243,890,o),
(70,714,o),
(70,430,cs),
(70,146,o),
(243,-30,o),
(500,-30,cs)
);
},
{
closed = 1;
nodes = (
(341,150,o),
(230,262,o),
(230,430,cs),
(230,598,o),
(341,710,o),
(500,710,cs),
(659,710,o),
(770,598,o),
(770,430,cs),
(770,262,o),
(659,150,o),
(500,150,cs)
);
}
);
};
layerId = "75A0A031-BEAD-45F4-8089-5B3FA8FFE7DC";
shapes = (
{
closed = 1;
nodes = (
(880,802,l),
(806,858,o),
(692,884,o),
(589,884,cs),
(318,884,o),
(120,697,o),
(120,432,cs),
(120,166,o),
(318,-20,o),
(581,-20,cs),
(697,-20,o),
(818,16,o),
(880,73,c),
(862,96,l),
(814,44,o),
(690,6,o),
(581,6,cs),
(344,6,o),
(153,186,o),
(153,432,cs),
(153,671,o),
(330,857,o),
(589,857,cs),
(691,857,o),
(808,828,o),
(863,784,c)
);
}
);
width = 1000;
}
);
unicode = 99;
},
{
glyphname = d;
lastChange = "2020-05-01 22:11:14 +0000";
layers = (
{
anchors = (
{
name = bottom;
pos = (500,0);
},
{
name = center;
pos = (660,1044);
},
{
name = top;
pos = (500,1280);
},
{
name = topright;
pos = (1000,1152);
}
);
background = {
shapes = (
{
closed = 1;
nodes = (
(700,1144,l),
(700,0,l),
(840,0,l),
(840,1144,l)
);
},
{
closed = 1;
nodes = (
(354,832,o),
(90,662,o),
(90,318,cs),
(90,67,o),
(234,-10,o),
(377,-10,cs),
(482,-10,o),
(588,32,o),
(690,108,c),
(700,108,l),
(700,273,l),
(629,206,o),
(492,125,o),
(380,125,cs),
(277,125,o),
(235,193,o),
(235,320,cs),
(235,574,o),
(399,699,o),
(700,759,c),
(700,894,l)
);
}
);
};
hints = (
{
origin = (0,16);
target = (1,11);
type = Stem;
},
{
horizontal = 1;
origin = (0,2);
target = (1,8);
type = Stem;
},
{
horizontal = 1;
origin = (0,13);
target = (1,2);
type = Stem;
}
);
layerId = "7B6A6B4E-EFCA-423F-B1F3-F70C1AFA501E";
shapes = (
{
closed = 1;
nodes = (
(90,162,o),
(256,-24,o),
(450,-24,cs),
(555,-24,o),
(672,29,o),
(710,152,c),
(710,0,l),
(850,0,l),
(850,1152,l),
(710,1152,l),
(710,746,l),
(677,826,o),
(592,892,o),
(471,892,cs),
(257,892,o),
(90,686,o),
(90,430,cs)
);
},
{
closed = 1;
nodes = (
(235,616,o),
(346,752,o),
(481,752,cs),
(610,752,o),
(710,629,o),
(710,447,cs),
(710,243,o),
(619,116,o),
(478,116,cs),
(338,116,o),
(235,242,o),
(235,430,cs)
);
}
);
width = 1000;
},
{
anchors = (
{
name = bottom;
pos = (500,0);
},
{
name = center;
pos = (660,1044);
},
{
name = top;
pos = (500,1280);
},
{
name = topright;
pos = (1000,1152);
}
);
background = {
shapes = (
{
closed = 1;
nodes = (
(700,1144,l),
(700,0,l),
(840,0,l),
(840,1144,l)
);
},
{
closed = 1;
nodes = (
(354,832,o),
(90,662,o),
(90,318,cs),
(90,67,o),
(234,-10,o),
(377,-10,cs),
(482,-10,o),
(588,32,o),
(690,108,c),
(700,108,l),
(700,273,l),
(629,206,o),
(492,125,o),
(380,125,cs),
(277,125,o),
(235,193,o),
(235,320,cs),
(235,574,o),
(399,699,o),
(700,759,c),
(700,894,l)
);
}
);
};
hints = (
{
origin = (0,16);
target = (1,11);
type = Stem;
},
{
horizontal = 1;
origin = (0,2);
target = (1,8);
type = Stem;
},
{
horizontal = 1;
origin = (0,13);
target = (1,2);
type = Stem;
}
);
layerId = "75A0A031-BEAD-45F4-8089-5B3FA8FFE7DC";
shapes = (
{
closed = 1;
nodes = (
(90,162,o),
(246,-24,o),
(470,-24,cs),
(638,-24,o),
(765,82,o),
(820,268,c),
(820,0,l),
(850,0,l),
(850,1152,l),
(820,1152,l),
(820,626,l),
(779,764,o),
(670,892,o),
(481,892,cs),
(247,892,o),
(90,686,o),
(90,430,cs)
);
},
{
closed = 1;
nodes = (
(123,666,o),
(266,865,o),
(481,865,cs),
(670,865,o),
(820,712,o),
(820,447,cs),
(820,183,o),
(669,3,o),
(470,3,cs),
(268,3,o),
(123,182,o),
(123,430,cs)
);
}
);
width = 1000;
}
);
unicode = 100;
},
{
glyphname = eth;
lastChange = "2020-04-20 15:56:00 +0000";
layers = (
{
background = {
shapes = (
{
closed = 1;
nodes = (
(207,35,l),
(362,0,l),
(606,0,l),
(812,40,l),
(824,412,l),
(801,705,l),
(660,768,l),
(439,768,l),
(207,727,l),
(176,382,l)
);
},
{
closed = 1;
nodes = (
(314,636,l),
(456,657,l),
(634,657,l),
(694,633,l),
(695,123,l),
(601,111,l),
(437,111,l),
(314,143,l)
);
}
);
};
layerId = "7B6A6B4E-EFCA-423F-B1F3-F70C1AFA501E";
shapes = (
{
ref = d;
},
{
pos = (160,544);
ref = strokeshortcomb;
}
);
width = 1000;
},
{
background = {
shapes = (
{
closed = 1;
nodes = (
(207,35,l),
(362,0,l),
(606,0,l),
(812,40,l),
(824,412,l),
(801,705,l),
(660,768,l),
(439,768,l),
(207,727,l),
(176,382,l)
);
},
{
closed = 1;
nodes = (
(314,636,l),
(456,657,l),
(634,657,l),
(694,633,l),
(695,123,l),
(601,111,l),
(437,111,l),
(314,143,l)
);
}
);
};
layerId = "75A0A031-BEAD-45F4-8089-5B3FA8FFE7DC";
shapes = (
{
ref = d;
},
{
pos = (160,544);
ref = strokeshortcomb;
}
);
width = 1000;
}
);
unicode = 240;
},
{
glyphname = e;
lastChange = "2020-04-18 05:03:15 +0000";
layers = (
{
anchors = (
{
name = bottom;
pos = (500,0);
},
{
name = ogonek;
pos = (827,40);
},
{
name = top;
pos = (500,900);
}
);
background = {
shapes = (
{
closed = 1;
nodes = (
(487,884,o),
(312,826,o),
(280,740,c),
(280,612,l),
(335,698,o),
(492,749,o),
(619,749,cs),
(736,749,o),
(740,706,o),
(740,671,cs),
(740,659,ls),
(740,630,o),
(732,620,o),
(635,582,cs),
(241,429,l),
(241,292,l),
(687,463,ls),
(841,522,o),
(880,551,o),
(880,629,cs),
(880,712,ls),
(880,837,o),
(786,884,o),
(645,884,cs)
);
},
{
closed = 1;
nodes = (
(880,828,l),
(816,858,o),
(722,884,o),
(623,884,cs),
(360,884,o),
(150,697,o),
(150,432,cs),
(150,166,o),
(358,-20,o),
(611,-20,cs),
(727,-20,o),
(818,16,o),
(880,63,c),
(880,199,l),
(819,159,o),
(720,118,o),
(621,118,cs),
(436,118,o),
(292,261,o),
(292,435,cs),
(292,608,o),
(438,746,o),
(623,746,cs),
(723,746,o),
(823,706,o),
(880,673,c)
);
}
);
};
hints = (
{
horizontal = 1;
origin = (0,20);
target = (0,5);
type = Stem;
},
{
origin = (0,23);
target = (0,2);
type = Stem;
},
{
origin = (0,8);
target = (0,17);
type = Stem;
},
{
horizontal = 1;
origin = (0,26);
target = (0,33);
type = Stem;
}
);
layerId = "7B6A6B4E-EFCA-423F-B1F3-F70C1AFA501E";
shapes = (
{
closed = 1;
nodes = (
(386,116,o),
(240,262,o),
(240,432,cs),
(240,606,o),
(390,746,o),
(629,746,cs),
(694,746,o),
(760,736,o),
(760,677,cs),
(760,628,o),
(715,607,o),
(691,598,cs),
(171,396,l),
(171,251,l),
(707,458,ls),
(824,503,o),
(900,534,o),
(900,665,cs),
(900,871,o),
(711,884,o),
(626,884,cs),
(334,884,o),
(100,727,o),
(100,429,cs),
(100,152,o),
(302,-20,o),
(570,-20,cs),
(699,-20,o),
(847,19,o),
(916,100,c),
(876,226,l),
(815,166,o),
(682,116,o),
(570,116,cs)
);
}
);
width = 1000;
},
{
anchors = (
{
name = bottom;
pos = (500,0);
},
{
name = ogonek;
pos = (827,40);
},
{
name = top;
pos = (500,900);
}
);
background = {
shapes = (
{
closed = 1;
nodes = (
(487,884,o),
(312,826,o),
(280,740,c),
(280,612,l),
(335,698,o),
(492,749,o),
(619,749,cs),
(736,749,o),
(740,706,o),
(740,671,cs),
(740,659,ls),
(740,630,o),
(732,620,o),
(635,582,cs),
(241,429,l),
(241,292,l),
(687,463,ls),
(841,522,o),
(880,551,o),
(880,629,cs),
(880,712,ls),
(880,837,o),
(786,884,o),
(645,884,cs)
);
},
{
closed = 1;
nodes = (
(880,828,l),
(816,858,o),
(722,884,o),
(623,884,cs),
(360,884,o),
(150,697,o),
(150,432,cs),
(150,166,o),
(358,-20,o),
(611,-20,cs),
(727,-20,o),
(818,16,o),
(880,63,c),
(880,199,l),
(819,159,o),
(720,118,o),
(621,118,cs),
(436,118,o),
(292,261,o),
(292,435,cs),
(292,608,o),
(438,746,o),
(623,746,cs),
(723,746,o),
(823,706,o),
(880,673,c)
);
}
);
};
hints = (
{
horizontal = 1;
origin = (0,20);
target = (0,5);
type = Stem;
},
{
origin = (0,23);
target = (0,2);
type = Stem;
},
{
origin = (0,8);
target = (0,17);
type = Stem;
},
{
horizontal = 1;
origin = (0,26);
target = (0,33);
type = Stem;
}
);
layerId = "75A0A031-BEAD-45F4-8089-5B3FA8FFE7DC";
shapes = (
{
closed = 1;
nodes = (
(316,10,o),
(132,170,o),
(132,432,cs),
(132,706,o),
(357,857,o),
(626,857,cs),
(701,857,o),
(867,845,o),
(867,720,cs),
(867,671,o),
(843,645,o),
(691,597,cs),
(127,420,l),
(127,390,l),
(707,572,ls),
(867,622,o),
(900,656,o),
(900,720,cs),
(900,871,o),
(711,884,o),
(626,884,cs),
(334,884,o),
(100,727,o),
(100,429,cs),
(100,152,o),
(302,-20,o),
(570,-20,cs),
(699,-20,o),
(847,19,o),
(916,100,c),
(897,124,l),
(832,44,o),
(688,10,o),
(570,10,cs)
);
}
);
width = 1000;
}
);
unicode = 101;
},
{
glyphname = f;
lastChange = "2020-04-20 06:43:46 +0000";
layers = (
{
background = {
shapes = (
{
closed = 1;
nodes = (
(860,768,l),
(120,768,l),
(120,670,l),
(442,650,l),
(860,670,l)
);
},
{
closed = 1;
nodes = (
(857,0,l),
(857,108,l),
(420,120,l),
(163,102,l),
(163,0,l)
);
},
{
closed = 1;
nodes = (
(466,1034,l),
(762,1034,l),
(900,1005,l),
(918,1128,l),
(813,1152,l),
(466,1152,l)
);
},
{
closed = 1;
nodes = (
(100,726,l),
(878,726,l),
(890,844,l),
(112,844,l)
);
},
{
closed = 1;
nodes = (
(404,1152,l),
(404,0,l),
(538,0,l),
(538,1152,l)
);
}
);
};
layerId = "7B6A6B4E-EFCA-423F-B1F3-F70C1AFA501E";
shapes = (
{
closed = 1;
nodes = (
(100,729,l),
(900,729,l),
(900,864,l),
(100,864,l)
);
},
{
closed = 1;
nodes = (
(515,0,l),
(515,922,ls),
(515,1004,o),
(660,1007,o),
(900,1007,c),
(900,1152,l),
(617,1149,o),
(375,1144,o),
(375,922,cs),
(375,0,l)
);
}
);
width = 1000;
},
{
background = {
shapes = (
{
closed = 1;
nodes = (
(860,768,l),
(120,768,l),
(120,670,l),
(442,650,l),
(860,670,l)
);
},
{
closed = 1;
nodes = (
(857,0,l),
(857,108,l),
(420,120,l),
(163,102,l),
(163,0,l)
);
},
{
closed = 1;
nodes = (
(466,1034,l),
(762,1034,l),
(900,1005,l),
(918,1128,l),
(813,1152,l),
(466,1152,l)
);
},
{
closed = 1;
nodes = (
(100,726,l),
(878,726,l),
(890,844,l),
(112,844,l)
);
},
{
closed = 1;
nodes = (
(404,1152,l),
(404,0,l),
(538,0,l),
(538,1152,l)
);
}
);
};
layerId = "75A0A031-BEAD-45F4-8089-5B3FA8FFE7DC";
shapes = (
{
closed = 1;
nodes = (
(100,834,l),
(900,834,l),
(900,864,l),
(100,864,l)
);
},
{
closed = 1;
nodes = (
(405,0,l),
(405,912,ls),
(405,1114,o),
(630,1122,o),
(900,1122,c),
(900,1152,l),
(617,1152,o),
(375,1144,o),
(375,912,cs),
(375,0,l)
);
}
);
width = 1000;
}
);
unicode = 102;
},
{
glyphname = g;
lastChange = "2020-04-18 04:34:05 +0000";
layers = (
{
anchors = (
{
name = bottom;
pos = (500,-448);
},
{
name = top;
pos = (500,900);
}
);
background = {
shapes = (
{
closed = 1;
nodes = (
(241,-102,l),
(413,-102,l),
(880,949,l),
(713,949,l)
);
}
);
};
layerId = "7B6A6B4E-EFCA-423F-B1F3-F70C1AFA501E";
shapes = (
{
closed = 1;
nodes = (
(890,-288,l),
(930,-143,l),
(362,-143,ls),
(322,-143,o),
(335,-116,o),
(343,-98,cs),
(480,197,l),
(326,197,l),
(174,-123,ls),
(153,-168,o),
(123,-288,o),
(334,-288,cs)
);
},
{
closed = 1;
nodes = (
(567,751,l),
(725,751,l),
(851,1014,l),
(698,1014,l)
);
},
{
closed = 1;
nodes = (
(748,140,o),
(885,284,o),
(885,515,cs),
(885,747,o),
(748,890,o),
(500,890,cs),
(252,890,o),
(115,747,o),
(115,515,cs),
(115,284,o),
(252,140,o),
(500,140,cs)
);
},
{
closed = 1;
nodes = (
(350,275,o),
(260,371,o),
(260,515,cs),
(260,659,o),
(350,755,o),
(500,755,cs),
(650,755,o),
(740,659,o),
(740,515,cs),
(740,371,o),
(651,275,o),
(500,275,cs)
);
}
);
width = 1000;
},
{
anchors = (
{
name = bottom;
pos = (500,-448);
},
{
name = top;
pos = (500,900);
}
);
background = {
shapes = (
{
closed = 1;
nodes = (
(241,-102,l),
(413,-102,l),
(880,949,l),
(713,949,l)
);
}
);
};
layerId = "75A0A031-BEAD-45F4-8089-5B3FA8FFE7DC";
shapes = (
{
closed = 1;
nodes = (
(925,-277,l),
(925,-247,l),
(329,-247,ls),
(153,-247,o),
(184,-157,o),
(203,-116,cs),
(339,178,l),
(307,178,l),
(169,-112,ls),
(148,-157,o),
(118,-277,o),
(329,-277,cs)
);
},
{
closed = 1;
nodes = (
(710,819,l),
(748,819,l),
(851,1034,l),
(818,1034,l)
);
},
{
closed = 1;
nodes = (
(748,140,o),
(885,284,o),
(885,515,cs),
(885,747,o),
(748,890,o),
(500,890,cs),
(252,890,o),
(115,747,o),
(115,515,cs),
(115,284,o),
(252,140,o),
(500,140,cs)
);
},
{
closed = 1;
nodes = (
(280,167,o),
(148,307,o),
(148,515,cs),
(148,723,o),
(280,863,o),
(500,863,cs),
(720,863,o),
(852,723,o),
(852,515,cs),
(852,307,o),
(721,167,o),
(500,167,cs)
);
}
);
width = 1000;
}
);
unicode = 103;
},
{
glyphname = h;
lastChange = "2020-04-18 04:31:36 +0000";
layers = (
{
anchors = (
{
name = bottom;
pos = (500,0);
},
{
name = center;
pos = (340,1044);
},
{
name = top;
pos = (500,1280);
}
);
background = {
shapes = (
{
closed = 1;
nodes = (
(160,1152,l),
(160,0,l),
(300,0,l),
(300,1152,l)
);
},
{
closed = 1;
nodes = (
(300,650,l),
(398,726,o),
(481,750,o),
(552,750,cs),
(627,750,o),
(700,723,o),
(700,573,cs),
(700,0,l),
(840,0,l),
(840,641,ls),
(840,806,o),
(762,880,o),
(591,880,cs),
(486,880,o),
(391,850,o),
(300,772,c)
);
}
);
};
layerId = "7B6A6B4E-EFCA-423F-B1F3-F70C1AFA501E";
shapes = (
{
closed = 1;
nodes = (
(140,1152,l),
(140,0,l),
(280,0,l),
(280,1152,l)
);
},
{
closed = 1;
nodes = (
(280,650,l),
(378,726,o),
(471,750,o),
(552,750,cs),
(637,750,o),
(720,723,o),
(720,573,cs),
(720,0,l),
(860,0,l),
(860,641,ls),
(860,806,o),
(772,880,o),
(591,880,cs),
(476,880,o),
(371,850,o),
(280,772,c)
);
}
);
width = 1000;
},
{
anchors = (
{
name = bottom;
pos = (500,0);
},
{
name = center;
pos = (340,1044);
},
{
name = top;
pos = (500,1280);
}
);
background = {
shapes = (
{
closed = 1;
nodes = (
(160,1152,l),
(160,0,l),
(300,0,l),
(300,1152,l)
);
},
{
closed = 1;
nodes = (
(300,650,l),
(398,726,o),
(481,750,o),
(552,750,cs),
(627,750,o),
(700,723,o),
(700,573,cs),
(700,0,l),
(840,0,l),
(840,641,ls),
(840,806,o),
(762,880,o),
(591,880,cs),
(486,880,o),
(391,850,o),
(300,772,c)
);
}
);
};
layerId = "75A0A031-BEAD-45F4-8089-5B3FA8FFE7DC";
shapes = (
{
closed = 1;
nodes = (
(150,1152,l),
(150,0,l),
(180,0,l),
(180,1152,l)
);
},
{
closed = 1;
nodes = (
(180,737,l),
(296,824,o),
(481,853,o),
(592,853,cs),
(753,853,o),
(820,791,o),
(820,641,cs),
(820,0,l),
(850,0,l),
(850,641,ls),
(850,806,o),
(772,880,o),
(591,880,cs),
(476,880,o),
(291,850,o),
(180,772,c)
);
}
);
width = 1000;
}
);
unicode = 104;
},
{
glyphname = i;
lastChange = "2020-04-18 04:01:42 +0000";
layers = (
{
background = {
shapes = (
{
closed = 1;
nodes = (
(141,661,l),
(482,645,l),
(457,114,l),
(110,98,l),
(110,0,l),
(910,0,l),
(910,98,l),
(595,114,l),
(614,602,l),
(635,768,l),
(141,768,l)
);
},
{
closed = 1;
nodes = (
(397,981,l),
(610,981,l),
(613,1202,l),
(397,1198,l)
);
}
);
};
layerId = "7B6A6B4E-EFCA-423F-B1F3-F70C1AFA501E";
shapes = (
{
ref = idotless;
},
{
pos = (15,0);
ref = dotaccentcomb;
}
);
width = 1000;
},
{
background = {
shapes = (
{
closed = 1;
nodes = (
(141,661,l),
(482,645,l),
(457,114,l),
(110,98,l),
(110,0,l),
(910,0,l),
(910,98,l),
(595,114,l),
(614,602,l),
(635,768,l),
(141,768,l)
);
},
{
closed = 1;
nodes = (
(397,981,l),
(610,981,l),
(613,1202,l),
(397,1198,l)
);
}
);
};
layerId = "75A0A031-BEAD-45F4-8089-5B3FA8FFE7DC";
shapes = (
{
ref = idotless;
},
{
pos = (15,0);
ref = dotaccentcomb;
}
);
width = 1000;
}
);
unicode = 105;
},
{
glyphname = idotless;
lastChange = "2020-04-18 05:09:41 +0000";
layers = (
{
anchors = (
{
name = bottom;
pos = (553,0);
},
{
name = ogonek;
pos = (946,10);
},
{
name = top;
pos = (515,864);
}
);
background = {
shapes = (
{
closed = 1;
nodes = (
(141,756,l),
(482,744,l),
(457,120,l),
(110,108,l),
(110,0,l),
(910,0,l),
(910,108,l),
(595,120,l),
(614,698,l),
(635,864,l),
(141,864,l)
);
},
{
closed = 1;
nodes = (
(141,746,l),
(470,746,l),
(470,118,l),
(110,118,l),
(110,0,l),
(950,0,l),
(950,118,l),
(604,118,l),
(604,698,l),
(624,864,l),
(141,864,l)
);
}
);
};
layerId = "7B6A6B4E-EFCA-423F-B1F3-F70C1AFA501E";
shapes = (
{
closed = 1;
nodes = (
(615,864,l),
(100,864,l),
(100,729,l),
(615,729,l)
);
},
{
closed = 1;
nodes = (
(475,81,o),
(607,0,o),
(850,-20,c),
(880,115,l),
(711,131,o),
(615,173,o),
(615,269,cs),
(615,784,l),
(475,784,l),
(475,273,ls)
);
}
);
width = 1000;
},
{
anchors = (
{
name = bottom;
pos = (553,0);
},
{
name = ogonek;
pos = (946,10);
},
{
name = top;
pos = (515,864);
}
);
background = {
shapes = (
{
closed = 1;
nodes = (
(141,756,l),
(482,744,l),
(457,120,l),
(110,108,l),
(110,0,l),
(910,0,l),
(910,108,l),
(595,120,l),
(614,698,l),
(635,864,l),
(141,864,l)
);
},
{
closed = 1;
nodes = (
(141,746,l),
(470,746,l),
(470,118,l),
(110,118,l),
(110,0,l),
(950,0,l),
(950,118,l),
(604,118,l),
(604,698,l),
(624,864,l),
(141,864,l)
);
}
);
};
layerId = "75A0A031-BEAD-45F4-8089-5B3FA8FFE7DC";
shapes = (
{
closed = 1;
nodes = (
(615,864,l),
(100,864,l),
(100,837,l),
(615,837,l)
);
},
{
closed = 1;
nodes = (
(585,81,o),
(607,0,o),
(850,-20,c),
(860,8,l),
(624,29,o),
(615,103,o),
(615,269,cs),
(615,854,l),
(585,854,l),
(585,273,ls)
);
}
);
width = 1000;
}
);
unicode = 305;
},
{
glyphname = j;
lastChange = "2020-04-18 04:01:42 +0000";
layers = (
{
background = {
shapes = (
{
closed = 1;
nodes = (
(475,979,l),
(658,979,l),
(661,1168,l),
(475,1165,l)
);
}
);
};
layerId = "7B6A6B4E-EFCA-423F-B1F3-F70C1AFA501E";
shapes = (
{
ref = jdotless;
},
{
pos = (66,36);
ref = dotaccentcomb;
}
);
width = 1000;
},
{
background = {
shapes = (
{
closed = 1;
nodes = (
(475,979,l),
(658,979,l),
(661,1168,l),
(475,1165,l)
);
}
);
};
layerId = "75A0A031-BEAD-45F4-8089-5B3FA8FFE7DC";
shapes = (
{
ref = jdotless;
},
{
pos = (66,36);
ref = dotaccentcomb;
}
);
width = 1000;
}
);
unicode = 106;
},
{
glyphname = jdotless;
lastChange = "2020-04-21 00:52:11 +0000";
layers = (
{
anchors = (
{
name = bottom;
pos = (480,-448);
},
{
name = top;
pos = (566,900);
}
);
layerId = "7B6A6B4E-EFCA-423F-B1F3-F70C1AFA501E";
shapes = (
{
closed = 1;
nodes = (
(580,864,l),
(580,201,ls),
(580,39,o),
(490,-10,o),
(125,-105,c),
(165,-250,l),
(596,-133,o),
(720,-98,o),
(720,201,cs),
(720,864,l)
);
},
{
closed = 1;
nodes = (
(671,864,l),
(100,864,l),
(100,729,l),
(671,729,l)
);
}
);
width = 1000;
},
{
anchors = (
{
name = bottom;
pos = (480,-448);
},
{
name = top;
pos = (566,900);
}
);
layerId = "75A0A031-BEAD-45F4-8089-5B3FA8FFE7DC";
shapes = (
{
closed = 1;
nodes = (
(690,864,l),
(690,201,ls),
(690,-71,o),
(568,-111,o),
(158,-219,c),
(165,-250,l),
(596,-133,o),
(720,-98,o),
(720,201,cs),
(720,864,l)
);
},
{
closed = 1;
nodes = (
(711,864,l),
(100,864,l),
(100,837,l),
(711,837,l)
);
}
);
width = 1000;
}
);
unicode = 567;
},
{
glyphname = k;
lastChange = "2020-05-01 23:28:09 +0000";
layers = (
{
anchors = (
{
name = bottom;
pos = (468,0);
},
{
name = top;
pos = (468,1280);
}
);
layerId = "7B6A6B4E-EFCA-423F-B1F3-F70C1AFA501E";
shapes = (
{
closed = 1;
nodes = (
(290,401,l),
(945,769,l),
(883,892,l),
(290,559,l)
);
},
{
closed = 1;
nodes = (
(304,540,l),
(764,0,l),
(950,0,l),
(490,541,l)
);
},
{
closed = 1;
nodes = (
(150,1152,l),
(150,0,l),
(290,0,l),
(290,1152,l)
);
}
);
width = 1000;
},
{
anchors = (
{
name = bottom;
pos = (468,0);
},
{
name = top;
pos = (468,1280);
}
);
layerId = "75A0A031-BEAD-45F4-8089-5B3FA8FFE7DC";
shapes = (
{
closed = 1;
nodes = (
(180,526,l),
(897,867,l),
(883,892,l),
(180,559,l)
);
},
{
closed = 1;
nodes = (
(262,597,l),
(905,0,l),
(950,0,l),
(306,597,l)
);
},
{
closed = 1;
nodes = (
(150,1152,l),
(150,0,l),
(180,0,l),
(180,1152,l)
);
}
);
width = 1000;
}
);
unicode = 107;
},
{
glyphname = l;
lastChange = "2020-05-01 22:08:07 +0000";
layers = (
{
anchors = (
{
name = bottom;
pos = (500,0);
},
{
name = center;
pos = (500,480);
},
{
name = top;
pos = (500,1180);
},
{
name = topright;
pos = (870,1152);
}
);
background = {
shapes = (
{
closed = 1;
nodes = (
(560,1152,l),
(0,1152,l),
(0,1007,l),
(420,1007,l),
(420,245,ls),
(420,77,o),
(479,-20,o),
(730,-20,cs),
(835,-20,o),
(912,-3,o),
(960,10,c),
(960,155,l),
(912,142,o),
(840,125,o),
(745,125,cs),
(580,125,o),
(560,173,o),
(560,239,cs)
);
}
);
};
hints = (
{
horizontal = 1;
origin = (0,2);
target = (0,1);
type = Stem;
},
{
horizontal = 1;
place = (-30, 135);
place = (-30, 135);
type = Stem;
}
);
layerId = "7B6A6B4E-EFCA-423F-B1F3-F70C1AFA501E";
shapes = (
{
closed = 1;
nodes = (
(560,1152,l),
(0,1152,l),
(0,1017,l),
(420,1017,l),
(420,373,ls),
(420,161,o),
(612,0,o),
(895,-20,c),
(925,115,l),
(716,131,o),
(560,253,o),
(560,369,cs)
);
}
);
width = 1000;
},
{
anchors = (
{
name = bottom;
pos = (500,0);
},
{
name = center;
pos = (500,480);
},
{
name = top;
pos = (500,1180);
},
{
name = topright;
pos = (870,1152);
}
);
background = {
shapes = (
{
closed = 1;
nodes = (
(560,1152,l),
(0,1152,l),
(0,1007,l),
(420,1007,l),
(420,245,ls),
(420,77,o),
(479,-20,o),
(730,-20,cs),
(835,-20,o),
(912,-3,o),
(960,10,c),
(960,155,l),
(912,142,o),
(840,125,o),
(745,125,cs),
(580,125,o),
(560,173,o),
(560,239,cs)
);
}
);
};
hints = (
{
horizontal = 1;
origin = (0,2);
target = (0,1);
type = Stem;
},
{
horizontal = 1;
origin = (0,7);
target = (0,8);
type = Stem;
}
);
layerId = "75A0A031-BEAD-45F4-8089-5B3FA8FFE7DC";
shapes = (
{
closed = 1;
nodes = (
(500,1152,l),
(0,1152,l),
(0,1125,l),
(470,1125,l),
(470,365,ls),
(470,77,o),
(769,-22,o),
(960,-30,c),
(960,-3,l),
(795,1,o),
(500,95,o),
(500,365,cs)
);
}
);
width = 1000;
}
);
unicode = 108;
},
{
glyphname = m;
lastChange = "2020-05-01 21:58:01 +0000";
layers = (
{
background = {
shapes = (
{
closed = 1;
nodes = (
(227,646,l),
(257,646,l),
(438,382,l),
(539,382,l),
(726,646,l),
(756,646,l),
(756,0,l),
(890,0,l),
(890,864,l),
(722,864,l),
(517,557,l),
(487,557,l),
(279,864,l),
(110,864,l),
(110,0,l),
(227,0,l)
);
}
);
};
layerId = "7B6A6B4E-EFCA-423F-B1F3-F70C1AFA501E";
shapes = (
{
closed = 1;
nodes = (
(230,0,l),
(230,702,ls),
(230,741,o),
(266,745,o),
(278,704,cs),
(419,221,ls),
(444,135,o),
(529,135,o),
(555,214,cs),
(716,704,ls),
(728,742,o),
(764,743,o),
(764,702,cs),
(764,0,l),
(900,0,l),
(900,738,ls),
(900,918,o),
(667,948,o),
(610,764,cs),
(507,433,ls),
(498,405,o),
(490,406,o),
(483,433,cs),
(394,762,ls),
(345,943,o),
(100,921,o),
(100,738,cs),
(100,0,l)
);
}
);
width = 1000;
},
{
background = {
shapes = (
{
closed = 1;
nodes = (
(227,646,l),
(257,646,l),
(438,382,l),
(539,382,l),
(726,646,l),
(756,646,l),
(756,0,l),
(890,0,l),
(890,864,l),
(722,864,l),
(517,557,l),
(487,557,l),
(279,864,l),
(110,864,l),
(110,0,l),
(227,0,l)
);
}
);
};
layerId = "75A0A031-BEAD-45F4-8089-5B3FA8FFE7DC";
shapes = (
{
closed = 1;
nodes = (
(130,0,l),
(130,778,ls),
(130,891,o),
(308,899,o),
(334,762,cs),
(413,341,ls),
(433,233,o),
(553,232,o),
(577,341,cs),
(670,762,ls),
(702,906,o),
(870,887,o),
(870,778,cs),
(870,0,l),
(900,0,l),
(900,778,ls),
(900,918,o),
(681,952,o),
(640,764,cs),
(547,341,ls),
(532,273,o),
(456,274,o),
(443,341,cs),
(364,762,ls),
(329,947,o),
(100,921,o),
(100,778,cs),
(100,0,l)
);
}
);
width = 1000;
}
);
unicode = 109;
},
{
glyphname = n;
lastChange = "2020-04-18 04:24:19 +0000";
layers = (
{
anchors = (
{
name = bottom;
pos = (500,0);
},
{
name = top;
pos = (510,900);
}
);
background = {
shapes = (
{
closed = 1;
nodes = (
(670,0,l),
(840,0,l),
(840,470,ls),
(840,770,o),
(757,890,o),
(500,890,cs),
(243,890,o),
(160,770,o),
(160,470,cs),
(160,0,l),
(330,0,l),
(330,470,ls),
(330,628,o),
(380,710,o),
(500,710,cs),
(620,710,o),
(670,628,o),
(670,470,cs)
);
}
);
};
hints = (
{
origin = (0,0);
target = (0,1);
type = Stem;
},
{
origin = (0,2);
target = (0,3);
type = Stem;
},
{
origin = (1,6);
target = (1,7);
type = Stem;
},
{
origin = (1,8);
target = (1,9);
type = Stem;
},
{
horizontal = 1;
origin = (1,12);
target = (1,3);
type = Stem;
}
);
layerId = "7B6A6B4E-EFCA-423F-B1F3-F70C1AFA501E";
shapes = (
{
closed = 1;
nodes = (
(150,864,l),
(150,0,l),
(290,0,l),
(290,864,l)
);
},
{
closed = 1;
nodes = (
(290,650,l),
(388,726,o),
(471,750,o),
(552,750,cs),
(637,750,o),
(710,723,o),
(710,573,cs),
(710,0,l),
(850,0,l),
(850,641,ls),
(850,806,o),
(772,880,o),
(591,880,cs),
(476,880,o),
(381,850,o),
(290,772,c)
);
}
);
width = 1000;
},
{
anchors = (
{
name = bottom;
pos = (500,0);
},
{
name = top;
pos = (510,900);
}
);
background = {
shapes = (
{
closed = 1;
nodes = (
(670,0,l),
(840,0,l),
(840,470,ls),
(840,770,o),
(757,890,o),
(500,890,cs),
(243,890,o),
(160,770,o),
(160,470,cs),
(160,0,l),
(330,0,l),
(330,470,ls),
(330,628,o),
(380,710,o),
(500,710,cs),
(620,710,o),
(670,628,o),
(670,470,cs)
);
}
);
};
hints = (
{
origin = (0,0);
target = (0,1);
type = Stem;
},
{
origin = (0,2);
target = (0,3);
type = Stem;
},
{
origin = (1,6);
target = (1,7);
type = Stem;
},
{
origin = (1,8);
target = (1,9);
type = Stem;
},
{
horizontal = 1;
origin = (1,12);
target = (1,3);
type = Stem;
}
);
layerId = "75A0A031-BEAD-45F4-8089-5B3FA8FFE7DC";
shapes = (
{
closed = 1;
nodes = (
(150,864,l),
(150,0,l),
(180,0,l),
(180,864,l)
);
},
{
closed = 1;
nodes = (
(180,737,l),
(296,824,o),
(481,853,o),
(592,853,cs),
(753,853,o),
(820,791,o),
(820,641,cs),
(820,0,l),
(850,0,l),
(850,641,ls),
(850,806,o),
(772,880,o),
(591,880,cs),
(476,880,o),
(291,850,o),
(180,772,c)
);
}
);
width = 1000;
}
);
unicode = 110;
},
{
glyphname = eng;
lastChange = "2020-04-21 00:54:51 +0000";
layers = (
{
layerId = "7B6A6B4E-EFCA-423F-B1F3-F70C1AFA501E";
shapes = (
{
closed = 1;
nodes = (
(150,864,l),
(150,0,l),
(290,0,l),
(290,864,l)
);
},
{
closed = 1;
nodes = (
(850,641,ls),
(850,806,o),
(772,880,o),
(591,880,cs),
(476,880,o),
(381,850,o),
(290,772,c),
(290,650,l),
(388,726,o),
(471,750,o),
(552,750,cs),
(637,750,o),
(710,723,o),
(710,573,cs),
(710,201,ls),
(710,-1,o),
(650,-110,o),
(485,-105,c),
(505,-250,l),
(756,-233,o),
(850,-98,o),
(850,201,cs)
);
}
);
width = 1000;
},
{
layerId = "75A0A031-BEAD-45F4-8089-5B3FA8FFE7DC";
shapes = (
{
closed = 1;
nodes = (
(150,864,l),
(150,0,l),
(180,0,l),
(180,864,l)
);
},
{
closed = 1;
nodes = (
(850,641,ls),
(850,806,o),
(772,880,o),
(591,880,cs),
(476,880,o),
(291,850,o),
(180,772,c),
(180,737,l),
(296,824,o),
(481,853,o),
(592,853,cs),
(753,853,o),
(820,791,o),
(820,641,cs),
(820,201,ls),
(820,-72,o),
(790,-173,o),
(478,-219,c),
(485,-250,l),
(816,-203,o),
(850,-98,o),
(850,201,cs)
);
}
);
width = 1000;
}
);
unicode = 331;
},
{
glyphname = o;
lastChange = "2020-04-18 04:22:21 +0000";
layers = (
{
anchors = (
{
name = bottom;
pos = (500,0);
},
{
name = center;
pos = (500,384);
},
{
name = ogonek;
pos = (800,40);
},
{
name = top;
pos = (500,900);
},
{
name = topright;
pos = (680,768);
}
);
hints = (
{
origin = (1,2);
target = (0,2);
type = Stem;
},
{
origin = (0,8);
target = (1,8);
type = Stem;
},
{
horizontal = 1;
origin = (0,11);
target = (1,5);
type = Stem;
},
{
horizontal = 1;
origin = (0,5);
target = (1,11);
type = Stem;
}
);
layerId = "7B6A6B4E-EFCA-423F-B1F3-F70C1AFA501E";
shapes = (
{
closed = 1;
nodes = (
(758,-30,o),
(910,170,o),
(910,430,cs),
(910,690,o),
(758,890,o),
(500,890,cs),
(243,890,o),
(90,690,o),
(90,430,cs),
(90,170,o),
(243,-30,o),
(500,-30,cs)
);
},
{
closed = 1;
nodes = (
(677,755,o),
(765,600,o),
(765,430,cs),
(765,260,o),
(677,105,o),
(500,105,cs),
(323,105,o),
(235,260,o),
(235,430,cs),
(235,600,o),
(323,755,o),
(500,755,cs)
);
}
);
width = 1000;
},
{
anchors = (
{
name = bottom;
pos = (500,0);
},
{
name = center;
pos = (500,384);
},
{
name = ogonek;
pos = (800,40);
},
{
name = top;
pos = (500,900);
},
{
name = topright;
pos = (680,768);
}
);
hints = (
{
origin = (1,2);
target = (0,2);
type = Stem;
},
{
origin = (0,8);
target = (1,8);
type = Stem;
},
{
horizontal = 1;
origin = (0,11);
target = (1,5);
type = Stem;
},
{
horizontal = 1;
origin = (0,5);
target = (1,11);
type = Stem;
}
);
layerId = "75A0A031-BEAD-45F4-8089-5B3FA8FFE7DC";
shapes = (
{
closed = 1;
nodes = (
(758,-30,o),
(910,170,o),
(910,430,cs),
(910,690,o),
(758,890,o),
(500,890,cs),
(243,890,o),
(90,690,o),
(90,430,cs),
(90,170,o),
(243,-30,o),
(500,-30,cs)
);
},
{
closed = 1;
nodes = (
(737,863,o),
(877,670,o),
(877,430,cs),
(877,190,o),
(737,-3,o),
(500,-3,cs),
(263,-3,o),
(123,190,o),
(123,430,cs),
(123,670,o),
(263,863,o),
(500,863,cs)
);
}
);
width = 1000;
}
);
unicode = 111;
},
{
glyphname = oe;
lastChange = "2020-04-22 03:26:02 +0000";
layers = (
{
layerId = "7B6A6B4E-EFCA-423F-B1F3-F70C1AFA501E";
shapes = (
{
closed = 1;
nodes = (
(181,864,o),
(30,745,o),
(30,492,cs),
(30,372,ls),
(30,108,o),
(181,0,o),
(450,0,cs),
(558,0,l),
(558,139,l),
(450,135,ls),
(276,129,o),
(170,194,o),
(170,374,cs),
(170,490,ls),
(170,640,o),
(276,729,o),
(450,729,cs),
(553,729,l),
(553,864,l),
(450,864,ls)
);
},
{
closed = 1;
nodes = (
(970,0,l),
(970,135,l),
(640,135,l),
(640,344,l),
(970,344,l),
(970,474,l),
(640,474,l),
(640,729,l),
(970,729,l),
(970,864,l),
(500,864,l),
(500,0,l)
);
}
);
width = 1000;
},
{
layerId = "75A0A031-BEAD-45F4-8089-5B3FA8FFE7DC";
shapes = (
{
closed = 1;
nodes = (
(211,864,o),
(60,693,o),
(60,510,cs),
(60,390,ls),
(60,136,o),
(211,0,o),
(480,0,cs),
(548,0,l),
(548,24,l),
(480,25,ls),
(226,29,o),
(90,162,o),
(90,392,cs),
(90,508,ls),
(90,668,o),
(226,839,o),
(480,839,cs),
(543,839,l),
(543,864,l),
(480,864,ls)
);
},
{
closed = 1;
nodes = (
(980,0,l),
(980,27,l),
(560,27,l),
(560,371,l),
(940,371,l),
(940,398,l),
(560,398,l),
(560,837,l),
(940,837,l),
(940,864,l),
(530,864,l),
(530,0,l)
);
}
);
width = 1000;
}
);
unicode = 339;
},
{
glyphname = p;
lastChange = "2020-05-02 03:18:05 +0000";
layers = (
{
background = {
shapes = (
{
closed = 1;
nodes = (
(160,864,l),
(160,-288,l),
(300,-288,l),
(300,864,l)
);
},
{
closed = 1;
nodes = (
(755,212,o),
(634,121,o),
(475,121,cs),
(408,121,o),
(347,137,o),
(300,153,c),
(300,18,l),
(353,3,o),
(416,-14,o),
(502,-14,cs),
(782,-14,o),
(900,173,o),
(900,458,cs),
(900,687,o),
(834,882,o),
(600,882,cs),
(455,882,o),
(349,808,o),
(300,746,c),
(300,604,l),
(347,667,o),
(445,747,o),
(562,747,cs),
(712,747,o),
(755,616,o),
(755,457,cs)
);
}
);
};
hints = (
{
origin = (1,5);
target = (0,7);
type = Stem;
},
{
horizontal = 1;
origin = (0,10);
target = (1,2);
type = Stem;
},
{
horizontal = 1;
origin = (0,4);
target = (1,8);
type = Stem;
}
);
layerId = "7B6A6B4E-EFCA-423F-B1F3-F70C1AFA501E";
shapes = (
{
closed = 1;
nodes = (
(290,-288,l),
(290,126,l),
(332,50,o),
(421,-24,o),
(549,-24,cs),
(752,-24,o),
(910,166,o),
(910,433,cs),
(910,687,o),
(774,892,o),
(556,892,cs),
(429,892,o),
(329,822,o),
(290,737,c),
(290,864,l),
(150,864,l),
(150,-288,l)
);
},
{
closed = 1;
nodes = (
(290,637,o),
(397,754,o),
(524,754,cs),
(672,754,o),
(765,596,o),
(765,432,cs),
(765,252,o),
(654,116,o),
(525,116,cs),
(407,116,o),
(290,231,o),
(290,436,cs)
);
}
);
width = 1000;
},
{
background = {
shapes = (
{
closed = 1;
nodes = (
(160,864,l),
(160,-288,l),
(300,-288,l),
(300,864,l)
);
},
{
closed = 1;
nodes = (
(755,212,o),
(634,121,o),
(475,121,cs),
(408,121,o),
(347,137,o),
(300,153,c),
(300,18,l),
(353,3,o),
(416,-14,o),
(502,-14,cs),
(782,-14,o),
(900,173,o),
(900,458,cs),
(900,687,o),
(834,882,o),
(600,882,cs),
(455,882,o),
(349,808,o),
(300,746,c),
(300,604,l),
(347,667,o),
(445,747,o),
(562,747,cs),
(712,747,o),
(755,616,o),
(755,457,cs)
);
}
);
};
hints = (
{
origin = (1,5);
target = (0,7);
type = Stem;
},
{
horizontal = 1;
origin = (0,10);
target = (1,2);
type = Stem;
},
{
horizontal = 1;
origin = (0,4);
target = (1,8);
type = Stem;
}
);
layerId = "75A0A031-BEAD-45F4-8089-5B3FA8FFE7DC";
shapes = (
{
closed = 1;
nodes = (
(180,-288,l),
(180,266,l),
(232,97,o),
(353,-24,o),
(534,-24,cs),
(762,-24,o),
(910,166,o),
(910,433,cs),
(910,687,o),
(774,892,o),
(542,892,cs),
(355,892,o),
(226,759,o),
(180,600,c),
(180,864,l),
(150,864,l),
(150,-288,l)
);
},
{
closed = 1;
nodes = (
(180,677,o),
(337,865,o),
(544,865,cs),
(753,865,o),
(877,666,o),
(877,432,cs),
(877,182,o),
(753,3,o),
(534,3,cs),
(336,3,o),
(180,191,o),
(180,436,cs)
);
}
);
width = 1000;
}
);
unicode = 112;
},
{
glyphname = thorn;
lastChange = "2020-04-20 15:49:30 +0000";
layers = (
{
layerId = "7B6A6B4E-EFCA-423F-B1F3-F70C1AFA501E";
shapes = (
{
closed = 1;
nodes = (
(280,-288,l),
(280,116,l),
(335,17,o),
(443,-24,o),
(534,-24,cs),
(752,-24,o),
(910,166,o),
(910,433,cs),
(910,687,o),
(774,892,o),
(550,892,cs),
(425,892,o),
(336,829,o),
(280,720,c),
(280,1152,l),
(140,1152,l),
(140,-288,l)
);
},
{
closed = 1;
nodes = (
(280,637,o),
(397,754,o),
(524,754,cs),
(672,754,o),
(765,596,o),
(765,432,cs),
(765,252,o),
(654,116,o),
(525,116,cs),
(407,116,o),
(280,231,o),
(280,436,cs)
);
}
);
width = 1000;
},
{
layerId = "75A0A031-BEAD-45F4-8089-5B3FA8FFE7DC";
shapes = (
{
closed = 1;
nodes = (
(170,-288,l),
(170,266,l),
(222,97,o),
(343,-24,o),
(524,-24,cs),
(752,-24,o),
(910,166,o),
(910,433,cs),
(910,687,o),
(764,892,o),
(532,892,cs),
(345,892,o),
(216,759,o),
(170,600,c),
(170,1152,l),
(140,1152,l),
(140,-288,l)
);
},
{
closed = 1;
nodes = (
(170,677,o),
(327,865,o),
(534,865,cs),
(743,865,o),
(877,666,o),
(877,432,cs),
(877,182,o),
(743,3,o),
(524,3,cs),
(326,3,o),
(170,191,o),
(170,436,cs)
);
}
);
width = 1000;
}
);
unicode = 254;
},
{
glyphname = q;
lastChange = "2020-05-02 19:18:41 +0000";
layers = (
{
layerId = "7B6A6B4E-EFCA-423F-B1F3-F70C1AFA501E";
shapes = (
{
closed = 1;
nodes = (
(90,120,o),
(250,-10,o),
(458,-10,cs),
(570,-10,o),
(666,28,o),
(720,122,c),
(720,-288,l),
(860,-288,l),
(860,884,l),
(548,884,ls),
(219,884,o),
(90,622,o),
(90,392,cs)
);
},
{
closed = 1;
nodes = (
(230,542,o),
(318,746,o),
(561,746,cs),
(720,746,l),
(720,446,ls),
(720,241,o),
(602,128,o),
(463,128,cs),
(351,128,o),
(230,200,o),
(230,392,cs)
);
}
);
width = 1000;
},
{
layerId = "75A0A031-BEAD-45F4-8089-5B3FA8FFE7DC";
shapes = (
{
closed = 1;
nodes = (
(90,120,o),
(250,-10,o),
(440,-10,cs),
(610,-10,o),
(764,88,o),
(830,282,c),
(830,-288,l),
(860,-288,l),
(860,884,l),
(661,884,ls),
(269,884,o),
(90,612,o),
(90,359,cs)
);
},
{
closed = 1;
nodes = (
(123,592,o),
(288,857,o),
(661,857,cs),
(830,857,l),
(830,446,ls),
(830,191,o),
(640,20,o),
(440,20,cs),
(269,20,o),
(123,140,o),
(123,359,cs)
);
}
);
width = 1000;
}
);
unicode = 113;
},
{
glyphname = r;
lastChange = "2020-04-18 07:56:00 +0000";
layers = (
{
anchors = (
{
name = bottom;
pos = (500,0);
},
{
name = top;
pos = (500,900);
}
);
background = {
shapes = (
{
closed = 1;
nodes = (
(362,118,l),
(120,98,l),
(120,0,l),
(824,0,l),
(824,98,l)
);
},
{
closed = 1;
nodes = (
(316,766,l),
(735,746,l),
(751,600,l),
(880,600,l),
(854,864,l),
(316,864,l)
);
},
{
closed = 1;
nodes = (
(450,0,l),
(450,810,l),
(316,810,l),
(316,0,l)
);
},
{
closed = 1;
nodes = (
(352,118,l),
(120,118,l),
(120,0,l),
(734,0,l),
(734,118,l)
);
}
);
};
layerId = "7B6A6B4E-EFCA-423F-B1F3-F70C1AFA501E";
shapes = (
{
closed = 1;
nodes = (
(271,0,l),
(411,0,l),
(410,399,ls),
(409,648,o),
(722,739,o),
(910,739,c),
(910,894,l),
(675,884,o),
(471,799,o),
(410,641,c),
(410,864,l),
(270,864,l)
);
},
{
closed = 1;
nodes = (
(410,864,l),
(90,864,l),
(90,729,l),
(410,729,l)
);
}
);
width = 1000;
},
{
anchors = (
{
name = bottom;
pos = (500,0);
},
{
name = top;
pos = (500,900);
}
);
background = {
shapes = (
{
closed = 1;
nodes = (
(362,118,l),
(120,98,l),
(120,0,l),
(824,0,l),
(824,98,l)
);
},
{
closed = 1;
nodes = (
(316,766,l),
(735,746,l),
(751,600,l),
(880,600,l),
(854,864,l),
(316,864,l)
);
},
{
closed = 1;
nodes = (
(450,0,l),
(450,810,l),
(316,810,l),
(316,0,l)
);
},
{
closed = 1;
nodes = (
(352,118,l),
(120,118,l),
(120,0,l),
(734,0,l),
(734,118,l)
);
}
);
};
layerId = "75A0A031-BEAD-45F4-8089-5B3FA8FFE7DC";
shapes = (
{
closed = 1;
nodes = (
(381,0,l),
(411,0,l),
(410,399,ls),
(409,648,o),
(712,864,o),
(910,864,c),
(910,894,l),
(695,894,o),
(461,699,o),
(410,521,c),
(410,864,l),
(380,864,l)
);
},
{
closed = 1;
nodes = (
(400,864,l),
(90,864,l),
(90,837,l),
(400,837,l)
);
}
);
width = 1000;
}
);
unicode = 114;
},
{
glyphname = s;
lastChange = "2020-05-01 23:24:54 +0000";
layers = (
{
anchors = (
{
name = bottom;
pos = (500,0);
},
{
name = top;
pos = (500,900);
}
);
background = {
shapes = (
{
closed = 1;
nodes = (
(850,16,o),
(716,-30,o),
(457,-30,cs),
(338,-30,o),
(247,-21,o),
(172,0,c),
(172,140,l),
(245,127,o),
(337,105,o),
(463,105,cs),
(644,105,o),
(694,150,o),
(694,222,cs),
(694,465,o),
(150,219,o),
(150,620,cs),
(150,772,o),
(226,890,o),
(506,890,cs),
(596,890,o),
(737,875,o),
(796,856,c),
(770,723,l),
(720,736,o),
(582,755,o),
(500,755,cs),
(359,755,o),
(306,696,o),
(306,622,cs),
(306,389,o),
(850,632,o),
(850,227,cs)
);
},
{
closed = 1;
nodes = (
(373,746,o),
(302,720,o),
(302,642,cs),
(302,427,o),
(850,618,o),
(850,236,cs),
(850,58,o),
(735,-15,o),
(450,-15,cs),
(353,-15,o),
(234,-8,o),
(160,8,c),
(180,154,l),
(252,135,o),
(331,120,o),
(449,120,cs),
(639,120,o),
(708,161,o),
(708,238,cs),
(708,461,o),
(160,269,o),
(160,642,cs),
(160,818,o),
(285,884,o),
(536,884,cs),
(634,884,o),
(757,874,o),
(811,862,c),
(791,724,l),
(731,735,o),
(638,746,o),
(536,746,cs)
);
}
);
};
hints = (
{
horizontal = 1;
origin = (0,6);
target = (0,31);
type = Stem;
},
{
origin = (0,9);
target = (0,28);
type = Stem;
},
{
origin = (0,12);
target = (0,25);
type = Stem;
},
{
horizontal = 1;
origin = (0,22);
target = (0,15);
type = Stem;
}
);
layerId = "7B6A6B4E-EFCA-423F-B1F3-F70C1AFA501E";
shapes = (
{
closed = 1;
nodes = (
(623,759,o),
(711,728,o),
(771,697,c),
(841,825,l),
(767,864,o),
(644,894,o),
(516,894,cs),
(295,894,o),
(170,805,o),
(170,623,cs),
(170,236,o),
(740,483,o),
(740,268,cs),
(740,183,o),
(650,105,o),
(500,105,cs),
(359,105,o),
(253,174,o),
(220,210,c),
(130,90,l),
(159,59,o),
(280,-30,o),
(500,-30,cs),
(739,-30,o),
(880,80,o),
(880,272,cs),
(880,680,o),
(310,414,o),
(310,631,cs),
(310,710,o),
(383,759,o),
(516,759,cs)
);
}
);
width = 1000;
},
{
anchors = (
{
name = bottom;
pos = (500,0);
},
{
name = top;
pos = (500,900);
}
);
background = {
shapes = (
{
closed = 1;
nodes = (
(850,16,o),
(716,-30,o),
(457,-30,cs),
(338,-30,o),
(247,-21,o),
(172,0,c),
(172,140,l),
(245,127,o),
(337,105,o),
(463,105,cs),
(644,105,o),
(694,150,o),
(694,222,cs),
(694,465,o),
(150,219,o),
(150,620,cs),
(150,772,o),
(226,890,o),
(506,890,cs),
(596,890,o),
(737,875,o),
(796,856,c),
(770,723,l),
(720,736,o),
(582,755,o),
(500,755,cs),
(359,755,o),
(306,696,o),
(306,622,cs),
(306,389,o),
(850,632,o),
(850,227,cs)
);
},
{
closed = 1;
nodes = (
(373,746,o),
(302,720,o),
(302,642,cs),
(302,427,o),
(850,618,o),
(850,236,cs),
(850,58,o),
(735,-15,o),
(450,-15,cs),
(353,-15,o),
(234,-8,o),
(160,8,c),
(180,154,l),
(252,135,o),
(331,120,o),
(449,120,cs),
(639,120,o),
(708,161,o),
(708,238,cs),
(708,461,o),
(160,269,o),
(160,642,cs),
(160,818,o),
(285,884,o),
(536,884,cs),
(634,884,o),
(757,874,o),
(811,862,c),
(791,724,l),
(731,735,o),
(638,746,o),
(536,746,cs)
);
}
);
};
hints = (
{
horizontal = 1;
origin = (0,6);
target = (0,31);
type = Stem;
},
{
origin = (0,9);
target = (0,28);
type = Stem;
},
{
origin = (0,12);
target = (0,25);
type = Stem;
},
{
horizontal = 1;
origin = (0,22);
target = (0,15);
type = Stem;
}
);
layerId = "75A0A031-BEAD-45F4-8089-5B3FA8FFE7DC";
shapes = (
{
closed = 1;
nodes = (
(604,864,o),
(746,849,o),
(804,798,c),
(821,822,l),
(767,874,o),
(614,891,o),
(516,891,cs),
(295,891,o),
(170,805,o),
(170,643,cs),
(170,266,o),
(847,590,o),
(847,248,cs),
(847,102,o),
(730,-3,o),
(500,-3,cs),
(301,-3,o),
(183,74,o),
(150,110,c),
(130,90,l),
(159,59,o),
(280,-30,o),
(500,-30,cs),
(739,-30,o),
(880,80,o),
(880,250,cs),
(880,625,o),
(203,310,o),
(203,643,cs),
(203,783,o),
(313,864,o),
(516,864,cs)
);
}
);
width = 1000;
}
);
unicode = 115;
},
{
glyphname = germandbls;
lastChange = "2020-05-02 19:22:22 +0000";
layers = (
{
background = {
shapes = (
{
closed = 1;
nodes = (
(-48,40,l),
(-48,0,l),
(178,0,l),
(178,40,l)
);
},
{
closed = 1;
nodes = (
(433,688,o),
(343,720,o),
(256,720,cs),
(141,720,o),
(30,663,o),
(30,486,cs),
(30,24,l),
(110,24,l),
(110,492,ls),
(110,603,o),
(119,676,o),
(237,676,cs),
(331,676,o),
(352,630,o),
(352,585,cs),
(352,555,o),
(343,526,o),
(295,506,cs),
(218,474,o),
(185,431,o),
(185,372,cs),
(185,304,o),
(229,250,o),
(322,195,cs),
(393,153,o),
(419,125,o),
(419,92,cs),
(419,56,o),
(388,31,o),
(354,21,c),
(240,63,l),
(215,10,l),
(256,-4,o),
(298,-14,o),
(342,-14,cs),
(433,-14,o),
(495,30,o),
(495,109,cs),
(495,174,o),
(453,210,o),
(366,263,cs),
(297,305,o),
(258,335,o),
(258,386,cs),
(258,418,o),
(273,450,o),
(321,470,cs),
(398,502,o),
(433,525,o),
(433,587,cs)
);
}
);
};
layerId = "7B6A6B4E-EFCA-423F-B1F3-F70C1AFA501E";
shapes = (
{
closed = 1;
nodes = (
(446,-9,o),
(575,-30,o),
(657,-30,cs),
(842,-30,o),
(950,80,o),
(950,246,cs),
(950,580,o),
(546,393,o),
(546,562,cs),
(546,718,o),
(887,571,o),
(887,890,cs),
(887,1106,o),
(730,1152,o),
(542,1152,cs),
(258,1152,o),
(110,1044,o),
(110,622,cs),
(110,0,l),
(250,0,l),
(250,622,ls),
(250,904,o),
(310,1017,o),
(539,1017,cs),
(687,1017,o),
(747,966,o),
(747,885,cs),
(747,692,o),
(406,855,o),
(406,560,cs),
(406,235,o),
(810,443,o),
(810,236,cs),
(810,163,o),
(756,105,o),
(657,105,cs),
(589,105,o),
(491,132,o),
(431,172,c),
(374,46,l)
);
}
);
width = 1000;
},
{
background = {
shapes = (
{
closed = 1;
nodes = (
(-48,40,l),
(-48,0,l),
(178,0,l),
(178,40,l)
);
},
{
closed = 1;
nodes = (
(433,688,o),
(343,720,o),
(256,720,cs),
(141,720,o),
(30,663,o),
(30,486,cs),
(30,24,l),
(110,24,l),
(110,492,ls),
(110,603,o),
(119,676,o),
(237,676,cs),
(331,676,o),
(352,630,o),
(352,585,cs),
(352,555,o),
(343,526,o),
(295,506,cs),
(218,474,o),
(185,431,o),
(185,372,cs),
(185,304,o),
(229,250,o),
(322,195,cs),
(393,153,o),
(419,125,o),
(419,92,cs),
(419,56,o),
(388,31,o),
(354,21,c),
(240,63,l),
(215,10,l),
(256,-4,o),
(298,-14,o),
(342,-14,cs),
(433,-14,o),
(495,30,o),
(495,109,cs),
(495,174,o),
(453,210,o),
(366,263,cs),
(297,305,o),
(258,335,o),
(258,386,cs),
(258,418,o),
(273,450,o),
(321,470,cs),
(398,502,o),
(433,525,o),
(433,587,cs)
);
}
);
};
layerId = "75A0A031-BEAD-45F4-8089-5B3FA8FFE7DC";
shapes = (
{
closed = 1;
nodes = (
(440,6,o),
(556,-30,o),
(662,-30,cs),
(841,-30,o),
(950,80,o),
(950,218,cs),
(950,530,o),
(406,283,o),
(406,562,cs),
(406,818,o),
(887,601,o),
(887,932,cs),
(887,1126,o),
(720,1152,o),
(529,1152,cs),
(278,1152,o),
(120,1104,o),
(120,622,cs),
(120,0,l),
(150,0,l),
(150,622,ls),
(150,1078,o),
(282,1127,o),
(529,1127,cs),
(706,1127,o),
(857,1101,o),
(857,932,cs),
(857,631,o),
(376,855,o),
(376,560,cs),
(376,245,o),
(921,500,o),
(921,218,cs),
(921,103,o),
(825,-3,o),
(662,-3,cs),
(564,-3,o),
(459,32,o),
(394,106,c),
(374,82,l)
);
}
);
width = 1000;
}
);
unicode = 223;
},
{
glyphname = longs;
lastChange = "2020-04-20 15:16:29 +0000";
layers = (
{
layerId = "7B6A6B4E-EFCA-423F-B1F3-F70C1AFA501E";
shapes = (
{
closed = 1;
nodes = (
(515,0,l),
(515,922,ls),
(515,1004,o),
(660,1007,o),
(900,1007,c),
(900,1152,l),
(617,1149,o),
(375,1144,o),
(375,922,cs),
(375,0,l)
);
}
);
width = 1000;
},
{
layerId = "75A0A031-BEAD-45F4-8089-5B3FA8FFE7DC";
shapes = (
{
closed = 1;
nodes = (
(405,0,l),
(405,912,ls),
(405,1114,o),
(630,1122,o),
(900,1122,c),
(900,1152,l),
(617,1152,o),
(375,1144,o),
(375,912,cs),
(375,0,l)
);
}
);
width = 1000;
}
);
unicode = 383;
},
{
glyphname = t;
lastChange = "2020-04-18 08:27:21 +0000";
layers = (
{
anchors = (
{
name = bottom;
pos = (500,0);
},
{
name = center;
pos = (500,330);
},
{
name = top;
pos = (500,768);
},
{
name = topright;
pos = (1070,1152);
}
);
background = {
shapes = (
{
closed = 1;
nodes = (
(740,0,l),
(854,26,l),
(854,146,l),
(706,111,l),
(328,98,l),
(328,1075,l),
(194,1075,l),
(194,0,l)
);
},
{
closed = 1;
nodes = (
(854,670,l),
(854,768,l),
(132,768,l),
(132,670,l),
(369,650,l)
);
}
);
};
hints = (
{
horizontal = 1;
origin = (0,0);
settings = {
deltaV = {
"{100, 134, 0, 0, 0, 0}" = {
"16" = -4;
};
};
};
type = TTDelta;
},
{
horizontal = 1;
origin = (0,1);
settings = {
deltaV = {
"{100, 134, 0, 0, 0, 0}" = {
"16" = -4;
};
};
};
type = TTDelta;
},
{
horizontal = 1;
origin = (0,2);
settings = {
deltaV = {
"{100, 134, 0, 0, 0, 0}" = {
"16" = -4;
};
};
};
type = TTDelta;
},
{
horizontal = 1;
origin = (0,3);
settings = {
deltaV = {
"{100, 134, 0, 0, 0, 0}" = {
"16" = -4;
};
};
};
type = TTDelta;
}
);
layerId = "7B6A6B4E-EFCA-423F-B1F3-F70C1AFA501E";
shapes = (
{
closed = 1;
nodes = (
(100,729,l),
(900,729,l),
(900,864,l),
(100,864,l)
);
},
{
closed = 1;
nodes = (
(385,81,o),
(517,0,o),
(760,-20,c),
(790,115,l),
(621,131,o),
(525,173,o),
(525,269,cs),
(525,1044,l),
(385,1044,l),
(385,273,ls)
);
}
);
width = 1000;
},
{
anchors = (
{
name = bottom;
pos = (500,0);
},
{
name = center;
pos = (500,330);
},
{
name = top;
pos = (500,768);
},
{
name = topright;
pos = (1070,1152);
}
);
background = {
shapes = (
{
closed = 1;
nodes = (
(740,0,l),
(854,26,l),
(854,146,l),
(706,111,l),
(328,98,l),
(328,1075,l),
(194,1075,l),
(194,0,l)
);
},
{
closed = 1;
nodes = (
(854,670,l),
(854,768,l),
(132,768,l),
(132,670,l),
(369,650,l)
);
}
);
};
hints = (
{
horizontal = 1;
origin = (0,0);
settings = {
deltaV = {
"{100, 134, 0, 0, 0, 0}" = {
"16" = -4;
};
};
};
type = TTDelta;
},
{
horizontal = 1;
origin = (0,1);
settings = {
deltaV = {
"{100, 134, 0, 0, 0, 0}" = {
"16" = -4;
};
};
};
type = TTDelta;
},
{
horizontal = 1;
origin = (0,2);
settings = {
deltaV = {
"{100, 134, 0, 0, 0, 0}" = {
"16" = -4;
};
};
};
type = TTDelta;
},
{
horizontal = 1;
origin = (0,3);
settings = {
deltaV = {
"{100, 134, 0, 0, 0, 0}" = {
"16" = -4;
};
};
};
type = TTDelta;
}
);
layerId = "75A0A031-BEAD-45F4-8089-5B3FA8FFE7DC";
shapes = (
{
closed = 1;
nodes = (
(100,834,l),
(900,834,l),
(900,864,l),
(100,864,l)
);
},
{
closed = 1;
nodes = (
(415,81,o),
(517,0,o),
(760,-20,c),
(770,7,l),
(532,28,o),
(445,103,o),
(445,269,cs),
(445,1044,l),
(415,1044,l),
(415,273,ls)
);
}
);
width = 1000;
}
);
unicode = 116;
},
{
glyphname = tbar;
lastChange = "2020-04-21 00:56:11 +0000";
layers = (
{
layerId = "7B6A6B4E-EFCA-423F-B1F3-F70C1AFA501E";
shapes = (
{
closed = 1;
nodes = (
(100,353,l),
(900,353,l),
(900,488,l),
(100,488,l)
);
},
{
ref = t;
}
);
width = 1000;
},
{
layerId = "75A0A031-BEAD-45F4-8089-5B3FA8FFE7DC";
shapes = (
{
closed = 1;
nodes = (
(100,434,l),
(900,434,l),
(900,464,l),
(100,464,l)
);
},
{
ref = t;
}
);
width = 1000;
}
);
unicode = 359;
},
{
glyphname = u;
lastChange = "2020-05-02 03:18:29 +0000";
layers = (
{
anchors = (
{
name = bottom;
pos = (500,0);
},
{
name = ogonek;
pos = (880,10);
},
{
name = top;
pos = (500,900);
},
{
name = topright;
pos = (780,768);
}
);
background = {
shapes = (
{
closed = 1;
nodes = (
(850,0,l),
(850,864,l),
(710,864,l),
(710,0,l)
);
},
{
closed = 1;
nodes = (
(710,214,l),
(612,138,o),
(529,114,o),
(448,114,cs),
(363,114,o),
(290,141,o),
(290,291,cs),
(290,864,l),
(150,864,l),
(150,223,ls),
(150,58,o),
(228,-16,o),
(409,-16,cs),
(524,-16,o),
(619,14,o),
(710,92,c)
);
}
);
};
layerId = "7B6A6B4E-EFCA-423F-B1F3-F70C1AFA501E";
shapes = (
{
closed = 1;
nodes = (
(850,864,l),
(710,864,l),
(710,309,ls),
(710,166,o),
(601,119,o),
(500,119,cs),
(405,119,o),
(290,161,o),
(290,311,cs),
(290,864,l),
(150,864,l),
(150,295,ls),
(150,68,o),
(319,-16,o),
(500,-16,cs),
(685,-16,o),
(850,70,o),
(850,295,cs)
);
}
);
width = 1000;
},
{
anchors = (
{
name = bottom;
pos = (500,0);
},
{
name = ogonek;
pos = (880,10);
},
{
name = top;
pos = (500,900);
},
{
name = topright;
pos = (780,768);
}
);
background = {
shapes = (
{
closed = 1;
nodes = (
(840,16,l),
(840,880,l),
(700,880,l),
(700,16,l)
);
},
{
closed = 1;
nodes = (
(700,230,l),
(602,154,o),
(519,130,o),
(448,130,cs),
(373,130,o),
(300,157,o),
(300,307,cs),
(300,880,l),
(160,880,l),
(160,239,ls),
(160,74,o),
(238,0,o),
(409,0,cs),
(514,0,o),
(609,30,o),
(700,108,c)
);
}
);
};
layerId = "75A0A031-BEAD-45F4-8089-5B3FA8FFE7DC";
shapes = (
{
closed = 1;
nodes = (
(850,864,l),
(820,864,l),
(820,309,ls),
(820,96,o),
(661,12,o),
(498,12,cs),
(345,12,o),
(180,91,o),
(180,311,cs),
(180,864,l),
(150,864,l),
(150,309,ls),
(150,68,o),
(319,-16,o),
(500,-16,cs),
(685,-16,o),
(850,70,o),
(850,309,cs)
);
}
);
width = 1000;
}
);
unicode = 117;
},
{
glyphname = v;
lastChange = "2020-04-18 05:19:26 +0000";
layers = (
{
background = {
shapes = (
{
closed = 1;
nodes = (
(870,914,l),
(526,235,ls),
(510,203,o),
(489,205,o),
(474,235,cs),
(134,914,l),
(0,844,l),
(427,19,ls),
(460,-45,o),
(539,-43,o),
(573,23,cs),
(1000,844,l)
);
}
);
};
layerId = "7B6A6B4E-EFCA-423F-B1F3-F70C1AFA501E";
shapes = (
{
closed = 1;
nodes = (
(850,864,l),
(524,234,ls),
(508,202,o),
(487,203,o),
(472,234,cs),
(161,864,l),
(0,864,l),
(427,19,ls),
(459,-45,o),
(540,-43,o),
(573,23,cs),
(1000,864,l)
);
}
);
width = 1000;
},
{
background = {
shapes = (
{
closed = 1;
nodes = (
(870,914,l),
(526,235,ls),
(510,203,o),
(489,205,o),
(474,235,cs),
(134,914,l),
(0,844,l),
(427,19,ls),
(460,-45,o),
(539,-43,o),
(573,23,cs),
(1000,844,l)
);
}
);
};
layerId = "75A0A031-BEAD-45F4-8089-5B3FA8FFE7DC";
shapes = (
{
closed = 1;
nodes = (
(966,864,l),
(547,40,ls),
(522,-9,o),
(476,-11,o),
(452,37,cs),
(34,864,l),
(0,864,l),
(427,19,ls),
(459,-45,o),
(540,-43,o),
(573,23,cs),
(1000,864,l)
);
}
);
width = 1000;
}
);
unicode = 118;
},
{
glyphname = w;
lastChange = "2020-05-17 02:56:28 +0000";
layers = (
{
anchors = (
{
name = bottom;
pos = (500,0);
},
{
name = top;
pos = (500,864);
}
);
background = {
shapes = (
{
closed = 1;
nodes = (
(759,198,l),
(729,198,l),
(562,482,l),
(461,482,l),
(277,198,l),
(247,198,l),
(247,864,l),
(124,864,l),
(124,0,l),
(291,0,l),
(483,307,l),
(513,307,l),
(697,0,l),
(876,0,l),
(876,864,l),
(759,864,l)
);
}
);
};
hints = (
{
horizontal = 1;
origin = (0,27);
target = (0,41);
type = Stem;
},
{
horizontal = 1;
origin = (0,18);
target = (0,4);
type = Stem;
}
);
layerId = "7B6A6B4E-EFCA-423F-B1F3-F70C1AFA501E";
shapes = (
{
closed = 1;
nodes = (
(806,864,l),
(754,146,ls),
(752,119,o),
(737,105,o),
(718,105,cs),
(699,105,o),
(682,119,o),
(680,144,cs),
(656,434,ls),
(648,528,o),
(600,588,o),
(501,588,cs),
(401,588,o),
(364,527,o),
(355,432,cs),
(327,144,ls),
(325,121,o),
(308,105,o),
(289,105,cs),
(271,105,o),
(256,119,o),
(254,147,cs),
(196,864,l),
(60,864,l),
(118,147,ls),
(128,23,o),
(180,-30,o),
(280,-30,cs),
(360,-30,o),
(437,1,o),
(448,136,cs),
(472,422,ls),
(473,438,o),
(484,453,o),
(503,453,cs),
(522,453,o),
(532,438,o),
(533,422,cs),
(554,136,ls),
(564,2,o),
(642,-30,o),
(722,-30,cs),
(822,-30,o),
(876,23,o),
(885,138,cs),
(940,864,l)
);
}
);
width = 1000;
},
{
anchors = (
{
name = bottom;
pos = (500,0);
},
{
name = top;
pos = (500,864);
}
);
background = {
shapes = (
{
closed = 1;
nodes = (
(759,198,l),
(729,198,l),
(562,482,l),
(461,482,l),
(277,198,l),
(247,198,l),
(247,864,l),
(124,864,l),
(124,0,l),
(291,0,l),
(483,307,l),
(513,307,l),
(697,0,l),
(876,0,l),
(876,864,l),
(759,864,l)
);
}
);
};
hints = (
{
horizontal = 1;
origin = (0,27);
target = (0,41);
type = Stem;
},
{
horizontal = 1;
origin = (0,18);
target = (0,4);
type = Stem;
}
);
layerId = "75A0A031-BEAD-45F4-8089-5B3FA8FFE7DC";
shapes = (
{
closed = 1;
nodes = (
(910,864,l),
(853,138,ls),
(845,33,o),
(817,-3,o),
(738,-3,cs),
(679,-3,o),
(632,18,o),
(624,136,cs),
(600,482,ls),
(596,536,o),
(570,588,o),
(501,588,cs),
(431,588,o),
(409,535,o),
(405,482,cs),
(378,136,ls),
(370,31,o),
(328,-3,o),
(260,-3,cs),
(191,-3,o),
(149,31,o),
(141,147,cs),
(90,864,l),
(60,864,l),
(111,147,ls),
(120,23,o),
(170,-30,o),
(260,-30,cs),
(330,-30,o),
(398,2,o),
(408,136,cs),
(435,482,ls),
(438,525,o),
(464,561,o),
(503,561,cs),
(542,561,o),
(567,525,o),
(570,482,cs),
(594,136,ls),
(603,3,o),
(672,-30,o),
(742,-30,cs),
(832,-30,o),
(874,23,o),
(883,138,cs),
(940,864,l)
);
}
);
width = 1000;
}
);
unicode = 119;
},
{
glyphname = x;
lastChange = "2020-04-18 08:00:56 +0000";
layers = (
{
background = {
shapes = (
{
closed = 1;
nodes = (
(746,864,l),
(40,0,l),
(220,0,l),
(926,864,l)
);
},
{
closed = 1;
nodes = (
(960,0,l),
(277,864,l),
(96,864,l),
(779,0,l)
);
}
);
};
layerId = "7B6A6B4E-EFCA-423F-B1F3-F70C1AFA501E";
shapes = (
{
closed = 1;
nodes = (
(158,-36,l),
(538,391,l),
(475,391,l),
(829,-36,l),
(950,54,l),
(557,498,l),
(557,410,l),
(926,818,l),
(808,908,l),
(475,517,l),
(538,517,l),
(207,908,l),
(86,818,l),
(455,410,l),
(456,498,l),
(50,54,l)
);
}
);
width = 1000;
},
{
background = {
shapes = (
{
closed = 1;
nodes = (
(746,864,l),
(40,0,l),
(220,0,l),
(926,864,l)
);
},
{
closed = 1;
nodes = (
(960,0,l),
(277,864,l),
(96,864,l),
(779,0,l)
);
}
);
};
layerId = "75A0A031-BEAD-45F4-8089-5B3FA8FFE7DC";
shapes = (
{
closed = 1;
nodes = (
(141,-18,l),
(514,439,l),
(499,439,l),
(853,-18,l),
(877,0,l),
(518,465,l),
(518,444,l),
(866,864,l),
(843,881,l),
(499,469,l),
(514,469,l),
(171,881,l),
(148,864,l),
(494,444,l),
(494,465,l),
(117,0,l)
);
}
);
width = 1000;
}
);
unicode = 120;
},
{
glyphname = y;
lastChange = "2020-04-18 07:58:35 +0000";
layers = (
{
anchors = (
{
name = bottom;
pos = (500,0);
},
{
name = top;
pos = (500,900);
}
);
background = {
shapes = (
{
closed = 1;
nodes = (
(850,864,l),
(524,234,ls),
(508,202,o),
(487,203,o),
(472,234,cs),
(161,864,l),
(0,864,l),
(427,19,ls),
(459,-45,o),
(540,-43,o),
(573,23,cs),
(1000,864,l)
);
}
);
};
layerId = "7B6A6B4E-EFCA-423F-B1F3-F70C1AFA501E";
shapes = (
{
closed = 1;
nodes = (
(505,240,ls),
(423,75,o),
(332,-104,o),
(44,-200,c),
(104,-330,l),
(412,-244,o),
(544,12,o),
(634,192,cs),
(970,864,l),
(817,864,l)
);
},
{
closed = 1;
nodes = (
(30,864,l),
(438,97,l),
(544,197,l),
(190,864,l)
);
}
);
width = 1000;
},
{
anchors = (
{
name = bottom;
pos = (500,0);
},
{
name = top;
pos = (500,900);
}
);
background = {
shapes = (
{
closed = 1;
nodes = (
(850,864,l),
(524,234,ls),
(508,202,o),
(487,203,o),
(472,234,cs),
(161,864,l),
(0,864,l),
(427,19,ls),
(459,-45,o),
(540,-43,o),
(573,23,cs),
(1000,864,l)
);
}
);
};
layerId = "75A0A031-BEAD-45F4-8089-5B3FA8FFE7DC";
shapes = (
{
closed = 1;
nodes = (
(604,199,ls),
(490,-29,o),
(372,-204,o),
(64,-300,c),
(74,-330,l),
(372,-238,o),
(517,-42,o),
(634,192,cs),
(970,864,l),
(936,864,l)
);
},
{
closed = 1;
nodes = (
(30,864,l),
(489,0,l),
(523,0,l),
(65,864,l)
);
}
);
width = 1000;
}
);
unicode = 121;
},
{
glyphname = z;
lastChange = "2020-04-18 08:10:12 +0000";
layers = (
{
anchors = (
{
name = bottom;
pos = (500,0);
},
{
name = top;
pos = (500,900);
}
);
layerId = "7B6A6B4E-EFCA-423F-B1F3-F70C1AFA501E";
shapes = (
{
closed = 1;
nodes = (
(150,864,l),
(150,729,l),
(618,729,ls),
(655,729,o),
(662,705,o),
(637,678,cs),
(195,197,ls),
(94,88,o),
(111,0,o),
(152,0,cs),
(900,0,l),
(900,135,l),
(398,135,ls),
(361,135,o),
(357,156,o),
(381,182,cs),
(814,664,ls),
(923,785,o),
(882,864,o),
(837,864,cs)
);
}
);
width = 1000;
},
{
anchors = (
{
name = bottom;
pos = (500,0);
},
{
name = top;
pos = (500,900);
}
);
layerId = "75A0A031-BEAD-45F4-8089-5B3FA8FFE7DC";
shapes = (
{
closed = 1;
nodes = (
(120,864,l),
(120,837,l),
(828,837,ls),
(875,837,o),
(889,838,o),
(837,786,cs),
(108,59,ls),
(49,1,o),
(93,0,o),
(144,0,cs),
(920,0,l),
(920,27,l),
(150,27,ls),
(133,27,o),
(115,27,o),
(148,59,cs),
(877,786,ls),
(951,860,o),
(912,864,o),
(828,864,cs)
);
}
);
width = 1000;
}
);
unicode = 122;
},
{
glyphname = i.li;
lastChange = "2020-04-18 04:01:42 +0000";
layers = (
{
background = {
shapes = (
{
closed = 1;
nodes = (
(141,661,l),
(482,645,l),
(457,114,l),
(110,98,l),
(110,0,l),
(910,0,l),
(910,98,l),
(595,114,l),
(614,602,l),
(635,768,l),
(141,768,l)
);
},
{
closed = 1;
nodes = (
(397,981,l),
(610,981,l),
(613,1202,l),
(397,1198,l)
);
}
);
};
layerId = "7B6A6B4E-EFCA-423F-B1F3-F70C1AFA501E";
shapes = (
{
ref = i;
}
);
width = 1000;
},
{
background = {
shapes = (
{
closed = 1;
nodes = (
(141,661,l),
(482,645,l),
(457,114,l),
(110,98,l),
(110,0,l),
(910,0,l),
(910,98,l),
(595,114,l),
(614,602,l),
(635,768,l),
(141,768,l)
);
},
{
closed = 1;
nodes = (
(397,981,l),
(610,981,l),
(613,1202,l),
(397,1198,l)
);
}
);
};
layerId = "75A0A031-BEAD-45F4-8089-5B3FA8FFE7DC";
shapes = (
{
ref = i;
}
);
width = 1000;
}
);
},
{
export = 0;
glyphname = w.inw;
lastChange = "2020-04-23 01:02:21 +0000";
layers = (
{
anchors = (
{
name = bottom;
pos = (500,0);
},
{
name = top;
pos = (500,864);
}
);
background = {
shapes = (
{
closed = 1;
nodes = (
(759,198,l),
(729,198,l),
(562,482,l),
(461,482,l),
(277,198,l),
(247,198,l),
(247,864,l),
(124,864,l),
(124,0,l),
(291,0,l),
(483,307,l),
(513,307,l),
(697,0,l),
(876,0,l),
(876,864,l),
(759,864,l)
);
}
);
};
hints = (
{
horizontal = 1;
place = (-30, 0);
place = (-30, 0);
type = Stem;
},
{
horizontal = 1;
place = (112, 0);
place = (112, 0);
type = Stem;
}
);
layerId = "7B6A6B4E-EFCA-423F-B1F3-F70C1AFA501E";
shapes = (
{
closed = 1;
nodes = (
(264,112,o),
(284,128,o),
(287,151,cs),
(333,532,ls),
(343,618,o),
(407,668,o),
(502,668,cs),
(595,668,o),
(675,618,o),
(682,534,cs),
(713,151,ls),
(715,126,o),
(731,112,o),
(758,112,cs),
(786,112,o),
(804,127,o),
(807,154,cs),
(838,465,ls),
(844,529,o),
(899,599,o),
(1001,599,c),
(1002,599,l),
(1002,449,l),
(1001,449,l),
(972,449,o),
(963,433,o),
(962,410,cs),
(945,147,ls),
(937,23,o),
(876,-30,o),
(763,-30,cs),
(673,-30,o),
(578,1,o),
(569,136,cs),
(548,469,ls),
(546,502,o),
(525,518,o),
(504,518,cs),
(483,518,o),
(462,502,o),
(459,469,cs),
(432,135,ls),
(421,-1,o),
(325,-30,o),
(241,-30,cs),
(141,-30,o),
(85,23,o),
(81,147,cs),
(60,864,l),
(196,864,l),
(215,154,ls),
(216,126,o),
(232,112,o),
(250,112,cs)
);
}
);
width = 1000;
},
{
anchors = (
{
name = bottom;
pos = (500,0);
},
{
name = top;
pos = (500,864);
}
);
background = {
shapes = (
{
closed = 1;
nodes = (
(759,198,l),
(729,198,l),
(562,482,l),
(461,482,l),
(277,198,l),
(247,198,l),
(247,864,l),
(124,864,l),
(124,0,l),
(291,0,l),
(483,307,l),
(513,307,l),
(697,0,l),
(876,0,l),
(876,864,l),
(759,864,l)
);
}
);
};
hints = (
{
horizontal = 1;
place = (-30, 0);
place = (-30, 0);
type = Stem;
},
{
horizontal = 1;
place = (112, 0);
place = (112, 0);
type = Stem;
}
);
layerId = "75A0A031-BEAD-45F4-8089-5B3FA8FFE7DC";
shapes = (
{
closed = 1;
nodes = (
(264,112,o),
(284,128,o),
(287,151,cs),
(333,532,ls),
(343,618,o),
(407,668,o),
(502,668,cs),
(595,668,o),
(675,618,o),
(682,534,cs),
(713,151,ls),
(715,126,o),
(731,112,o),
(758,112,cs),
(786,112,o),
(804,127,o),
(807,154,cs),
(838,465,ls),
(844,529,o),
(899,599,o),
(1001,599,c),
(1002,599,l),
(1002,449,l),
(1001,449,l),
(972,449,o),
(963,433,o),
(962,410,cs),
(945,147,ls),
(937,23,o),
(876,-30,o),
(763,-30,cs),
(673,-30,o),
(578,1,o),
(569,136,cs),
(548,469,ls),
(546,502,o),
(525,518,o),
(504,518,cs),
(483,518,o),
(462,502,o),
(459,469,cs),
(432,135,ls),
(421,-1,o),
(325,-30,o),
(241,-30,cs),
(141,-30,o),
(85,23,o),
(81,147,cs),
(60,864,l),
(196,864,l),
(215,154,ls),
(216,126,o),
(232,112,o),
(250,112,cs)
);
}
);
width = 1000;
}
);
},
{
export = 0;
glyphname = w.mdw;
lastChange = "2020-04-23 01:02:21 +0000";
layers = (
{
anchors = (
{
name = bottom;
pos = (500,0);
},
{
name = top;
pos = (500,864);
}
);
background = {
shapes = (
{
closed = 1;
nodes = (
(759,198,l),
(729,198,l),
(562,482,l),
(461,482,l),
(277,198,l),
(247,198,l),
(247,864,l),
(124,864,l),
(124,0,l),
(291,0,l),
(483,307,l),
(513,307,l),
(697,0,l),
(876,0,l),
(876,864,l),
(759,864,l)
);
}
);
};
hints = (
{
horizontal = 1;
origin = (0,27);
target = (0,13);
type = Stem;
},
{
horizontal = 1;
origin = (0,44);
target = (0,58);
type = Stem;
}
);
layerId = "7B6A6B4E-EFCA-423F-B1F3-F70C1AFA501E";
shapes = (
{
closed = 1;
nodes = (
(837,465,ls),
(843,529,o),
(898,599,o),
(1000,599,c),
(1001,599,l),
(1001,449,l),
(1000,449,l),
(971,449,o),
(962,433,o),
(961,410,cs),
(944,147,ls),
(936,23,o),
(875,-30,o),
(762,-30,cs),
(672,-30,o),
(580,1,o),
(568,136,cs),
(547,369,ls),
(544,402,o),
(524,418,o),
(503,418,cs),
(482,418,o),
(462,402,o),
(458,369,cs),
(431,135,ls),
(415,0,o),
(324,-30,o),
(240,-30,cs),
(131,-30,o),
(71,24,o),
(61,147,cs),
(39,410,ls),
(37,433,o),
(29,449,o),
(0,449,c),
(-1,449,l),
(-1,599,l),
(0,599,l),
(102,599,o),
(151,529,o),
(158,465,cs),
(194,154,ls),
(197,126,o),
(219,112,o),
(240,112,cs),
(263,112,o),
(282,128,o),
(286,151,cs),
(332,432,ls),
(346,517,o),
(406,568,o),
(501,568,cs),
(594,568,o),
(672,518,o),
(681,434,cs),
(712,151,ls),
(715,126,o),
(730,112,o),
(757,112,cs),
(785,112,o),
(803,127,o),
(806,154,cs)
);
}
);
width = 1000;
},
{
anchors = (
{
name = bottom;
pos = (500,0);
},
{
name = top;
pos = (500,864);
}
);
background = {
shapes = (
{
closed = 1;
nodes = (
(759,198,l),
(729,198,l),
(562,482,l),
(461,482,l),
(277,198,l),
(247,198,l),
(247,864,l),
(124,864,l),
(124,0,l),
(291,0,l),
(483,307,l),
(513,307,l),
(697,0,l),
(876,0,l),
(876,864,l),
(759,864,l)
);
}
);
};
hints = (
{
horizontal = 1;
origin = (0,27);
target = (0,13);
type = Stem;
},
{
horizontal = 1;
origin = (0,44);
target = (0,58);
type = Stem;
}
);
layerId = "75A0A031-BEAD-45F4-8089-5B3FA8FFE7DC";
shapes = (
{
closed = 1;
nodes = (
(837,465,ls),
(843,529,o),
(898,599,o),
(1000,599,c),
(1001,599,l),
(1001,449,l),
(1000,449,l),
(971,449,o),
(962,433,o),
(961,410,cs),
(944,147,ls),
(936,23,o),
(875,-30,o),
(762,-30,cs),
(672,-30,o),
(580,1,o),
(568,136,cs),
(547,369,ls),
(544,402,o),
(524,418,o),
(503,418,cs),
(482,418,o),
(462,402,o),
(458,369,cs),
(431,135,ls),
(415,0,o),
(324,-30,o),
(240,-30,cs),
(131,-30,o),
(71,24,o),
(61,147,cs),
(39,410,ls),
(37,433,o),
(29,449,o),
(0,449,c),
(-1,449,l),
(-1,599,l),
(0,599,l),
(102,599,o),
(151,529,o),
(158,465,cs),
(194,154,ls),
(197,126,o),
(219,112,o),
(240,112,cs),
(263,112,o),
(282,128,o),
(286,151,cs),
(332,432,ls),
(346,517,o),
(406,568,o),
(501,568,cs),
(594,568,o),
(672,518,o),
(681,434,cs),
(712,151,ls),
(715,126,o),
(730,112,o),
(757,112,cs),
(785,112,o),
(803,127,o),
(806,154,cs)
);
}
);
width = 1000;
}
);
},
{
export = 0;
glyphname = w.utw;
lastChange = "2020-04-23 01:02:21 +0000";
layers = (
{
anchors = (
{
name = bottom;
pos = (500,0);
},
{
name = top;
pos = (500,864);
}
);
background = {
shapes = (
{
closed = 1;
nodes = (
(759,198,l),
(729,198,l),
(562,482,l),
(461,482,l),
(277,198,l),
(247,198,l),
(247,864,l),
(124,864,l),
(124,0,l),
(291,0,l),
(483,307,l),
(513,307,l),
(697,0,l),
(876,0,l),
(876,864,l),
(759,864,l)
);
}
);
};
hints = (
{
horizontal = 1;
place = (-30, 0);
place = (-30, 0);
type = Stem;
},
{
horizontal = 1;
place = (112, 0);
place = (112, 0);
type = Stem;
}
);
layerId = "7B6A6B4E-EFCA-423F-B1F3-F70C1AFA501E";
shapes = (
{
closed = 1;
nodes = (
(777,112,o),
(794,126,o),
(794,153,cs),
(806,864,l),
(940,864,l),
(923,138,ls),
(920,23,o),
(862,-30,o),
(762,-30,cs),
(672,-30,o),
(577,1,o),
(568,136,cs),
(547,469,ls),
(545,502,o),
(524,518,o),
(503,518,cs),
(482,518,o),
(461,502,o),
(458,469,cs),
(431,135,ls),
(420,-1,o),
(324,-30,o),
(240,-30,cs),
(131,-30,o),
(71,24,o),
(61,147,cs),
(39,410,ls),
(37,433,o),
(29,449,o),
(-1,449,c),
(-2,449,l),
(-2,599,l),
(-1,599,l),
(102,599,o),
(151,529,o),
(158,465,cs),
(194,154,ls),
(197,126,o),
(219,112,o),
(240,112,cs),
(263,112,o),
(283,128,o),
(286,151,cs),
(332,532,ls),
(342,618,o),
(406,668,o),
(501,668,cs),
(594,668,o),
(674,618,o),
(681,534,cs),
(712,151,ls),
(714,126,o),
(730,112,o),
(753,112,cs)
);
}
);
width = 1000;
},
{
anchors = (
{
name = bottom;
pos = (500,0);
},
{
name = top;
pos = (500,864);
}
);
background = {
shapes = (
{
closed = 1;
nodes = (
(759,198,l),
(729,198,l),
(562,482,l),
(461,482,l),
(277,198,l),
(247,198,l),
(247,864,l),
(124,864,l),
(124,0,l),
(291,0,l),
(483,307,l),
(513,307,l),
(697,0,l),
(876,0,l),
(876,864,l),
(759,864,l)
);
}
);
};
hints = (
{
horizontal = 1;
place = (-30, 0);
place = (-30, 0);
type = Stem;
},
{
horizontal = 1;
place = (112, 0);
place = (112, 0);
type = Stem;
}
);
layerId = "75A0A031-BEAD-45F4-8089-5B3FA8FFE7DC";
shapes = (
{
closed = 1;
nodes = (
(777,112,o),
(794,126,o),
(794,153,cs),
(806,864,l),
(940,864,l),
(923,138,ls),
(920,23,o),
(862,-30,o),
(762,-30,cs),
(672,-30,o),
(577,1,o),
(568,136,cs),
(547,469,ls),
(545,502,o),
(524,518,o),
(503,518,cs),
(482,518,o),
(461,502,o),
(458,469,cs),
(431,135,ls),
(420,-1,o),
(324,-30,o),
(240,-30,cs),
(131,-30,o),
(71,24,o),
(61,147,cs),
(39,410,ls),
(37,433,o),
(29,449,o),
(-1,449,c),
(-2,449,l),
(-2,599,l),
(-1,599,l),
(102,599,o),
(151,529,o),
(158,465,cs),
(194,154,ls),
(197,126,o),
(219,112,o),
(240,112,cs),
(263,112,o),
(283,128,o),
(286,151,cs),
(332,532,ls),
(342,618,o),
(406,668,o),
(501,668,cs),
(594,668,o),
(674,618,o),
(681,534,cs),
(712,151,ls),
(714,126,o),
(730,112,o),
(753,112,cs)
);
}
);
width = 1000;
}
);
},
{
export = 0;
glyphname = n.w;
lastChange = "2020-04-22 19:23:15 +0000";
layers = (
{
anchors = (
{
name = bottom;
pos = (500,0);
},
{
name = top;
pos = (510,900);
}
);
background = {
shapes = (
{
closed = 1;
nodes = (
(670,0,l),
(840,0,l),
(840,470,ls),
(840,770,o),
(757,890,o),
(500,890,cs),
(243,890,o),
(160,770,o),
(160,470,cs),
(160,0,l),
(330,0,l),
(330,470,ls),
(330,628,o),
(380,710,o),
(500,710,cs),
(620,710,o),
(670,628,o),
(670,470,cs)
);
}
);
};
layerId = "7B6A6B4E-EFCA-423F-B1F3-F70C1AFA501E";
shapes = (
{
closed = 1;
nodes = (
(160,864,l),
(160,0,l),
(300,0,l),
(300,864,l)
);
},
{
closed = 1;
nodes = (
(300,650,l),
(398,726,o),
(481,750,o),
(552,750,cs),
(627,750,o),
(700,723,o),
(700,573,cs),
(700,0,l),
(840,0,l),
(840,641,ls),
(840,806,o),
(762,880,o),
(591,880,cs),
(486,880,o),
(391,850,o),
(300,772,c)
);
}
);
width = 1000;
},
{
anchors = (
{
name = bottom;
pos = (500,0);
},
{
name = top;
pos = (510,900);
}
);
background = {
shapes = (
{
closed = 1;
nodes = (
(670,0,l),
(840,0,l),
(840,470,ls),
(840,770,o),
(757,890,o),
(500,890,cs),
(243,890,o),
(160,770,o),
(160,470,cs),
(160,0,l),
(330,0,l),
(330,470,ls),
(330,628,o),
(380,710,o),
(500,710,cs),
(620,710,o),
(670,628,o),
(670,470,cs)
);
}
);
};
layerId = "75A0A031-BEAD-45F4-8089-5B3FA8FFE7DC";
shapes = (
{
closed = 1;
nodes = (
(160,864,l),
(160,0,l),
(300,0,l),
(300,864,l)
);
},
{
closed = 1;
nodes = (
(300,650,l),
(398,726,o),
(481,750,o),
(552,750,cs),
(627,750,o),
(700,723,o),
(700,573,cs),
(700,0,l),
(840,0,l),
(840,641,ls),
(840,806,o),
(762,880,o),
(591,880,cs),
(486,880,o),
(391,850,o),
(300,772,c)
);
}
);
width = 1000;
}
);
},
{
glyphname = ordfeminine;
lastChange = "2020-04-22 18:04:47 +0000";
layers = (
{
layerId = "7B6A6B4E-EFCA-423F-B1F3-F70C1AFA501E";
shapes = (
{
closed = 1;
nodes = (
(150,0,l),
(850,0,l),
(850,135,l),
(150,135,l)
);
},
{
alignment = -1;
pos = (0,280);
ref = a;
}
);
width = 1000;
},
{
layerId = "75A0A031-BEAD-45F4-8089-5B3FA8FFE7DC";
shapes = (
{
closed = 1;
nodes = (
(150,0,l),
(850,0,l),
(850,27,l),
(150,27,l)
);
},
{
alignment = -1;
pos = (0,280);
ref = a;
}
);
width = 1000;
}
);
unicode = 170;
},
{
glyphname = ordmasculine;
kernLeft = o;
kernRight = o;
lastChange = "2020-04-22 18:04:59 +0000";
layers = (
{
layerId = "7B6A6B4E-EFCA-423F-B1F3-F70C1AFA501E";
shapes = (
{
closed = 1;
nodes = (
(150,0,l),
(850,0,l),
(850,135,l),
(150,135,l)
);
},
{
alignment = -1;
pos = (0,280);
ref = o;
}
);
width = 1000;
},
{
layerId = "75A0A031-BEAD-45F4-8089-5B3FA8FFE7DC";
shapes = (
{
closed = 1;
nodes = (
(150,0,l),
(850,0,l),
(850,27,l),
(150,27,l)
);
},
{
alignment = -1;
pos = (0,280);
ref = o;
}
);
width = 1000;
}
);
unicode = 186;
},
{
glyphname = Gamma;
lastChange = "2020-05-01 22:15:23 +0000";
layers = (
{
layerId = "7B6A6B4E-EFCA-423F-B1F3-F70C1AFA501E";
shapes = (
{
closed = 1;
nodes = (
(180,0,l),
(320,0,l),
(320,909,l),
(880,909,l),
(880,1044,l),
(180,1044,l)
);
}
);
width = 1000;
},
{
layerId = "75A0A031-BEAD-45F4-8089-5B3FA8FFE7DC";
shapes = (
{
closed = 1;
nodes = (
(180,0,l),
(210,0,l),
(210,1017,l),
(880,1017,l),
(880,1044,l),
(180,1044,l)
);
}
);
width = 1000;
}
);
unicode = 915;
},
{
glyphname = Delta;
lastChange = "2020-04-28 00:47:59 +0000";
layers = (
{
layerId = "7B6A6B4E-EFCA-423F-B1F3-F70C1AFA501E";
shapes = (
{
closed = 1;
nodes = (
(964,0,o),
(940,74,o),
(902,187,cs),
(636,970,ls),
(594,1093,o),
(404,1094,o),
(362,970,cs),
(96,187,ls),
(58,74,o),
(34,0,o),
(135,0,cs),
(863,0,l)
);
},
{
closed = 1;
nodes = (
(259,135,ls),
(231,135,o),
(232,150,o),
(244,187,cs),
(466,875,ls),
(480,918,o),
(515,918,o),
(529,875,cs),
(751,187,ls),
(763,150,o),
(764,135,o),
(736,135,c)
);
}
);
width = 1000;
},
{
layerId = "75A0A031-BEAD-45F4-8089-5B3FA8FFE7DC";
shapes = (
{
closed = 1;
nodes = (
(940,0,o),
(965,40,o),
(921,157,cs),
(618,965,ls),
(566,1105,o),
(435,1106,o),
(382,965,cs),
(79,157,ls),
(35,40,o),
(60,0,o),
(193,0,cs),
(807,0,ls)
);
},
{
closed = 1;
nodes = (
(190,27,ls),
(94,27,o),
(69,52,o),
(104,144,cs),
(414,965,ls),
(452,1066,o),
(547,1067,o),
(585,965,cs),
(895,144,ls),
(930,52,o),
(906,27,o),
(810,27,cs)
);
}
);
width = 1000;
}
);
unicode = 916;
},
{
glyphname = Theta;
lastChange = "2020-05-01 23:44:54 +0000";
layers = (
{
layerId = "7B6A6B4E-EFCA-423F-B1F3-F70C1AFA501E";
shapes = (
{
closed = 1;
nodes = (
(231,1074,o),
(80,873,o),
(80,590,cs),
(80,470,ls),
(80,216,o),
(231,-20,o),
(500,-20,cs),
(769,-20,o),
(920,216,o),
(920,470,cs),
(920,590,ls),
(920,873,o),
(769,1074,o),
(500,1074,cs)
);
},
{
closed = 1;
nodes = (
(654,939,o),
(780,798,o),
(780,588,cs),
(780,472,ls),
(780,262,o),
(684,115,o),
(500,115,cs),
(316,115,o),
(220,262,o),
(220,472,cs),
(220,588,ls),
(220,798,o),
(316,939,o),
(500,939,cs)
);
},
{
pos = (177,100);
ref = strokelongcomb;
scale = (0.6,1);
}
);
width = 1000;
},
{
layerId = "75A0A031-BEAD-45F4-8089-5B3FA8FFE7DC";
shapes = (
{
closed = 1;
nodes = (
(231,1074,o),
(80,883,o),
(80,600,cs),
(80,460,ls),
(80,206,o),
(231,-20,o),
(500,-20,cs),
(769,-20,o),
(920,206,o),
(920,460,cs),
(920,600,ls),
(920,883,o),
(769,1074,o),
(500,1074,cs)
);
},
{
closed = 1;
nodes = (
(747,1047,o),
(890,853,o),
(890,598,cs),
(890,462,ls),
(890,217,o),
(739,7,o),
(500,7,cs),
(261,7,o),
(110,217,o),
(110,462,cs),
(110,598,ls),
(110,864,o),
(246,1047,o),
(500,1047,cs)
);
},
{
pos = (98,140);
ref = strokelongcomb;
scale = (0.75,1);
}
);
width = 1000;
}
);
unicode = 920;
},
{
glyphname = Lambda;
lastChange = "2020-05-01 22:14:12 +0000";
layers = (
{
layerId = "7B6A6B4E-EFCA-423F-B1F3-F70C1AFA501E";
shapes = (
{
closed = 1;
nodes = (
(192,0,l),
(456,896,ls),
(469,939,o),
(526,939,o),
(539,896,cs),
(808,0,l),
(960,0,l),
(646,991,ls),
(607,1114,o),
(391,1115,o),
(352,991,cs),
(40,0,l)
);
}
);
width = 1000;
},
{
layerId = "75A0A031-BEAD-45F4-8089-5B3FA8FFE7DC";
shapes = (
{
closed = 1;
nodes = (
(72,0,l),
(394,955,ls),
(434,1075,o),
(564,1075,o),
(605,955,cs),
(928,0,l),
(960,0,l),
(638,955,ls),
(584,1115,o),
(416,1116,o),
(362,955,cs),
(40,0,l)
);
}
);
width = 1000;
}
);
unicode = 923;
},
{
glyphname = Xi;
lastChange = "2020-04-23 01:03:53 +0000";
layers = (
{
layerId = "7B6A6B4E-EFCA-423F-B1F3-F70C1AFA501E";
shapes = (
{
closed = 1;
nodes = (
(120,568,l),
(120,433,l),
(880,433,l),
(880,568,l)
);
},
{
closed = 1;
nodes = (
(120,1044,l),
(120,909,l),
(880,909,l),
(880,1044,l)
);
},
{
closed = 1;
nodes = (
(120,0,l),
(880,0,l),
(880,135,l),
(120,135,l)
);
}
);
width = 1000;
},
{
layerId = "75A0A031-BEAD-45F4-8089-5B3FA8FFE7DC";
shapes = (
{
closed = 1;
nodes = (
(120,514,l),
(120,487,l),
(880,487,l),
(880,514,l)
);
},
{
closed = 1;
nodes = (
(120,1044,l),
(120,1017,l),
(880,1017,l),
(880,1044,l)
);
},
{
closed = 1;
nodes = (
(120,0,l),
(880,0,l),
(880,27,l),
(120,27,l)
);
}
);
width = 1000;
}
);
unicode = 926;
},
{
glyphname = Pi;
lastChange = "2020-05-01 22:14:22 +0000";
layers = (
{
layerId = "7B6A6B4E-EFCA-423F-B1F3-F70C1AFA501E";
shapes = (
{
closed = 1;
nodes = (
(230,909,l),
(762,909,l),
(762,1044,l),
(230,1044,l)
);
},
{
closed = 1;
nodes = (
(150,0,l),
(290,0,l),
(290,1044,l),
(150,1044,l)
);
},
{
closed = 1;
nodes = (
(710,0,l),
(850,0,l),
(850,1044,l),
(710,1044,l)
);
}
);
width = 1000;
},
{
layerId = "75A0A031-BEAD-45F4-8089-5B3FA8FFE7DC";
shapes = (
{
closed = 1;
nodes = (
(165,1017,l),
(835,1017,l),
(835,1044,l),
(165,1044,l)
);
},
{
closed = 1;
nodes = (
(150,0,l),
(180,0,l),
(180,1044,l),
(150,1044,l)
);
},
{
closed = 1;
nodes = (
(820,0,l),
(850,0,l),
(850,1044,l),
(820,1044,l)
);
}
);
width = 1000;
}
);
unicode = 928;
},
{
glyphname = Sigma;
lastChange = "2020-05-01 22:45:04 +0000";
layers = (
{
layerId = "7B6A6B4E-EFCA-423F-B1F3-F70C1AFA501E";
shapes = (
{
closed = 1;
nodes = (
(201,1045,ls),
(48,1045,o),
(4,939,o),
(152,802,cs),
(428,546,ls),
(444,531,o),
(445,523,o),
(428,506,cs),
(151,239,ls),
(9,102,o),
(43,0,o),
(203,0,cs),
(841,0,l),
(841,135,l),
(293,132,ls),
(252,132,o),
(261,148,o),
(291,178,cs),
(543,436,ls),
(640,535,o),
(647,533,o),
(543,630,cs),
(289,868,ls),
(258,897,o),
(252,910,o),
(291,910,cs),
(841,910,l),
(841,1045,l)
);
}
);
width = 1000;
},
{
layerId = "75A0A031-BEAD-45F4-8089-5B3FA8FFE7DC";
shapes = (
{
closed = 1;
nodes = (
(178,1044,ls),
(36,1044,o),
(62,975,o),
(194,859,cs),
(518,575,ls),
(559,539,o),
(555,518,o),
(525,491,cs),
(186,188,ls),
(70,84,o),
(29,0,o),
(178,0,cs),
(840,0,l),
(840,30,l),
(184,30,ls),
(66,30,o),
(120,85,o),
(207,165,cs),
(535,465,ls),
(592,518,o),
(596,542,o),
(536,595,cs),
(210,886,ls),
(116,970,o),
(66,1017,o),
(184,1017,cs),
(840,1017,l),
(840,1044,l)
);
}
);
width = 1000;
}
);
unicode = 931;
},
{
glyphname = Phi;
lastChange = "2020-05-01 22:23:29 +0000";
layers = (
{
layerId = "7B6A6B4E-EFCA-423F-B1F3-F70C1AFA501E";
shapes = (
{
closed = 1;
nodes = (
(231,1074,o),
(80,873,o),
(80,590,cs),
(80,470,ls),
(80,216,o),
(231,-20,o),
(500,-20,cs),
(769,-20,o),
(920,216,o),
(920,470,cs),
(920,590,ls),
(920,873,o),
(769,1074,o),
(500,1074,cs)
);
},
{
closed = 1;
nodes = (
(654,939,o),
(780,798,o),
(780,588,cs),
(780,472,ls),
(780,262,o),
(684,115,o),
(500,115,cs),
(316,115,o),
(220,262,o),
(220,472,cs),
(220,588,ls),
(220,798,o),
(316,939,o),
(500,939,cs)
);
},
{
closed = 1;
nodes = (
(570,0,l),
(570,1044,l),
(430,1044,l),
(430,0,l)
);
}
);
width = 1000;
},
{
layerId = "75A0A031-BEAD-45F4-8089-5B3FA8FFE7DC";
shapes = (
{
closed = 1;
nodes = (
(231,1074,o),
(80,870,o),
(80,587,cs),
(80,467,ls),
(80,213,o),
(231,-20,o),
(500,-20,cs),
(779,-20,o),
(920,213,o),
(920,467,cs),
(920,587,ls),
(920,870,o),
(779,1074,o),
(500,1074,cs)
);
},
{
closed = 1;
nodes = (
(754,1047,o),
(890,855,o),
(890,585,cs),
(890,469,ls),
(890,229,o),
(754,7,o),
(500,7,cs),
(246,7,o),
(110,229,o),
(110,469,cs),
(110,585,ls),
(110,855,o),
(246,1047,o),
(500,1047,cs)
);
},
{
closed = 1;
nodes = (
(515,0,l),
(515,1044,l),
(485,1044,l),
(485,0,l)
);
}
);
width = 1000;
}
);
unicode = 934;
},
{
glyphname = Psi;
lastChange = "2020-05-01 22:21:20 +0000";
layers = (
{
layerId = "7B6A6B4E-EFCA-423F-B1F3-F70C1AFA501E";
shapes = (
{
closed = 1;
nodes = (
(570,0,l),
(570,1044,l),
(430,1044,l),
(430,0,l)
);
},
{
closed = 1;
nodes = (
(740,681,ls),
(740,460,o),
(698,404,o),
(500,404,cs),
(306,404,o),
(260,460,o),
(260,681,cs),
(260,1044,l),
(140,1044,l),
(140,673,ls),
(140,360,o),
(239,280,o),
(500,280,cs),
(757,280,o),
(860,360,o),
(860,673,cs),
(860,1044,l),
(740,1044,l)
);
}
);
width = 1000;
},
{
layerId = "75A0A031-BEAD-45F4-8089-5B3FA8FFE7DC";
shapes = (
{
closed = 1;
nodes = (
(515,0,l),
(515,1044,l),
(485,1044,l),
(485,0,l)
);
},
{
closed = 1;
nodes = (
(830,613,ls),
(830,378,o),
(742,307,o),
(500,307,cs),
(252,307,o),
(170,378,o),
(170,613,cs),
(170,1044,l),
(140,1044,l),
(140,613,ls),
(140,360,o),
(239,280,o),
(500,280,cs),
(757,280,o),
(860,360,o),
(860,613,cs),
(860,1044,l),
(830,1044,l)
);
}
);
width = 1000;
}
);
unicode = 936;
},
{
glyphname = Omega;
lastChange = "2020-05-01 22:38:51 +0000";
layers = (
{
anchors = (
{
name = bottom;
pos = (500,0);
},
{
name = topleft;
pos = (210,1044);
}
);
layerId = "7B6A6B4E-EFCA-423F-B1F3-F70C1AFA501E";
shapes = (
{
closed = 1;
nodes = (
(239,1074,o),
(70,938,o),
(70,674,cs),
(70,515,o),
(138,402,o),
(296,323,cs),
(314,314,ls),
(328,307,o),
(335,305,o),
(335,283,cs),
(335,164,ls),
(335,138,o),
(324,135,o),
(300,135,cs),
(90,135,l),
(90,0,l),
(366,0,ls),
(411,0,o),
(455,12,o),
(455,105,cs),
(455,339,ls),
(455,391,o),
(444,396,o),
(404,418,cs),
(358,443,ls),
(290,480,o),
(210,542,o),
(210,674,cs),
(210,817,o),
(307,939,o),
(500,939,cs),
(693,939,o),
(790,817,o),
(790,674,cs),
(790,542,o),
(710,480,o),
(642,443,cs),
(596,418,ls),
(556,396,o),
(545,391,o),
(545,339,cs),
(545,105,ls),
(545,12,o),
(589,0,o),
(634,0,cs),
(910,0,l),
(910,135,l),
(700,135,ls),
(676,135,o),
(665,138,o),
(665,164,cs),
(665,283,ls),
(665,305,o),
(672,307,o),
(686,314,cs),
(704,323,ls),
(862,402,o),
(930,515,o),
(930,674,cs),
(930,938,o),
(761,1074,o),
(500,1074,cs)
);
}
);
width = 1000;
},
{
anchors = (
{
name = bottom;
pos = (500,0);
},
{
name = topleft;
pos = (160,1044);
}
);
layerId = "75A0A031-BEAD-45F4-8089-5B3FA8FFE7DC";
shapes = (
{
closed = 1;
nodes = (
(239,1074,o),
(70,908,o),
(70,682,cs),
(70,485,o),
(198,378,o),
(356,299,cs),
(374,290,ls),
(388,283,o),
(395,281,o),
(395,259,cs),
(395,56,ls),
(395,30,o),
(384,27,o),
(360,27,cs),
(90,27,l),
(90,0,l),
(366,0,ls),
(411,0,o),
(425,10,o),
(425,53,cs),
(425,263,ls),
(425,297,o),
(415,303,o),
(385,318,cs),
(365,328,ls),
(211,405,o),
(103,502,o),
(103,682,cs),
(103,893,o),
(257,1047,o),
(500,1047,cs),
(743,1047,o),
(897,893,o),
(897,682,cs),
(897,502,o),
(789,405,o),
(635,328,cs),
(615,318,ls),
(585,303,o),
(575,297,o),
(575,263,cs),
(575,53,ls),
(575,10,o),
(589,0,o),
(634,0,cs),
(910,0,l),
(910,27,l),
(640,27,ls),
(616,27,o),
(605,30,o),
(605,56,cs),
(605,259,ls),
(605,281,o),
(612,283,o),
(626,290,cs),
(644,299,ls),
(802,378,o),
(930,485,o),
(930,682,cs),
(930,908,o),
(761,1074,o),
(500,1074,cs)
);
}
);
width = 1000;
}
);
unicode = 937;
},
{
glyphname = alpha;
lastChange = "2020-05-02 19:30:29 +0000";
layers = (
{
layerId = "7B6A6B4E-EFCA-423F-B1F3-F70C1AFA501E";
shapes = (
{
closed = 1;
nodes = (
(710,864,l),
(710,746,l),
(677,826,o),
(592,892,o),
(471,892,cs),
(257,892,o),
(90,686,o),
(90,430,cs),
(90,162,o),
(256,-24,o),
(450,-24,cs),
(555,-24,o),
(672,29,o),
(710,152,c),
(710,130,ls),
(710,35,o),
(834,-1,o),
(960,-17,c),
(1010,128,l),
(912,139,o),
(850,151,o),
(850,227,cs),
(850,864,l)
);
},
{
closed = 1;
nodes = (
(235,616,o),
(346,752,o),
(481,752,cs),
(610,752,o),
(710,629,o),
(710,447,cs),
(710,243,o),
(619,116,o),
(478,116,cs),
(338,116,o),
(235,242,o),
(235,430,cs)
);
}
);
width = 1000;
},
{
layerId = "75A0A031-BEAD-45F4-8089-5B3FA8FFE7DC";
shapes = (
{
closed = 1;
nodes = (
(820,864,l),
(820,626,l),
(779,764,o),
(670,892,o),
(481,892,cs),
(247,892,o),
(90,686,o),
(90,430,cs),
(90,162,o),
(246,-24,o),
(470,-24,cs),
(638,-24,o),
(765,82,o),
(820,268,c),
(820,203,ls),
(820,101,o),
(857,-7,o),
(980,-27,c),
(990,0,l),
(872,21,o),
(850,123,o),
(850,209,cs),
(850,864,l)
);
},
{
closed = 1;
nodes = (
(123,666,o),
(266,865,o),
(481,865,cs),
(670,865,o),
(820,712,o),
(820,447,cs),
(820,183,o),
(669,3,o),
(470,3,cs),
(268,3,o),
(123,182,o),
(123,430,cs)
);
}
);
width = 1000;
}
);
unicode = 945;
},
{
glyphname = epsilon;
lastChange = "2020-05-02 19:31:15 +0000";
layers = (
{
layerId = "7B6A6B4E-EFCA-423F-B1F3-F70C1AFA501E";
shapes = (
{
closed = 1;
nodes = (
(742,273,l),
(714,143,o),
(628,105,o),
(510,105,cs),
(407,105,o),
(302,138,o),
(302,238,cs),
(302,377,o),
(512,377,o),
(592,377,cs),
(613,377,l),
(613,512,l),
(592,512,ls),
(491,512,o),
(310,553,o),
(310,654,cs),
(310,728,o),
(407,759,o),
(510,759,cs),
(629,759,o),
(681,707,o),
(715,652,c),
(847,713,l),
(807,806,o),
(699,894,o),
(510,894,cs),
(298,894,o),
(168,800,o),
(168,657,cs),
(168,536,o),
(267,477,o),
(324,455,c),
(324,453,l),
(248,428,o),
(160,373,o),
(160,238,cs),
(160,49,o),
(342,-30,o),
(510,-30,cs),
(697,-30,o),
(853,60,o),
(880,233,c)
);
}
);
width = 1000;
},
{
layerId = "75A0A031-BEAD-45F4-8089-5B3FA8FFE7DC";
shapes = (
{
closed = 1;
nodes = (
(863,217,l),
(839,57,o),
(662,-7,o),
(515,-7,cs),
(381,-7,o),
(170,57,o),
(170,241,cs),
(170,432,o),
(403,432,o),
(575,432,cs),
(606,432,l),
(606,454,l),
(538,454,ls),
(302,454,o),
(207,526,o),
(207,645,cs),
(207,781,o),
(328,867,o),
(516,867,cs),
(689,867,o),
(811,791,o),
(848,719,c),
(875,727,l),
(835,803,o),
(713,890,o),
(516,890,cs),
(320,890,o),
(177,797,o),
(177,645,cs),
(177,528,o),
(262,476,o),
(358,449,c),
(358,446,l),
(232,426,o),
(140,374,o),
(140,241,cs),
(140,32,o),
(373,-30,o),
(515,-30,cs),
(674,-30,o),
(862,43,o),
(890,216,c)
);
}
);
width = 1000;
}
);
unicode = 949;
},
{
glyphname = theta;
lastChange = "2020-04-28 00:23:20 +0000";
layers = (
{
layerId = "7B6A6B4E-EFCA-423F-B1F3-F70C1AFA501E";
shapes = (
{
closed = 1;
nodes = (
(774,-23,o),
(900,191,o),
(900,577,cs),
(900,962,o),
(774,1177,o),
(494,1177,cs),
(214,1177,o),
(100,962,o),
(100,577,cs),
(100,191,o),
(214,-23,o),
(494,-23,cs)
);
},
{
closed = 1;
nodes = (
(687,1047,o),
(770,877,o),
(770,577,cs),
(770,277,o),
(686,107,o),
(496,107,cs),
(304,107,o),
(230,277,o),
(230,577,cs),
(230,877,o),
(304,1047,o),
(496,1047,cs)
);
},
{
pos = (-1,3);
ref = strokeshortcomb;
}
);
width = 1000;
},
{
layerId = "75A0A031-BEAD-45F4-8089-5B3FA8FFE7DC";
shapes = (
{
closed = 1;
nodes = (
(728,-30,o),
(820,187,o),
(820,577,cs),
(820,967,o),
(728,1184,o),
(500,1184,cs),
(273,1184,o),
(180,967,o),
(180,577,cs),
(180,187,o),
(273,-30,o),
(500,-30,cs)
);
},
{
closed = 1;
nodes = (
(707,1157,o),
(790,947,o),
(790,577,cs),
(790,207,o),
(707,-3,o),
(500,-3,cs),
(293,-3,o),
(210,207,o),
(210,577,cs),
(210,947,o),
(293,1157,o),
(500,1157,cs)
);
},
{
pos = (-1,62);
ref = strokeshortcomb;
}
);
width = 1000;
}
);
unicode = 952;
},
{
glyphname = iota;
lastChange = "2020-05-02 19:26:53 +0000";
layers = (
{
anchors = (
{
name = top;
pos = (500,864);
}
);
layerId = "7B6A6B4E-EFCA-423F-B1F3-F70C1AFA501E";
shapes = (
{
closed = 1;
nodes = (
(560,864,l),
(0,864,l),
(0,729,l),
(420,729,l),
(420,373,ls),
(420,161,o),
(612,0,o),
(895,-20,c),
(925,115,l),
(716,131,o),
(560,253,o),
(560,369,cs)
);
}
);
width = 1000;
},
{
anchors = (
{
name = top;
pos = (350,864);
}
);
layerId = "75A0A031-BEAD-45F4-8089-5B3FA8FFE7DC";
shapes = (
{
closed = 1;
nodes = (
(510,864,l),
(0,864,l),
(0,837,l),
(480,837,l),
(480,365,ls),
(480,77,o),
(769,-22,o),
(960,-30,c),
(960,-3,l),
(795,1,o),
(510,95,o),
(510,365,cs)
);
}
);
width = 1000;
}
);
unicode = 953;
},
{
glyphname = kappa;
lastChange = "2020-05-01 23:30:12 +0000";
layers = (
{
layerId = "7B6A6B4E-EFCA-423F-B1F3-F70C1AFA501E";
shapes = (
{
closed = 1;
nodes = (
(217,381,l),
(711,686,ls),
(789,734,o),
(825,731,o),
(878,626,c),
(988,735,l),
(922,867,o),
(844,934,o),
(665,823,cs),
(242,562,l)
);
},
{
closed = 1;
nodes = (
(304,560,l),
(764,0,l),
(950,0,l),
(490,561,l)
);
},
{
closed = 1;
nodes = (
(150,864,l),
(150,0,l),
(290,0,l),
(290,864,l)
);
}
);
width = 1000;
},
{
layerId = "75A0A031-BEAD-45F4-8089-5B3FA8FFE7DC";
shapes = (
{
closed = 1;
nodes = (
(165,492,l),
(747,827,ls),
(858,891,o),
(958,820,o),
(938,702,c),
(968,705,l),
(989,847,o),
(871,933,o),
(723,848,cs),
(140,513,l)
);
},
{
closed = 1;
nodes = (
(271,579,l),
(895,0,l),
(940,0,l),
(315,579,l)
);
},
{
closed = 1;
nodes = (
(140,864,l),
(140,0,l),
(170,0,l),
(170,864,l)
);
}
);
width = 1000;
}
);
unicode = 954;
},
{
glyphname = lambda;
lastChange = "2020-04-28 00:26:03 +0000";
layers = (
{
layerId = "7B6A6B4E-EFCA-423F-B1F3-F70C1AFA501E";
shapes = (
{
closed = 1;
nodes = (
(544,667,l),
(438,767,l),
(30,0,l),
(190,0,l)
);
},
{
closed = 1;
nodes = (
(560,290,o),
(668,34,o),
(921,-52,c),
(1000,78,l),
(764,154,o),
(690,354,o),
(622,518,cs),
(558,672,ls),
(483,852,o),
(376,1108,o),
(123,1194,c),
(44,1074,l),
(290,998,o),
(354,790,o),
(422,624,cs),
(486,470,ls)
);
}
);
width = 1000;
},
{
layerId = "75A0A031-BEAD-45F4-8089-5B3FA8FFE7DC";
shapes = (
{
closed = 1;
nodes = (
(483,864,l),
(449,864,l),
(30,0,l),
(65,0,l)
);
},
{
closed = 1;
nodes = (
(775,116,o),
(832,-13,o),
(980,-25,c),
(990,5,l),
(852,11,o),
(803,129,o),
(700,365,cs),
(532,752,ls),
(428,992,o),
(382,1152,o),
(124,1164,c),
(114,1134,l),
(362,1128,o),
(400,979,o),
(502,745,cs),
(670,358,ls)
);
}
);
width = 1000;
}
);
unicode = 955;
},
{
glyphname = pi;
lastChange = "2020-04-28 01:23:39 +0000";
layers = (
{
layerId = "7B6A6B4E-EFCA-423F-B1F3-F70C1AFA501E";
shapes = (
{
closed = 1;
nodes = (
(70,729,l),
(930,729,l),
(930,864,l),
(70,864,l)
);
},
{
closed = 1;
nodes = (
(620,81,o),
(732,0,o),
(915,-20,c),
(945,115,l),
(836,131,o),
(760,173,o),
(760,269,cs),
(760,864,l),
(620,864,l),
(620,273,ls)
);
},
{
closed = 1;
nodes = (
(370,864,l),
(230,864,l),
(230,0,l),
(370,0,l)
);
}
);
width = 1000;
},
{
layerId = "75A0A031-BEAD-45F4-8089-5B3FA8FFE7DC";
shapes = (
{
closed = 1;
nodes = (
(100,834,l),
(900,834,l),
(900,864,l),
(100,864,l)
);
},
{
closed = 1;
nodes = (
(700,81,o),
(802,0,o),
(945,-20,c),
(955,7,l),
(817,28,o),
(730,103,o),
(730,269,cs),
(730,864,l),
(700,864,l),
(700,273,ls)
);
},
{
closed = 1;
nodes = (
(300,864,l),
(270,864,l),
(270,0,l),
(300,0,l)
);
}
);
width = 1000;
}
);
unicode = 960;
},
{
glyphname = rho;
lastChange = "2020-05-01 22:53:33 +0000";
layers = (
{
layerId = "7B6A6B4E-EFCA-423F-B1F3-F70C1AFA501E";
shapes = (
{
closed = 1;
nodes = (
(290,-288,l),
(290,116,l),
(335,17,o),
(443,-24,o),
(534,-24,cs),
(752,-24,o),
(910,166,o),
(910,433,cs),
(910,687,o),
(774,892,o),
(530,892,cs),
(315,892,o),
(150,738,o),
(150,440,cs),
(150,-288,l)
);
},
{
closed = 1;
nodes = (
(290,637,o),
(397,754,o),
(524,754,cs),
(672,754,o),
(765,596,o),
(765,432,cs),
(765,252,o),
(654,116,o),
(525,116,cs),
(407,116,o),
(290,231,o),
(290,436,cs)
);
}
);
width = 1000;
},
{
hints = (
{
origin = (1,5);
target = (0,7);
type = Stem;
},
{
horizontal = 1;
origin = (0,10);
target = (1,2);
type = Stem;
},
{
horizontal = 1;
origin = (0,4);
target = (1,8);
type = Stem;
}
);
layerId = "75A0A031-BEAD-45F4-8089-5B3FA8FFE7DC";
shapes = (
{
closed = 1;
nodes = (
(180,-288,l),
(180,266,l),
(232,97,o),
(353,-24,o),
(534,-24,cs),
(762,-24,o),
(910,166,o),
(910,433,cs),
(910,687,o),
(776,892,o),
(544,892,cs),
(319,892,o),
(150,704,o),
(150,439,cs),
(150,-288,l)
);
},
{
closed = 1;
nodes = (
(180,677,o),
(337,865,o),
(544,865,cs),
(753,865,o),
(877,666,o),
(877,432,cs),
(877,182,o),
(753,3,o),
(534,3,cs),
(336,3,o),
(180,191,o),
(180,436,cs)
);
}
);
width = 1000;
}
);
unicode = 961;
},
{
glyphname = sigmafinal;
lastChange = "2020-05-01 23:26:27 +0000";
layers = (
{
layerId = "7B6A6B4E-EFCA-423F-B1F3-F70C1AFA501E";
shapes = (
{
closed = 1;
nodes = (
(840,328,o),
(270,311,o),
(270,576,cs),
(270,681,o),
(360,759,o),
(500,759,cs),
(641,759,o),
(757,680,o),
(800,624,c),
(890,744,l),
(851,795,o),
(720,894,o),
(500,894,cs),
(271,894,o),
(130,784,o),
(130,572,cs),
(130,164,o),
(700,240,o),
(700,-67,cs),
(700,-120,o),
(683,-165,o),
(663,-209,c),
(793,-269,l),
(823,-192,o),
(840,-126,o),
(840,-59,cs)
);
}
);
width = 1000;
},
{
layerId = "75A0A031-BEAD-45F4-8089-5B3FA8FFE7DC";
shapes = (
{
closed = 1;
nodes = (
(841,315,o),
(164,241,o),
(164,612,cs),
(164,759,o),
(270,864,o),
(500,864,cs),
(699,864,o),
(828,787,o),
(861,751,c),
(881,771,l),
(852,802,o),
(720,891,o),
(500,891,cs),
(261,891,o),
(131,781,o),
(131,611,cs),
(131,226,o),
(808,281,o),
(808,-80,cs),
(808,-131,o),
(794,-173,o),
(768,-207,c),
(798,-221,l),
(826,-184,o),
(841,-137,o),
(841,-79,cs)
);
}
);
width = 1000;
}
);
unicode = 962;
},
{
export = 0;
glyphname = eta;
lastChange = "2020-12-02 01:36:34 +0000";
layers = (
{
layerId = "7B6A6B4E-EFCA-423F-B1F3-F70C1AFA501E";
width = 1000;
},
{
layerId = "75A0A031-BEAD-45F4-8089-5B3FA8FFE7DC";
shapes = (
{
closed = 1;
nodes = (
(700,81,o),
(802,0,o),
(945,-20,c),
(955,7,l),
(817,28,o),
(730,103,o),
(730,269,cs),
(730,864,l),
(700,864,l),
(700,273,ls)
);
}
);
width = 1000;
}
);
unicode = 951;
},
{
export = 0;
glyphname = mu;
lastChange = "2020-12-02 01:36:34 +0000";
layers = (
{
layerId = "7B6A6B4E-EFCA-423F-B1F3-F70C1AFA501E";
width = 1000;
},
{
layerId = "75A0A031-BEAD-45F4-8089-5B3FA8FFE7DC";
shapes = (
{
closed = 1;
nodes = (
(820,-168,o),
(857,-276,o),
(980,-296,c),
(990,-269,l),
(882,-248,o),
(850,-146,o),
(850,-60,cs),
(850,864,l),
(820,864,l),
(820,-66,ls)
);
},
{
closed = 1;
nodes = (
(150,-288,l),
(180,-288,l),
(180,128,l),
(237,73,o),
(348,-24,o),
(500,-24,cs),
(652,-24,o),
(763,73,o),
(820,137,c),
(820,177,l),
(752,96,o),
(639,3,o),
(500,3,cs),
(361,3,o),
(248,96,o),
(180,167,c),
(180,864,l),
(150,864,l)
);
}
);
width = 1000;
}
);
unicode = 956;
},
{
export = 0;
glyphname = tau;
lastChange = "2020-12-02 01:36:34 +0000";
layers = (
{
layerId = "7B6A6B4E-EFCA-423F-B1F3-F70C1AFA501E";
width = 1000;
},
{
layerId = "75A0A031-BEAD-45F4-8089-5B3FA8FFE7DC";
shapes = (
{
closed = 1;
nodes = (
(100,834,l),
(900,834,l),
(900,864,l),
(100,864,l)
);
},
{
closed = 1;
nodes = (
(480,81,o),
(582,0,o),
(725,-20,c),
(735,7,l),
(597,28,o),
(510,103,o),
(510,269,cs),
(510,864,l),
(480,864,l),
(480,273,ls)
);
}
);
width = 1000;
}
);
unicode = 964;
},
{
glyphname = zero;
lastChange = "2020-04-20 03:45:49 +0000";
layers = (
{
layerId = "7B6A6B4E-EFCA-423F-B1F3-F70C1AFA501E";
shapes = (
{
closed = 1;
nodes = (
(231,1074,o),
(80,873,o),
(80,590,cs),
(80,470,ls),
(80,216,o),
(231,-20,o),
(500,-20,cs),
(769,-20,o),
(920,216,o),
(920,470,cs),
(920,590,ls),
(920,873,o),
(769,1074,o),
(500,1074,cs)
);
},
{
closed = 1;
nodes = (
(654,939,o),
(780,798,o),
(780,588,cs),
(780,472,ls),
(780,262,o),
(684,115,o),
(500,115,cs),
(316,115,o),
(220,262,o),
(220,472,cs),
(220,588,ls),
(220,798,o),
(316,939,o),
(500,939,cs)
);
},
{
closed = 1;
nodes = (
(420,384,o),
(457,337,o),
(500,337,cs),
(543,337,o),
(580,384,o),
(580,439,cs),
(580,615,ls),
(580,670,o),
(543,717,o),
(500,717,cs),
(457,717,o),
(420,670,o),
(420,615,cs),
(420,439,ls)
);
},
{
closed = 1;
nodes = (
(499,528,ls),
(499,529,o),
(499,530,o),
(500,530,cs),
(501,530,o),
(501,529,o),
(501,528,cs),
(501,526,ls),
(501,525,o),
(501,524,o),
(500,524,cs),
(499,524,o),
(499,525,o),
(499,526,cs)
);
}
);
width = 1000;
},
{
layerId = "75A0A031-BEAD-45F4-8089-5B3FA8FFE7DC";
shapes = (
{
closed = 1;
nodes = (
(231,1074,o),
(80,883,o),
(80,600,cs),
(80,460,ls),
(80,206,o),
(231,-20,o),
(500,-20,cs),
(769,-20,o),
(920,206,o),
(920,460,cs),
(920,600,ls),
(920,883,o),
(769,1074,o),
(500,1074,cs)
);
},
{
closed = 1;
nodes = (
(747,1047,o),
(890,853,o),
(890,598,cs),
(890,462,ls),
(890,217,o),
(739,7,o),
(500,7,cs),
(261,7,o),
(110,217,o),
(110,462,cs),
(110,598,ls),
(110,864,o),
(246,1047,o),
(500,1047,cs)
);
},
{
closed = 1;
nodes = (
(410,388,o),
(447,347,o),
(500,347,cs),
(553,347,o),
(590,388,o),
(590,443,cs),
(590,611,ls),
(590,666,o),
(553,707,o),
(500,707,cs),
(447,707,o),
(410,666,o),
(410,611,cs),
(410,443,ls)
);
},
{
closed = 1;
nodes = (
(440,611,ls),
(440,652,o),
(463,679,o),
(500,679,cs),
(537,679,o),
(560,652,o),
(560,611,cs),
(560,443,ls),
(560,402,o),
(537,375,o),
(500,375,cs),
(463,375,o),
(440,402,o),
(440,443,cs)
);
}
);
width = 1000;
}
);
unicode = 48;
},
{
glyphname = one;
lastChange = "2020-04-19 04:22:49 +0000";
layers = (
{
layerId = "7B6A6B4E-EFCA-423F-B1F3-F70C1AFA501E";
shapes = (
{
closed = 1;
nodes = (
(422,861,ls),
(467,895,o),
(464,854,o),
(464,839,cs),
(464,135,l),
(126,135,l),
(126,0,l),
(906,0,l),
(906,135,l),
(604,135,l),
(604,989,ls),
(604,1085,o),
(542,1109,o),
(407,1006,cs),
(122,790,l),
(195,690,l)
);
}
);
width = 1000;
},
{
layerId = "75A0A031-BEAD-45F4-8089-5B3FA8FFE7DC";
shapes = (
{
closed = 1;
nodes = (
(459,1007,ls),
(521,1054,o),
(519,1038,o),
(519,989,cs),
(519,27,l),
(126,27,l),
(126,0,l),
(906,0,l),
(906,27,l),
(549,27,l),
(549,1008,ls),
(549,1091,o),
(527,1097,o),
(440,1031,cs),
(122,790,l),
(143,769,l)
);
}
);
width = 1000;
}
);
unicode = 49;
},
{
glyphname = two;
lastChange = "2020-04-19 07:32:45 +0000";
layers = (
{
layerId = "7B6A6B4E-EFCA-423F-B1F3-F70C1AFA501E";
shapes = (
{
closed = 1;
nodes = (
(606,929,o),
(706,877,o),
(706,770,cs),
(706,658,o),
(596,563,o),
(408,397,cs),
(167,183,ls),
(19,51,o),
(96,0,o),
(141,0,cs),
(864,0,l),
(864,135,l),
(364,135,ls),
(341,135,o),
(345,160,o),
(383,193,cs),
(512,306,ls),
(708,477,o),
(850,603,o),
(850,770,cs),
(850,943,o),
(694,1064,o),
(500,1064,cs),
(315,1064,o),
(170,960,o),
(106,820,c),
(220,750,l),
(289,864,o),
(383,929,o),
(502,929,cs)
);
},
{
closed = 1;
nodes = (
(724,60,l),
(864,60,l),
(864,260,l),
(724,260,l)
);
}
);
width = 1000;
},
{
layerId = "75A0A031-BEAD-45F4-8089-5B3FA8FFE7DC";
shapes = (
{
closed = 1;
nodes = (
(675,1037,o),
(817,935,o),
(817,789,cs),
(817,638,o),
(669,547,o),
(468,397,cs),
(167,173,ls),
(-54,9,o),
(54,0,o),
(151,0,cs),
(864,0,l),
(864,27,l),
(152,27,ls),
(70,27,o),
(22,25,o),
(184,147,cs),
(496,380,ls),
(665,506,o),
(850,621,o),
(850,789,cs),
(850,943,o),
(694,1064,o),
(500,1064,cs),
(315,1064,o),
(170,960,o),
(106,820,c),
(130,807,l),
(193,936,o),
(333,1037,o),
(502,1037,cs)
);
},
{
closed = 1;
nodes = (
(834,10,l),
(864,10,l),
(864,260,l),
(834,260,l)
);
}
);
width = 1000;
}
);
unicode = 50;
},
{
glyphname = three;
lastChange = "2020-04-27 04:05:03 +0000";
layers = (
{
layerId = "7B6A6B4E-EFCA-423F-B1F3-F70C1AFA501E";
shapes = (
{
closed = 1;
nodes = (
(101,77,o),
(276,-30,o),
(480,-30,cs),
(674,-30,o),
(890,64,o),
(890,292,cs),
(890,450,o),
(799,512,o),
(714,542,c),
(714,545,l),
(777,571,o),
(880,641,o),
(880,780,cs),
(880,953,o),
(723,1064,o),
(489,1064,cs),
(274,1064,o),
(140,960,o),
(96,850,c),
(208,766,l),
(258,880,o),
(352,929,o),
(491,929,cs),
(647,929,o),
(735,867,o),
(735,780,cs),
(735,666,o),
(583,597,o),
(455,597,cs),
(380,597,l),
(380,467,l),
(415,467,ls),
(505,467,o),
(745,452,o),
(745,292,cs),
(745,169,o),
(601,106,o),
(480,106,cs),
(354,106,o),
(233,175,o),
(202,329,c),
(70,282,l)
);
}
);
width = 1000;
},
{
layerId = "75A0A031-BEAD-45F4-8089-5B3FA8FFE7DC";
shapes = (
{
closed = 1;
nodes = (
(101,57,o),
(306,-30,o),
(480,-30,cs),
(636,-30,o),
(890,44,o),
(890,292,cs),
(890,450,o),
(789,512,o),
(651,536,c),
(651,539,l),
(757,571,o),
(850,633,o),
(850,772,cs),
(850,953,o),
(693,1064,o),
(479,1064,cs),
(264,1064,o),
(130,960,o),
(86,870,c),
(116,860,l),
(157,946,o),
(290,1037,o),
(479,1037,cs),
(684,1037,o),
(817,934,o),
(817,772,cs),
(817,631,o),
(713,546,o),
(455,546,cs),
(380,546,l),
(380,519,l),
(415,519,ls),
(603,519,o),
(857,519,o),
(857,292,cs),
(857,74,o),
(626,-3,o),
(480,-3,cs),
(319,-3,o),
(126,74,o),
(100,264,c),
(70,262,l)
);
}
);
width = 1000;
}
);
unicode = 51;
},
{
glyphname = four;
lastChange = "2020-04-19 07:24:57 +0000";
layers = (
{
layerId = "7B6A6B4E-EFCA-423F-B1F3-F70C1AFA501E";
shapes = (
{
closed = 1;
nodes = (
(970,283,l),
(970,418,l),
(275,418,ls),
(258,418,o),
(240,425,o),
(270,458,cs),
(574,796,ls),
(592,816,o),
(603,814,o),
(603,800,cs),
(605,0,l),
(745,0,l),
(745,1021,ls),
(745,1091,o),
(642,1082,o),
(589,1021,cs),
(62,418,ls),
(-18,326,o),
(30,283,o),
(77,283,cs)
);
}
);
width = 1000;
},
{
layerId = "75A0A031-BEAD-45F4-8089-5B3FA8FFE7DC";
shapes = (
{
closed = 1;
nodes = (
(970,337,l),
(970,364,l),
(89,364,ls),
(72,364,o),
(54,364,o),
(91,406,cs),
(609,1000,ls),
(650,1047,o),
(665,1040,o),
(665,1004,cs),
(665,0,l),
(695,0,l),
(695,1021,ls),
(695,1085,o),
(642,1082,o),
(589,1021,cs),
(57,412,ls),
(1,348,o),
(30,337,o),
(77,337,cs)
);
}
);
width = 1000;
}
);
unicode = 52;
},
{
glyphname = five;
lastChange = "2020-04-19 07:28:10 +0000";
layers = (
{
background = {
shapes = (
{
closed = 1;
nodes = (
(201,465,l),
(358,465,l),
(637,552,l),
(710,552,l),
(710,172,l),
(322,39,l),
(322,217,l),
(174,217,l),
(174,-24,l),
(588,-24,l),
(854,144,l),
(854,682,l),
(647,682,l),
(349,594,l),
(345,594,l),
(345,934,l),
(811,932,l),
(813,1044,l),
(201,1044,l)
);
}
);
};
layerId = "7B6A6B4E-EFCA-423F-B1F3-F70C1AFA501E";
shapes = (
{
closed = 1;
nodes = (
(130,183,l),
(190,52,o),
(338,-24,o),
(505,-24,cs),
(750,-24,o),
(880,141,o),
(880,335,cs),
(880,543,o),
(736,687,o),
(531,687,cs),
(438,687,o),
(355,655,o),
(314,590,c),
(310,590,l),
(310,911,l),
(830,909,l),
(830,1044,l),
(170,1044,l),
(170,435,l),
(310,435,l),
(328,504,o),
(414,552,o),
(514,552,cs),
(651,552,o),
(738,468,o),
(738,335,cs),
(738,196,o),
(641,111,o),
(508,111,cs),
(411,111,o),
(297,157,o),
(251,254,c)
);
}
);
width = 1000;
},
{
background = {
shapes = (
{
closed = 1;
nodes = (
(201,465,l),
(358,465,l),
(637,552,l),
(710,552,l),
(710,172,l),
(322,39,l),
(322,217,l),
(174,217,l),
(174,-24,l),
(588,-24,l),
(854,144,l),
(854,682,l),
(647,682,l),
(349,594,l),
(345,594,l),
(345,934,l),
(811,932,l),
(813,1044,l),
(201,1044,l)
);
}
);
};
layerId = "75A0A031-BEAD-45F4-8089-5B3FA8FFE7DC";
shapes = (
{
closed = 1;
nodes = (
(130,183,l),
(190,52,o),
(338,-24,o),
(505,-24,cs),
(750,-24,o),
(880,141,o),
(880,335,cs),
(880,543,o),
(736,687,o),
(514,687,cs),
(378,687,o),
(255,635,o),
(204,492,c),
(200,492,l),
(200,1017,l),
(830,1015,l),
(830,1044,l),
(170,1044,l),
(170,435,l),
(210,435,l),
(252,598,o),
(374,660,o),
(514,660,cs),
(721,660,o),
(847,528,o),
(847,335,cs),
(847,156,o),
(731,4,o),
(508,3,cs),
(351,2,o),
(208,77,o),
(154,194,c)
);
}
);
width = 1000;
}
);
unicode = 53;
},
{
glyphname = six;
lastChange = "2020-04-19 07:43:11 +0000";
layers = (
{
layerId = "7B6A6B4E-EFCA-423F-B1F3-F70C1AFA501E";
shapes = (
{
closed = 1;
nodes = (
(140,156,o),
(314,-10,o),
(530,-10,cs),
(757,-10,o),
(910,170,o),
(910,372,cs),
(910,582,o),
(770,724,o),
(542,724,cs),
(435,724,o),
(319,690,o),
(280,602,c),
(280,649,ls),
(280,808,o),
(380,935,o),
(580,935,cs),
(670,935,o),
(759,909,o),
(825,858,c),
(894,984,l),
(793,1047,o),
(678,1073,o),
(576,1073,cs),
(272,1073,o),
(140,839,o),
(140,645,cs),
(140,368,ls)
);
},
{
closed = 1;
nodes = (
(384,125,o),
(280,238,o),
(280,368,cs),
(280,512,o),
(407,589,o),
(533,589,cs),
(672,589,o),
(768,502,o),
(768,370,cs),
(768,236,o),
(676,125,o),
(530,125,cs)
);
}
);
width = 1000;
},
{
layerId = "75A0A031-BEAD-45F4-8089-5B3FA8FFE7DC";
shapes = (
{
closed = 1;
nodes = (
(140,156,o),
(314,-10,o),
(530,-10,cs),
(757,-10,o),
(910,170,o),
(910,372,cs),
(910,582,o),
(750,724,o),
(537,724,cs),
(435,724,o),
(259,690,o),
(170,512,c),
(170,649,ls),
(170,808,o),
(300,1046,o),
(580,1046,cs),
(670,1046,o),
(795,1021,o),
(878,962,c),
(894,984,l),
(793,1047,o),
(678,1073,o),
(576,1073,cs),
(272,1073,o),
(140,839,o),
(140,645,cs),
(140,368,ls)
);
},
{
closed = 1;
nodes = (
(316,17,o),
(170,184,o),
(170,373,cs),
(170,582,o),
(354,697,o),
(537,697,cs),
(738,697,o),
(877,564,o),
(877,372,cs),
(877,177,o),
(740,17,o),
(530,17,cs)
);
}
);
width = 1000;
}
);
unicode = 54;
},
{
glyphname = seven;
lastChange = "2020-04-19 07:34:48 +0000";
layers = (
{
layerId = "7B6A6B4E-EFCA-423F-B1F3-F70C1AFA501E";
shapes = (
{
closed = 1;
nodes = (
(418,0,l),
(435,379,o),
(671,660,o),
(871,869,cs),
(988,991,o),
(948,1044,o),
(884,1044,cs),
(110,1044,l),
(110,909,l),
(669,909,ls),
(702,909,o),
(729,905,o),
(686,860,cs),
(503,670,o),
(292,375,o),
(278,0,c)
);
},
{
closed = 1;
nodes = (
(110,804,l),
(250,804,l),
(250,984,l),
(110,984,l)
);
}
);
width = 1000;
},
{
layerId = "75A0A031-BEAD-45F4-8089-5B3FA8FFE7DC";
shapes = (
{
closed = 1;
nodes = (
(418,0,l),
(435,379,o),
(671,679,o),
(928,968,cs),
(991,1039,o),
(938,1044,o),
(904,1044,cs),
(110,1044,l),
(110,1017,l),
(899,1017,ls),
(932,1017,o),
(940,1015,o),
(896,968,cs),
(714,777,o),
(397,405,o),
(388,0,c)
);
},
{
closed = 1;
nodes = (
(110,804,l),
(140,804,l),
(140,1024,l),
(110,1024,l)
);
}
);
width = 1000;
}
);
unicode = 55;
},
{
glyphname = eight;
lastChange = "2020-04-19 07:40:59 +0000";
layers = (
{
background = {
shapes = (
{
closed = 1;
nodes = (
(684,-30,o),
(890,73,o),
(890,258,cs),
(890,366,o),
(792,430,o),
(717,476,cs),
(618,536,l),
(618,548,l),
(733,618,ls),
(778,646,o),
(869,702,o),
(869,829,cs),
(869,990,o),
(717,1074,o),
(500,1074,cs),
(287,1074,o),
(109,988,o),
(109,839,cs),
(109,736,o),
(193,682,o),
(284,623,cs),
(382,560,l),
(382,548,l),
(256,474,ls),
(183,431,o),
(110,354,o),
(110,250,cs),
(110,91,o),
(307,-30,o),
(500,-30,cs)
);
},
{
closed = 1;
nodes = (
(244,323,o),
(304,372,o),
(349,400,cs),
(477,478,l),
(635,388,ls),
(683,361,o),
(756,321,o),
(756,261,cs),
(756,148,o),
(632,88,o),
(500,88,cs),
(368,88,o),
(244,146,o),
(244,260,cs)
);
},
{
closed = 1;
nodes = (
(243,927,o),
(368,956,o),
(499,956,cs),
(622,956,o),
(735,927,o),
(735,829,cs),
(735,757,o),
(678,718,o),
(649,699,cs),
(526,616,l),
(371,713,ls),
(296,761,o),
(243,795,o),
(243,847,cs)
);
}
);
};
hints = (
{
horizontal = 1;
origin = (1,2);
target = (2,11);
type = Stem;
},
{
horizontal = 1;
origin = (0,2);
target = (1,8);
type = Stem;
},
{
horizontal = 1;
origin = (0,14);
target = (2,5);
type = Stem;
}
);
layerId = "7B6A6B4E-EFCA-423F-B1F3-F70C1AFA501E";
shapes = (
{
closed = 1;
nodes = (
(120,75,o),
(251,-20,o),
(500,-20,cs),
(749,-20,o),
(880,75,o),
(880,273,cs),
(880,424,o),
(798,520,o),
(662,533,c),
(802,544,o),
(860,641,o),
(860,773,cs),
(860,981,o),
(729,1069,o),
(500,1069,cs),
(271,1069,o),
(140,981,o),
(140,773,cs),
(140,641,o),
(198,543,o),
(338,533,c),
(199,521,o),
(120,432,o),
(120,273,cs)
);
},
{
closed = 1;
nodes = (
(260,401,o),
(348,460,o),
(500,460,cs),
(649,460,o),
(740,403,o),
(740,288,cs),
(740,172,o),
(650,115,o),
(500,115,cs),
(350,115,o),
(260,172,o),
(260,288,cs)
);
},
{
closed = 1;
nodes = (
(358,590,o),
(280,643,o),
(280,763,cs),
(280,879,o),
(350,937,o),
(500,937,cs),
(650,937,o),
(720,879,o),
(720,763,cs),
(720,645,o),
(645,590,o),
(500,590,cs)
);
}
);
width = 1000;
},
{
background = {
shapes = (
{
closed = 1;
nodes = (
(684,-30,o),
(890,73,o),
(890,258,cs),
(890,366,o),
(792,430,o),
(717,476,cs),
(618,536,l),
(618,548,l),
(733,618,ls),
(778,646,o),
(869,702,o),
(869,829,cs),
(869,990,o),
(717,1074,o),
(500,1074,cs),
(287,1074,o),
(109,988,o),
(109,839,cs),
(109,736,o),
(193,682,o),
(284,623,cs),
(382,560,l),
(382,548,l),
(256,474,ls),
(183,431,o),
(110,354,o),
(110,250,cs),
(110,91,o),
(307,-30,o),
(500,-30,cs)
);
},
{
closed = 1;
nodes = (
(244,323,o),
(304,372,o),
(349,400,cs),
(477,478,l),
(635,388,ls),
(683,361,o),
(756,321,o),
(756,261,cs),
(756,148,o),
(632,88,o),
(500,88,cs),
(368,88,o),
(244,146,o),
(244,260,cs)
);
},
{
closed = 1;
nodes = (
(243,927,o),
(368,956,o),
(499,956,cs),
(622,956,o),
(735,927,o),
(735,829,cs),
(735,757,o),
(678,718,o),
(649,699,cs),
(526,616,l),
(371,713,ls),
(296,761,o),
(243,795,o),
(243,847,cs)
);
}
);
};
hints = (
{
horizontal = 1;
origin = (1,2);
target = (2,11);
type = Stem;
},
{
horizontal = 1;
origin = (0,2);
target = (1,8);
type = Stem;
},
{
horizontal = 1;
origin = (2,5);
target = (0,14);
type = Stem;
}
);
layerId = "75A0A031-BEAD-45F4-8089-5B3FA8FFE7DC";
shapes = (
{
closed = 1;
nodes = (
(120,75,o),
(261,-20,o),
(500,-20,cs),
(739,-20,o),
(880,75,o),
(880,263,cs),
(880,424,o),
(758,510,o),
(632,531,c),
(772,554,o),
(860,641,o),
(860,789,cs),
(860,971,o),
(729,1069,o),
(500,1069,cs),
(271,1069,o),
(140,971,o),
(140,789,cs),
(140,641,o),
(228,553,o),
(368,531,c),
(239,511,o),
(120,432,o),
(120,263,cs)
);
},
{
closed = 1;
nodes = (
(150,434,o),
(278,520,o),
(500,520,cs),
(717,520,o),
(850,437,o),
(850,263,cs),
(850,88,o),
(719,3,o),
(500,3,cs),
(281,3,o),
(150,88,o),
(150,263,cs)
);
},
{
closed = 1;
nodes = (
(300,544,o),
(170,613,o),
(170,789,cs),
(170,958,o),
(289,1047,o),
(500,1047,cs),
(711,1047,o),
(830,958,o),
(830,789,cs),
(830,616,o),
(704,544,o),
(500,544,cs)
);
}
);
width = 1000;
}
);
unicode = 56;
},
{
glyphname = nine;
lastChange = "2020-04-19 04:16:10 +0000";
layers = (
{
layerId = "7B6A6B4E-EFCA-423F-B1F3-F70C1AFA501E";
shapes = (
{
closed = 1;
nodes = (
(191,5,l),
(258,-11,o),
(314,-19,o),
(382,-19,cs),
(650,-19,o),
(870,125,o),
(870,409,cs),
(870,703,ls),
(870,915,o),
(686,1064,o),
(480,1064,cs),
(243,1064,o),
(100,874,o),
(100,666,cs),
(100,462,o),
(241,320,o),
(464,320,cs),
(576,320,o),
(691,364,o),
(730,452,c),
(730,405,ls),
(730,196,o),
(542,119,o),
(381,119,cs),
(332,119,o),
(282,127,o),
(228,140,c)
);
},
{
closed = 1;
nodes = (
(616,929,o),
(730,833,o),
(730,703,cs),
(730,539,o),
(604,455,o),
(473,455,cs),
(339,455,o),
(242,542,o),
(242,680,cs),
(242,808,o),
(324,929,o),
(480,929,cs)
);
}
);
width = 1000;
},
{
layerId = "75A0A031-BEAD-45F4-8089-5B3FA8FFE7DC";
shapes = (
{
closed = 1;
nodes = (
(191,5,l),
(258,-11,o),
(314,-19,o),
(382,-19,cs),
(650,-19,o),
(870,125,o),
(870,409,cs),
(870,703,ls),
(870,915,o),
(686,1064,o),
(480,1064,cs),
(243,1064,o),
(100,874,o),
(100,666,cs),
(100,462,o),
(241,320,o),
(464,320,cs),
(678,320,o),
(806,450,o),
(840,567,c),
(840,405,ls),
(840,137,o),
(641,11,o),
(382,11,cs),
(330,11,o),
(262,16,o),
(199,38,c)
);
},
{
closed = 1;
nodes = (
(672,1037,o),
(840,900,o),
(840,703,cs),
(840,510,o),
(692,347,o),
(464,347,cs),
(255,347,o),
(133,480,o),
(133,666,cs),
(133,864,o),
(258,1037,o),
(480,1037,cs)
);
}
);
width = 1000;
}
);
unicode = 57;
},
{
export = 0;
glyphname = zero.dnom;
lastChange = "2020-04-23 01:02:42 +0000";
layers = (
{
layerId = "7B6A6B4E-EFCA-423F-B1F3-F70C1AFA501E";
shapes = (
{
closed = 1;
nodes = (
(120,532,l),
(120,212,l),
(275,-24,l),
(725,-24,l),
(880,212,l),
(880,532,l),
(725,768,l),
(275,768,l)
);
},
{
closed = 1;
nodes = (
(740,487,l),
(740,257,l),
(615,82,l),
(385,82,l),
(260,257,l),
(260,487,l),
(385,662,l),
(615,662,l)
);
},
{
closed = 1;
nodes = (
(245,92,l),
(365,92,l),
(755,662,l),
(635,662,l)
);
}
);
width = 1000;
},
{
layerId = "75A0A031-BEAD-45F4-8089-5B3FA8FFE7DC";
shapes = (
{
closed = 1;
nodes = (
(120,532,l),
(120,212,l),
(275,-24,l),
(725,-24,l),
(880,212,l),
(880,532,l),
(725,768,l),
(275,768,l)
);
},
{
closed = 1;
nodes = (
(740,487,l),
(740,257,l),
(615,82,l),
(385,82,l),
(260,257,l),
(260,487,l),
(385,662,l),
(615,662,l)
);
},
{
closed = 1;
nodes = (
(245,92,l),
(365,92,l),
(755,662,l),
(635,662,l)
);
}
);
width = 1000;
}
);
},
{
export = 0;
glyphname = one.dnom;
lastChange = "2020-04-23 01:02:42 +0000";
layers = (
{
layerId = "7B6A6B4E-EFCA-423F-B1F3-F70C1AFA501E";
shapes = (
{
closed = 1;
nodes = (
(460,619,l),
(460,122,l),
(132,122,l),
(120,0,l),
(900,0,l),
(912,122,l),
(608,122,l),
(608,758,l),
(436,758,l),
(122,520,l),
(122,365,l)
);
}
);
width = 1000;
},
{
layerId = "75A0A031-BEAD-45F4-8089-5B3FA8FFE7DC";
shapes = (
{
closed = 1;
nodes = (
(460,619,l),
(460,122,l),
(132,122,l),
(120,0,l),
(900,0,l),
(912,122,l),
(608,122,l),
(608,758,l),
(436,758,l),
(122,520,l),
(122,365,l)
);
}
);
width = 1000;
}
);
},
{
export = 0;
glyphname = two.dnom;
lastChange = "2020-04-23 01:02:42 +0000";
layers = (
{
layerId = "7B6A6B4E-EFCA-423F-B1F3-F70C1AFA501E";
shapes = (
{
closed = 1;
nodes = (
(308,524,l),
(352,643,l),
(633,648,l),
(701,559,l),
(465,412,l),
(142,268,l),
(142,0,l),
(864,0,l),
(864,112,l),
(267,112,l),
(267,176,l),
(544,305,l),
(893,523,l),
(753,756,l),
(240,756,l),
(174,524,l)
);
},
{
closed = 1;
nodes = (
(880,238,l),
(758,238,l),
(758,0,l),
(880,0,l)
);
}
);
width = 1000;
},
{
layerId = "75A0A031-BEAD-45F4-8089-5B3FA8FFE7DC";
shapes = (
{
closed = 1;
nodes = (
(308,524,l),
(352,643,l),
(633,648,l),
(701,559,l),
(465,412,l),
(142,268,l),
(142,0,l),
(864,0,l),
(864,112,l),
(267,112,l),
(267,176,l),
(544,305,l),
(893,523,l),
(753,756,l),
(240,756,l),
(174,524,l)
);
},
{
closed = 1;
nodes = (
(880,238,l),
(758,238,l),
(758,0,l),
(880,0,l)
);
}
);
width = 1000;
}
);
},
{
export = 0;
glyphname = three.dnom;
lastChange = "2020-04-23 01:02:42 +0000";
layers = (
{
layerId = "7B6A6B4E-EFCA-423F-B1F3-F70C1AFA501E";
shapes = (
{
closed = 1;
nodes = (
(301,524,l),
(349,638,l),
(523,638,l),
(718,635,l),
(718,526,l),
(475,429,l),
(397,429,l),
(404,306,l),
(475,306,l),
(730,251,l),
(730,131,l),
(595,118,l),
(306,118,l),
(306,218,l),
(175,218,l),
(175,0,l),
(668,0,l),
(880,22,l),
(880,348,l),
(630,376,l),
(630,379,l),
(863,456,l),
(862,742,l),
(563,756,l),
(250,756,l),
(167,524,l)
);
}
);
width = 1000;
},
{
layerId = "75A0A031-BEAD-45F4-8089-5B3FA8FFE7DC";
shapes = (
{
closed = 1;
nodes = (
(301,524,l),
(349,638,l),
(523,638,l),
(718,635,l),
(718,526,l),
(475,429,l),
(397,429,l),
(404,306,l),
(475,306,l),
(730,251,l),
(730,131,l),
(595,118,l),
(306,118,l),
(306,218,l),
(175,218,l),
(175,0,l),
(668,0,l),
(880,22,l),
(880,348,l),
(630,376,l),
(630,379,l),
(863,456,l),
(862,742,l),
(563,756,l),
(250,756,l),
(167,524,l)
);
}
);
width = 1000;
}
);
},
{
export = 0;
glyphname = four.dnom;
lastChange = "2020-04-23 01:02:42 +0000";
layers = (
{
layerId = "7B6A6B4E-EFCA-423F-B1F3-F70C1AFA501E";
shapes = (
{
closed = 1;
nodes = (
(606,0,l),
(730,0,l),
(730,754,l),
(606,754,l)
);
},
{
closed = 1;
nodes = (
(130,219,l),
(130,183,l),
(960,183,l),
(970,301,l),
(262,301,l),
(303,754,l),
(180,754,l)
);
}
);
width = 1000;
},
{
layerId = "75A0A031-BEAD-45F4-8089-5B3FA8FFE7DC";
shapes = (
{
closed = 1;
nodes = (
(606,0,l),
(730,0,l),
(730,754,l),
(606,754,l)
);
},
{
closed = 1;
nodes = (
(130,219,l),
(130,183,l),
(960,183,l),
(970,301,l),
(262,301,l),
(303,754,l),
(180,754,l)
);
}
);
width = 1000;
}
);
},
{
export = 0;
glyphname = five.dnom;
lastChange = "2020-04-23 01:02:42 +0000";
layers = (
{
layerId = "7B6A6B4E-EFCA-423F-B1F3-F70C1AFA501E";
shapes = (
{
closed = 1;
nodes = (
(201,305,l),
(338,305,l),
(637,364,l),
(710,364,l),
(710,172,l),
(322,39,l),
(322,167,l),
(174,167,l),
(174,-24,l),
(588,-24,l),
(854,144,l),
(854,482,l),
(647,482,l),
(349,434,l),
(345,434,l),
(345,626,l),
(811,624,l),
(813,744,l),
(201,744,l)
);
}
);
width = 1000;
},
{
layerId = "75A0A031-BEAD-45F4-8089-5B3FA8FFE7DC";
shapes = (
{
closed = 1;
nodes = (
(201,305,l),
(338,305,l),
(637,364,l),
(710,364,l),
(710,172,l),
(322,39,l),
(322,167,l),
(174,167,l),
(174,-24,l),
(588,-24,l),
(854,144,l),
(854,482,l),
(647,482,l),
(349,434,l),
(345,434,l),
(345,626,l),
(811,624,l),
(813,744,l),
(201,744,l)
);
}
);
width = 1000;
}
);
},
{
export = 0;
glyphname = six.dnom;
lastChange = "2020-04-23 01:02:42 +0000";
layers = (
{
layerId = "7B6A6B4E-EFCA-423F-B1F3-F70C1AFA501E";
shapes = (
{
closed = 1;
nodes = (
(130,224,l),
(150,73,l),
(282,-14,l),
(616,-14,l),
(878,84,l),
(878,337,l),
(740,448,l),
(403,448,l),
(287,344,l),
(283,534,l),
(517,656,l),
(821,546,l),
(873,696,l),
(714,756,l),
(462,756,l),
(163,612,l)
);
},
{
closed = 1;
nodes = (
(465,330,l),
(650,330,l),
(724,284,l),
(724,142,l),
(511,52,l),
(280,138,l),
(280,165,l)
);
}
);
width = 1000;
},
{
layerId = "75A0A031-BEAD-45F4-8089-5B3FA8FFE7DC";
shapes = (
{
closed = 1;
nodes = (
(130,224,l),
(150,73,l),
(282,-14,l),
(616,-14,l),
(878,84,l),
(878,337,l),
(740,448,l),
(403,448,l),
(287,344,l),
(283,534,l),
(517,656,l),
(821,546,l),
(873,696,l),
(714,756,l),
(462,756,l),
(163,612,l)
);
},
{
closed = 1;
nodes = (
(465,330,l),
(650,330,l),
(724,284,l),
(724,142,l),
(511,52,l),
(280,138,l),
(280,165,l)
);
}
);
width = 1000;
}
);
},
{
export = 0;
glyphname = seven.dnom;
lastChange = "2020-04-23 01:02:42 +0000";
layers = (
{
layerId = "7B6A6B4E-EFCA-423F-B1F3-F70C1AFA501E";
shapes = (
{
closed = 1;
nodes = (
(766,626,l),
(766,529,l),
(569,253,l),
(361,0,l),
(549,0,l),
(690,208,l),
(906,514,l),
(906,744,l),
(92,744,l),
(124,626,l)
);
},
{
closed = 1;
nodes = (
(87,426,l),
(227,426,l),
(227,744,l),
(87,744,l)
);
}
);
width = 1000;
},
{
layerId = "75A0A031-BEAD-45F4-8089-5B3FA8FFE7DC";
shapes = (
{
closed = 1;
nodes = (
(766,626,l),
(766,529,l),
(569,253,l),
(361,0,l),
(549,0,l),
(690,208,l),
(906,514,l),
(906,744,l),
(92,744,l),
(124,626,l)
);
},
{
closed = 1;
nodes = (
(87,426,l),
(227,426,l),
(227,744,l),
(87,744,l)
);
}
);
width = 1000;
}
);
},
{
export = 0;
glyphname = eight.dnom;
lastChange = "2020-04-23 01:02:42 +0000";
layers = (
{
layerId = "7B6A6B4E-EFCA-423F-B1F3-F70C1AFA501E";
shapes = (
{
closed = 1;
nodes = (
(910,58,l),
(910,300,l),
(628,391,l),
(628,403,l),
(890,501,l),
(890,728,l),
(647,766,l),
(292,766,l),
(90,722,l),
(90,537,l),
(382,412,l),
(382,400,l),
(90,307,l),
(90,50,l),
(331,-4,l),
(685,-4,l)
);
},
{
closed = 1;
nodes = (
(497,321,l),
(754,232,l),
(754,151,l),
(620,114,l),
(450,114,l),
(250,152,l),
(250,236,l)
);
},
{
closed = 1;
nodes = (
(364,648,l),
(584,648,l),
(740,616,l),
(740,553,l),
(527,461,l),
(240,591,l),
(240,625,l)
);
}
);
width = 1000;
},
{
layerId = "75A0A031-BEAD-45F4-8089-5B3FA8FFE7DC";
shapes = (
{
closed = 1;
nodes = (
(910,58,l),
(910,300,l),
(628,391,l),
(628,403,l),
(890,501,l),
(890,728,l),
(647,766,l),
(292,766,l),
(90,722,l),
(90,537,l),
(382,412,l),
(382,400,l),
(90,307,l),
(90,50,l),
(331,-4,l),
(685,-4,l)
);
},
{
closed = 1;
nodes = (
(497,321,l),
(754,232,l),
(754,151,l),
(620,114,l),
(450,114,l),
(250,152,l),
(250,236,l)
);
},
{
closed = 1;
nodes = (
(364,648,l),
(584,648,l),
(740,616,l),
(740,553,l),
(527,461,l),
(240,591,l),
(240,625,l)
);
}
);
width = 1000;
}
);
},
{
export = 0;
glyphname = nine.dnom;
lastChange = "2020-04-23 01:02:42 +0000";
layers = (
{
layerId = "7B6A6B4E-EFCA-423F-B1F3-F70C1AFA501E";
shapes = (
{
closed = 1;
nodes = (
(878,498,l),
(858,669,l),
(656,756,l),
(392,756,l),
(130,698,l),
(130,405,l),
(268,294,l),
(555,294,l),
(721,368,l),
(725,248,l),
(481,76,l),
(187,196,l),
(175,36,l),
(294,-14,l),
(546,-14,l),
(845,170,l)
);
},
{
closed = 1;
nodes = (
(563,408,l),
(358,408,l),
(284,458,l),
(284,640,l),
(497,690,l),
(728,574,l),
(728,477,l)
);
}
);
width = 1000;
},
{
layerId = "75A0A031-BEAD-45F4-8089-5B3FA8FFE7DC";
shapes = (
{
closed = 1;
nodes = (
(878,498,l),
(858,669,l),
(656,756,l),
(392,756,l),
(130,698,l),
(130,405,l),
(268,294,l),
(555,294,l),
(721,368,l),
(725,248,l),
(481,76,l),
(187,196,l),
(175,36,l),
(294,-14,l),
(546,-14,l),
(845,170,l)
);
},
{
closed = 1;
nodes = (
(563,408,l),
(358,408,l),
(284,458,l),
(284,640,l),
(497,690,l),
(728,574,l),
(728,477,l)
);
}
);
width = 1000;
}
);
},
{
export = 0;
glyphname = fraction;
lastChange = "2020-04-23 01:02:48 +0000";
layers = (
{
layerId = "7B6A6B4E-EFCA-423F-B1F3-F70C1AFA501E";
shapes = (
{
closed = 1;
nodes = (
(-350,-280,l),
(-141,-280,l),
(1350,1280,l),
(1141,1280,l)
);
}
);
width = 1000;
},
{
layerId = "75A0A031-BEAD-45F4-8089-5B3FA8FFE7DC";
shapes = (
{
closed = 1;
nodes = (
(-350,-280,l),
(-141,-280,l),
(1350,1280,l),
(1141,1280,l)
);
}
);
width = 1000;
}
);
unicode = 8260;
},
{
glyphname = .notdef;
lastChange = "2020-04-18 04:01:42 +0000";
layers = (
{
layerId = "7B6A6B4E-EFCA-423F-B1F3-F70C1AFA501E";
shapes = (
{
closed = 1;
nodes = (
(25,-100,l),
(975,-100,l),
(975,1144,l),
(25,1144,l)
);
},
{
closed = 1;
nodes = (
(410,538,l),
(211,875,l),
(92,1044,l),
(259,1044,l),
(338,895,l),
(494,638,l),
(523,638,l),
(679,895,l),
(759,1044,l),
(913,1044,l),
(799,881,l),
(598,538,l),
(813,169,l),
(922,0,l),
(743,0,l),
(670,149,l),
(514,430,l),
(485,430,l),
(314,149,l),
(234,0,l),
(78,0,l),
(190,163,l)
);
}
);
width = 1000;
},
{
layerId = "75A0A031-BEAD-45F4-8089-5B3FA8FFE7DC";
shapes = (
{
closed = 1;
nodes = (
(25,-100,l),
(975,-100,l),
(975,1144,l),
(25,1144,l)
);
},
{
closed = 1;
nodes = (
(410,538,l),
(211,875,l),
(92,1044,l),
(259,1044,l),
(338,895,l),
(494,638,l),
(523,638,l),
(679,895,l),
(759,1044,l),
(913,1044,l),
(799,881,l),
(598,538,l),
(813,169,l),
(922,0,l),
(743,0,l),
(670,149,l),
(514,430,l),
(485,430,l),
(314,149,l),
(234,0,l),
(78,0,l),
(190,163,l)
);
}
);
width = 1000;
}
);
},
{
glyphname = period;
lastChange = "2020-04-18 04:39:27 +0000";
layers = (
{
background = {
shapes = (
{
closed = 1;
nodes = (
(390,0,l),
(608,0,l),
(610,220,l),
(390,218,l)
);
}
);
};
layerId = "7B6A6B4E-EFCA-423F-B1F3-F70C1AFA501E";
shapes = (
{
closed = 1;
nodes = (
(350,35,o),
(415,-30,o),
(500,-30,cs),
(585,-30,o),
(650,35,o),
(650,120,cs),
(650,205,o),
(585,270,o),
(500,270,cs),
(415,270,o),
(350,205,o),
(350,120,cs)
);
},
{
closed = 1;
nodes = (
(498,121,o),
(499,122,o),
(500,122,cs),
(501,122,o),
(502,121,o),
(502,120,cs),
(502,119,o),
(501,118,o),
(500,118,cs),
(499,118,o),
(498,119,o),
(498,120,cs)
);
}
);
width = 1000;
},
{
associatedMasterId = "7B6A6B4E-EFCA-423F-B1F3-F70C1AFA501E";
layerId = "10C6691F-4D3F-4A2C-BC10-2EB62CD84501";
name = Condensed;
width = 600;
},
{
background = {
shapes = (
{
closed = 1;
nodes = (
(390,0,l),
(608,0,l),
(610,220,l),
(390,218,l)
);
}
);
};
layerId = "75A0A031-BEAD-45F4-8089-5B3FA8FFE7DC";
shapes = (
{
closed = 1;
nodes = (
(350,35,o),
(415,-30,o),
(500,-30,cs),
(585,-30,o),
(650,35,o),
(650,120,cs),
(650,205,o),
(585,270,o),
(500,270,cs),
(415,270,o),
(350,205,o),
(350,120,cs)
);
},
{
closed = 1;
nodes = (
(380,188,o),
(432,240,o),
(500,240,cs),
(568,240,o),
(620,188,o),
(620,120,cs),
(620,52,o),
(568,0,o),
(500,0,cs),
(432,0,o),
(380,52,o),
(380,120,cs)
);
}
);
width = 1000;
},
{
associatedMasterId = "75A0A031-BEAD-45F4-8089-5B3FA8FFE7DC";
layerId = "B7426C74-9788-4015-B4C1-879FAC97F3AF";
name = Condensed;
width = 600;
}
);
unicode = 46;
},
{
glyphname = comma;
lastChange = "2020-04-18 21:46:48 +0000";
layers = (
{
background = {
shapes = (
{
closed = 1;
nodes = (
(360,187,l),
(360,54,ls),
(360,-46,o),
(343,-50,o),
(181,-43,c),
(181,-175,l),
(429,-187,o),
(480,-129,o),
(480,54,cs),
(480,307,l),
(160,307,l),
(160,187,l)
);
}
);
};
layerId = "7B6A6B4E-EFCA-423F-B1F3-F70C1AFA501E";
shapes = (
{
closed = 1;
nodes = (
(666,-288,l),
(666,230,l),
(526,230,l),
(526,-288,l)
);
},
{
closed = 1;
nodes = (
(242,95,l),
(596,95,l),
(596,230,l),
(242,230,l)
);
}
);
width = 1000;
},
{
background = {
shapes = (
{
closed = 1;
nodes = (
(360,187,l),
(360,54,ls),
(360,-46,o),
(343,-50,o),
(181,-43,c),
(181,-175,l),
(429,-187,o),
(480,-129,o),
(480,54,cs),
(480,307,l),
(160,307,l),
(160,187,l)
);
}
);
};
layerId = "75A0A031-BEAD-45F4-8089-5B3FA8FFE7DC";
shapes = (
{
closed = 1;
nodes = (
(666,-288,l),
(666,230,l),
(636,230,l),
(636,-288,l)
);
},
{
closed = 1;
nodes = (
(242,203,l),
(651,203,l),
(651,230,l),
(242,230,l)
);
}
);
width = 1000;
}
);
unicode = 44;
},
{
glyphname = exclam;
lastChange = "2020-04-19 02:35:52 +0000";
layers = (
{
layerId = "7B6A6B4E-EFCA-423F-B1F3-F70C1AFA501E";
shapes = (
{
closed = 1;
nodes = (
(570,400,l),
(570,1152,l),
(430,1152,l),
(430,400,l)
);
},
{
ref = period;
}
);
width = 1000;
},
{
layerId = "75A0A031-BEAD-45F4-8089-5B3FA8FFE7DC";
shapes = (
{
closed = 1;
nodes = (
(515,400,l),
(515,1152,l),
(485,1152,l),
(485,400,l)
);
},
{
ref = period;
}
);
width = 1000;
}
);
unicode = 33;
},
{
glyphname = question;
lastChange = "2020-04-19 02:36:48 +0000";
layers = (
{
background = {
shapes = (
{
closed = 1;
nodes = (
(131,0,l),
(298,0,l),
(298,167,l),
(131,167,l)
);
},
{
closed = 1;
nodes = (
(161,668,l),
(165,564,o),
(167,462,o),
(171,309,c),
(193,299,o),
(239,299,o),
(261,309,c),
(265,462,o),
(268,564,o),
(271,668,c)
);
},
{
closed = 1;
nodes = (
(130,1043,l),
(285,1020,o),
(422,959,o),
(422,815,cs),
(422,763,o),
(404,720,o),
(377,668,c),
(180,668,l),
(196,561,l),
(269,561,ls),
(429,561,o),
(529,701,o),
(529,858,cs),
(529,1060,o),
(352,1152,o),
(166,1179,c)
);
}
);
};
layerId = "7B6A6B4E-EFCA-423F-B1F3-F70C1AFA501E";
shapes = (
{
closed = 1;
nodes = (
(570,400,l),
(570,506,ls),
(570,611,o),
(850,643,o),
(850,877,cs),
(850,1048,o),
(694,1179,o),
(503,1179,cs),
(335,1179,o),
(144,1079,o),
(110,892,c),
(253,845,l),
(281,964,o),
(377,1042,o),
(500,1042,cs),
(606,1042,o),
(708,982,o),
(708,877,cs),
(708,704,o),
(430,731,o),
(430,506,cs),
(430,400,l)
);
},
{
ref = period;
}
);
width = 1000;
},
{
background = {
shapes = (
{
closed = 1;
nodes = (
(131,0,l),
(298,0,l),
(298,167,l),
(131,167,l)
);
},
{
closed = 1;
nodes = (
(161,668,l),
(165,564,o),
(167,462,o),
(171,309,c),
(193,299,o),
(239,299,o),
(261,309,c),
(265,462,o),
(268,564,o),
(271,668,c)
);
},
{
closed = 1;
nodes = (
(130,1043,l),
(285,1020,o),
(422,959,o),
(422,815,cs),
(422,763,o),
(404,720,o),
(377,668,c),
(180,668,l),
(196,561,l),
(269,561,ls),
(429,561,o),
(529,701,o),
(529,858,cs),
(529,1060,o),
(352,1152,o),
(166,1179,c)
);
}
);
};
layerId = "75A0A031-BEAD-45F4-8089-5B3FA8FFE7DC";
shapes = (
{
closed = 1;
nodes = (
(515,400,l),
(515,476,ls),
(515,656,o),
(816,663,o),
(816,904,cs),
(816,1072,o),
(674,1179,o),
(503,1179,cs),
(321,1179,o),
(199,1061,o),
(165,874,c),
(193,864,l),
(221,1044,o),
(346,1152,o),
(503,1152,cs),
(652,1152,o),
(784,1055,o),
(784,903,cs),
(784,674,o),
(485,675,o),
(485,476,cs),
(485,400,l)
);
},
{
ref = period;
}
);
width = 1000;
}
);
unicode = 63;
},
{
glyphname = bullet;
lastChange = "2020-04-18 04:01:42 +0000";
layers = (
{
layerId = "7B6A6B4E-EFCA-423F-B1F3-F70C1AFA501E";
shapes = (
{
closed = 1;
nodes = (
(150,312,o),
(302,160,o),
(500,160,cs),
(698,160,o),
(850,312,o),
(850,510,cs),
(850,708,o),
(698,860,o),
(500,860,cs),
(302,860,o),
(150,708,o),
(150,510,cs)
);
}
);
width = 1000;
},
{
layerId = "75A0A031-BEAD-45F4-8089-5B3FA8FFE7DC";
shapes = (
{
closed = 1;
nodes = (
(150,312,o),
(302,160,o),
(500,160,cs),
(698,160,o),
(850,312,o),
(850,510,cs),
(850,708,o),
(698,860,o),
(500,860,cs),
(302,860,o),
(150,708,o),
(150,510,cs)
);
}
);
width = 1000;
}
);
unicode = 8226;
},
{
glyphname = asterisk;
lastChange = "2020-04-27 04:00:10 +0000";
layers = (
{
background = {
shapes = (
{
closed = 1;
nodes = (
(125,422,l),
(456,448,l),
(456,552,l),
(125,578,l)
);
},
{
closed = 1;
nodes = (
(723,760,l),
(723,875,l),
(583,875,l),
(583,771,l),
(511,604,l),
(486,604,l),
(415,771,l),
(415,875,l),
(275,875,l),
(275,760,l),
(408,500,l),
(275,229,l),
(275,125,l),
(415,125,l),
(415,219,l),
(486,396,l),
(511,396,l),
(583,219,l),
(583,125,l),
(723,125,l),
(723,229,l),
(588,500,l)
);
},
{
closed = 1;
nodes = (
(544,448,l),
(875,422,l),
(875,578,l),
(544,552,l)
);
}
);
};
layerId = "7B6A6B4E-EFCA-423F-B1F3-F70C1AFA501E";
shapes = (
{
closed = 1;
nodes = (
(411,510,l),
(131,136,l),
(247,46,l),
(507,406,l),
(493,406,l),
(753,46,l),
(869,126,l),
(589,510,l)
);
},
{
closed = 1;
nodes = (
(20,621,l),
(500,421,l),
(980,621,l),
(918,753,l),
(500,569,l),
(82,753,l)
);
},
{
closed = 1;
nodes = (
(430,542,l),
(570,542,l),
(570,984,l),
(430,984,l)
);
}
);
width = 1000;
},
{
background = {
shapes = (
{
closed = 1;
nodes = (
(411,500,l),
(131,136,l),
(245,46,l),
(507,406,l),
(493,406,l),
(755,46,l),
(869,126,l),
(589,500,l)
);
},
{
closed = 1;
nodes = (
(20,621,l),
(500,421,l),
(980,621,l),
(918,751,l),
(500,561,l),
(82,751,l)
);
},
{
closed = 1;
nodes = (
(430,542,l),
(570,542,l),
(570,984,l),
(430,984,l)
);
}
);
};
layerId = "75A0A031-BEAD-45F4-8089-5B3FA8FFE7DC";
shapes = (
{
closed = 1;
nodes = (
(479,500,l),
(176,99,l),
(201,81,l),
(507,488,l),
(493,488,l),
(799,77,l),
(824,94,l),
(521,500,l)
);
},
{
closed = 1;
nodes = (
(46,674,l),
(500,481,l),
(954,674,l),
(942,702,l),
(500,513,l),
(59,702,l)
);
},
{
closed = 1;
nodes = (
(485,500,l),
(515,500,l),
(515,984,l),
(485,984,l)
);
}
);
width = 1000;
}
);
unicode = 42;
},
{
glyphname = numbersign;
lastChange = "2020-04-20 18:59:51 +0000";
layers = (
{
hints = (
{
horizontal = 1;
origin = (2,1);
target = (2,2);
type = Stem;
},
{
horizontal = 1;
origin = (2,0);
target = (2,3);
type = Stem;
},
{
horizontal = 1;
origin = (3,1);
target = (3,2);
type = Stem;
},
{
horizontal = 1;
origin = (3,0);
target = (3,3);
type = Stem;
},
{
origin = (0,0);
target = (0,3);
type = Stem;
},
{
origin = (0,1);
target = (0,2);
type = Stem;
},
{
origin = (1,0);
target = (1,3);
type = Stem;
},
{
origin = (1,1);
target = (1,2);
type = Stem;
}
);
layerId = "7B6A6B4E-EFCA-423F-B1F3-F70C1AFA501E";
shapes = (
{
closed = 1;
nodes = (
(239,-152,l),
(350,-152,l),
(350,1152,l),
(239,1152,l)
);
},
{
closed = 1;
nodes = (
(651,-152,l),
(762,-152,l),
(762,1152,l),
(651,1152,l)
);
},
{
closed = 1;
nodes = (
(40,769,l),
(40,669,l),
(960,669,l),
(960,769,l)
);
},
{
closed = 1;
nodes = (
(40,331,l),
(40,231,l),
(960,231,l),
(960,331,l)
);
}
);
width = 1000;
},
{
hints = (
{
horizontal = 1;
origin = (3,1);
target = (3,2);
type = Stem;
},
{
horizontal = 1;
origin = (3,0);
target = (3,3);
type = Stem;
},
{
origin = (0,0);
target = (0,3);
type = Stem;
},
{
origin = (0,1);
target = (0,2);
type = Stem;
},
{
origin = (1,0);
target = (1,3);
type = Stem;
},
{
origin = (1,1);
target = (1,2);
type = Stem;
},
{
horizontal = 1;
origin = (2,1);
target = (2,2);
type = Stem;
},
{
horizontal = 1;
origin = (2,0);
target = (2,3);
type = Stem;
}
);
layerId = "75A0A031-BEAD-45F4-8089-5B3FA8FFE7DC";
shapes = (
{
closed = 1;
nodes = (
(320,-152,l),
(350,-152,l),
(350,1152,l),
(320,1152,l)
);
},
{
closed = 1;
nodes = (
(651,-152,l),
(681,-152,l),
(681,1152,l),
(651,1152,l)
);
},
{
closed = 1;
nodes = (
(40,769,l),
(40,742,l),
(960,742,l),
(960,769,l)
);
},
{
closed = 1;
nodes = (
(40,258,l),
(40,231,l),
(960,231,l),
(960,258,l)
);
}
);
width = 1000;
}
);
unicode = 35;
},
{
glyphname = slash;
lastChange = "2020-04-22 02:07:09 +0000";
layers = (
{
layerId = "7B6A6B4E-EFCA-423F-B1F3-F70C1AFA501E";
shapes = (
{
closed = 1;
nodes = (
(-100,-280,l),
(69,-280,l),
(1100,1280,l),
(931,1280,l)
);
}
);
width = 1000;
},
{
layerId = "75A0A031-BEAD-45F4-8089-5B3FA8FFE7DC";
shapes = (
{
closed = 1;
nodes = (
(-34,-280,l),
(3,-280,l),
(1034,1280,l),
(997,1280,l)
);
}
);
width = 1000;
}
);
unicode = 47;
},
{
glyphname = exclam.ineq;
lastChange = "2020-04-18 21:48:24 +0000";
layers = (
{
guides = (
{
angle = 263.4324;
pos = (650,768);
}
);
layerId = "7B6A6B4E-EFCA-423F-B1F3-F70C1AFA501E";
shapes = (
{
closed = 1;
nodes = (
(1010,215,l),
(1010,350,l),
(603,350,l),
(600,215,l)
);
},
{
closed = 1;
nodes = (
(1010,650,l),
(1010,785,l),
(614,785,l),
(611,650,l)
);
},
{
pos = (-180,0);
ref = exclam.logi;
}
);
width = 1000;
},
{
guides = (
{
angle = 263.4324;
pos = (650,768);
}
);
layerId = "75A0A031-BEAD-45F4-8089-5B3FA8FFE7DC";
shapes = (
{
closed = 1;
nodes = (
(1010,215,l),
(1010,242,l),
(603,242,l),
(600,215,l)
);
},
{
closed = 1;
nodes = (
(1010,758,l),
(1010,785,l),
(614,785,l),
(611,758,l)
);
},
{
pos = (-180,0);
ref = exclam.logi;
}
);
width = 1000;
}
);
},
{
glyphname = question.ineq;
lastChange = "2020-04-18 21:52:38 +0000";
layers = (
{
hints = (
{
horizontal = 1;
origin = (0,0);
target = (0,3);
type = Stem;
},
{
horizontal = 1;
origin = (0,1);
target = (0,2);
type = Stem;
},
{
horizontal = 1;
origin = (1,0);
target = (1,3);
type = Stem;
},
{
horizontal = 1;
origin = (1,1);
target = (1,2);
type = Stem;
}
);
layerId = "7B6A6B4E-EFCA-423F-B1F3-F70C1AFA501E";
shapes = (
{
closed = 1;
nodes = (
(1010,215,l),
(1010,350,l),
(800,350,l),
(800,215,l)
);
},
{
closed = 1;
nodes = (
(1010,650,l),
(1010,785,l),
(800,785,l),
(800,650,l)
);
},
{
ref = question.logi;
}
);
width = 1000;
},
{
hints = (
{
horizontal = 1;
origin = (0,0);
target = (0,3);
type = Stem;
},
{
horizontal = 1;
origin = (0,1);
target = (0,2);
type = Stem;
},
{
horizontal = 1;
origin = (1,0);
target = (1,3);
type = Stem;
},
{
horizontal = 1;
origin = (1,1);
target = (1,2);
type = Stem;
}
);
layerId = "75A0A031-BEAD-45F4-8089-5B3FA8FFE7DC";
shapes = (
{
closed = 1;
nodes = (
(1010,215,l),
(1010,242,l),
(800,242,l),
(800,215,l)
);
},
{
closed = 1;
nodes = (
(1010,758,l),
(1010,785,l),
(870,785,l),
(870,758,l)
);
},
{
ref = question.logi;
}
);
width = 1000;
}
);
},
{
glyphname = numbersign.ineq;
lastChange = "2020-04-20 19:00:02 +0000";
layers = (
{
hints = (
{
origin = (2,0);
target = (2,3);
type = Stem;
},
{
origin = (2,1);
target = (2,2);
type = Stem;
},
{
origin = (3,0);
target = (3,3);
type = Stem;
},
{
origin = (3,1);
target = (3,2);
type = Stem;
},
{
horizontal = 1;
origin = (0,0);
target = (0,3);
type = Stem;
},
{
horizontal = 1;
origin = (0,1);
target = (0,2);
type = Stem;
},
{
horizontal = 1;
origin = (1,0);
target = (1,3);
type = Stem;
},
{
horizontal = 1;
origin = (1,1);
target = (1,2);
type = Stem;
}
);
layerId = "7B6A6B4E-EFCA-423F-B1F3-F70C1AFA501E";
shapes = (
{
closed = 1;
nodes = (
(1010,215,l),
(1010,350,l),
(100,350,l),
(100,215,l)
);
},
{
closed = 1;
nodes = (
(1010,650,l),
(1010,785,l),
(100,785,l),
(100,650,l)
);
},
{
closed = 1;
nodes = (
(239,-152,l),
(350,-152,l),
(350,1152,l),
(239,1152,l)
);
},
{
closed = 1;
nodes = (
(651,-152,l),
(762,-152,l),
(762,1152,l),
(651,1152,l)
);
}
);
width = 1000;
},
{
hints = (
{
horizontal = 1;
origin = (0,0);
target = (0,3);
type = Stem;
},
{
horizontal = 1;
origin = (0,1);
target = (0,2);
type = Stem;
},
{
horizontal = 1;
origin = (1,0);
target = (1,3);
type = Stem;
},
{
horizontal = 1;
origin = (1,1);
target = (1,2);
type = Stem;
},
{
origin = (2,0);
target = (2,3);
type = Stem;
},
{
origin = (2,1);
target = (2,2);
type = Stem;
},
{
origin = (3,0);
target = (3,3);
type = Stem;
},
{
origin = (3,1);
target = (3,2);
type = Stem;
}
);
layerId = "75A0A031-BEAD-45F4-8089-5B3FA8FFE7DC";
shapes = (
{
closed = 1;
nodes = (
(1010,215,l),
(1010,242,l),
(100,242,l),
(100,215,l)
);
},
{
closed = 1;
nodes = (
(1010,758,l),
(1010,785,l),
(100,785,l),
(100,758,l)
);
},
{
closed = 1;
nodes = (
(280,-152,l),
(310,-152,l),
(310,1152,l),
(280,1152,l)
);
},
{
closed = 1;
nodes = (
(690,-152,l),
(720,-152,l),
(720,1152,l),
(690,1152,l)
);
}
);
width = 1000;
}
);
},
{
glyphname = slash.ineq;
lastChange = "2020-04-23 01:00:26 +0000";
layers = (
{
hints = (
{
horizontal = 1;
origin = (0,0);
target = (0,3);
type = Stem;
},
{
horizontal = 1;
origin = (0,1);
target = (0,2);
type = Stem;
},
{
horizontal = 1;
origin = (1,0);
target = (1,3);
type = Stem;
},
{
horizontal = 1;
origin = (1,1);
target = (1,2);
type = Stem;
}
);
layerId = "7B6A6B4E-EFCA-423F-B1F3-F70C1AFA501E";
shapes = (
{
closed = 1;
nodes = (
(1010,215,l),
(1010,350,l),
(451,350,l),
(372,215,l)
);
},
{
closed = 1;
nodes = (
(1010,650,l),
(1010,785,l),
(683,785,l),
(604,650,l)
);
},
{
ref = slash;
}
);
width = 1000;
},
{
hints = (
{
horizontal = 1;
origin = (1,0);
target = (1,3);
type = Stem;
},
{
horizontal = 1;
origin = (1,1);
target = (1,2);
type = Stem;
},
{
horizontal = 1;
origin = (0,0);
target = (0,3);
type = Stem;
},
{
horizontal = 1;
origin = (0,1);
target = (0,2);
type = Stem;
}
);
layerId = "75A0A031-BEAD-45F4-8089-5B3FA8FFE7DC";
shapes = (
{
closed = 1;
nodes = (
(1010,215,l),
(1010,242,l),
(326,242,l),
(326,215,l)
);
},
{
closed = 1;
nodes = (
(1010,758,l),
(1010,785,l),
(679,785,l),
(679,758,l)
);
},
{
ref = slash;
}
);
width = 1000;
}
);
},
{
glyphname = exclam.intq;
lastChange = "2020-04-19 03:04:10 +0000";
layers = (
{
layerId = "7B6A6B4E-EFCA-423F-B1F3-F70C1AFA501E";
shapes = (
{
closed = 1;
nodes = (
(1010,40,l),
(1010,175,l),
(600,175,l),
(600,40,l)
);
},
{
closed = 1;
nodes = (
(1010,825,l),
(1010,960,l),
(600,960,l),
(600,825,l)
);
},
{
closed = 1;
nodes = (
(1010,433,l),
(1010,568,l),
(600,568,l),
(600,433,l)
);
},
{
pos = (-173,0);
ref = exclam.logi;
}
);
width = 1000;
},
{
layerId = "75A0A031-BEAD-45F4-8089-5B3FA8FFE7DC";
shapes = (
{
closed = 1;
nodes = (
(1010,40,l),
(1010,67,l),
(600,67,l),
(600,40,l)
);
},
{
closed = 1;
nodes = (
(1010,933,l),
(1010,960,l),
(600,960,l),
(600,933,l)
);
},
{
closed = 1;
nodes = (
(1010,487,l),
(1010,514,l),
(600,514,l),
(600,487,l)
);
},
{
pos = (-173,0);
ref = exclam.logi;
}
);
width = 1000;
}
);
},
{
glyphname = comma.logi;
lastChange = "2020-04-18 04:01:42 +0000";
layers = (
{
background = {
shapes = (
{
closed = 1;
nodes = (
(360,187,l),
(360,54,ls),
(360,-46,o),
(343,-50,o),
(181,-43,c),
(181,-175,l),
(429,-187,o),
(480,-129,o),
(480,54,cs),
(480,307,l),
(160,307,l),
(160,187,l)
);
}
);
};
layerId = "7B6A6B4E-EFCA-423F-B1F3-F70C1AFA501E";
shapes = (
{
ref = comma;
}
);
width = 1000;
},
{
background = {
shapes = (
{
closed = 1;
nodes = (
(360,187,l),
(360,54,ls),
(360,-46,o),
(343,-50,o),
(181,-43,c),
(181,-175,l),
(429,-187,o),
(480,-129,o),
(480,54,cs),
(480,307,l),
(160,307,l),
(160,187,l)
);
}
);
};
layerId = "75A0A031-BEAD-45F4-8089-5B3FA8FFE7DC";
shapes = (
{
ref = comma;
}
);
width = 1000;
}
);
},
{
glyphname = exclam.logi;
lastChange = "2020-04-18 21:28:56 +0000";
layers = (
{
layerId = "7B6A6B4E-EFCA-423F-B1F3-F70C1AFA501E";
shapes = (
{
closed = 1;
nodes = (
(570,320,l),
(595,1130,l),
(405,1130,l),
(430,320,l)
);
},
{
ref = period.logi;
}
);
width = 1000;
},
{
layerId = "75A0A031-BEAD-45F4-8089-5B3FA8FFE7DC";
shapes = (
{
closed = 1;
nodes = (
(515,320,l),
(515,1130,l),
(485,1130,l),
(485,320,l)
);
},
{
ref = period.logi;
}
);
width = 1000;
}
);
},
{
glyphname = question.logi;
lastChange = "2020-04-19 07:45:49 +0000";
layers = (
{
background = {
shapes = (
{
closed = 1;
nodes = (
(131,0,l),
(298,0,l),
(298,167,l),
(131,167,l)
);
},
{
closed = 1;
nodes = (
(161,668,l),
(165,564,o),
(167,462,o),
(171,309,c),
(193,299,o),
(239,299,o),
(261,309,c),
(265,462,o),
(268,564,o),
(271,668,c)
);
},
{
closed = 1;
nodes = (
(130,1043,l),
(285,1020,o),
(422,959,o),
(422,815,cs),
(422,763,o),
(404,720,o),
(377,668,c),
(180,668,l),
(196,561,l),
(269,561,ls),
(429,561,o),
(529,701,o),
(529,858,cs),
(529,1060,o),
(352,1152,o),
(166,1179,c)
);
}
);
};
layerId = "7B6A6B4E-EFCA-423F-B1F3-F70C1AFA501E";
shapes = (
{
closed = 1;
nodes = (
(575,320,l),
(575,384,ls),
(575,423,o),
(594,434,o),
(625,453,cs),
(781,548,ls),
(872,604,o),
(910,683,o),
(910,780,cs),
(910,996,o),
(726,1150,o),
(500,1150,cs),
(276,1150,o),
(92,998,o),
(90,749,c),
(246,749,l),
(246,913,o),
(355,1008,o),
(500,1008,cs),
(646,1008,o),
(754,913,o),
(754,780,cs),
(754,732,o),
(740,685,o),
(688,653,cs),
(496,534,ls),
(452,507,o),
(421,489,o),
(421,414,cs),
(421,320,l)
);
},
{
ref = period.logi;
}
);
width = 1000;
},
{
background = {
shapes = (
{
closed = 1;
nodes = (
(131,0,l),
(298,0,l),
(298,167,l),
(131,167,l)
);
},
{
closed = 1;
nodes = (
(161,668,l),
(165,564,o),
(167,462,o),
(171,309,c),
(193,299,o),
(239,299,o),
(261,309,c),
(265,462,o),
(268,564,o),
(271,668,c)
);
},
{
closed = 1;
nodes = (
(130,1043,l),
(285,1020,o),
(422,959,o),
(422,815,cs),
(422,763,o),
(404,720,o),
(377,668,c),
(180,668,l),
(196,561,l),
(269,561,ls),
(429,561,o),
(529,701,o),
(529,858,cs),
(529,1060,o),
(352,1152,o),
(166,1179,c)
);
}
);
};
layerId = "75A0A031-BEAD-45F4-8089-5B3FA8FFE7DC";
shapes = (
{
closed = 1;
nodes = (
(513,320,l),
(513,384,ls),
(513,425,o),
(523,440,o),
(596,477,cs),
(719,540,ls),
(843,604,o),
(891,662,o),
(891,790,cs),
(891,1036,o),
(706,1150,o),
(509,1150,cs),
(296,1150,o),
(104,1018,o),
(90,729,c),
(123,729,l),
(135,995,o),
(315,1123,o),
(509,1123,cs),
(686,1123,o),
(860,1014,o),
(860,790,cs),
(860,676,o),
(816,619,o),
(702,561,cs),
(570,494,ls),
(502,459,o),
(483,439,o),
(483,384,cs),
(483,320,l)
);
},
{
ref = period.logi;
}
);
width = 1000;
}
);
},
{
glyphname = slash.lsgr;
lastChange = "2020-04-19 03:03:14 +0000";
layers = (
{
layerId = "7B6A6B4E-EFCA-423F-B1F3-F70C1AFA501E";
shapes = (
{
closed = 1;
nodes = (
(-350,-280,l),
(-141,-280,l),
(1350,1280,l),
(1141,1280,l)
);
}
);
width = 1000;
},
{
layerId = "75A0A031-BEAD-45F4-8089-5B3FA8FFE7DC";
shapes = (
{
closed = 1;
nodes = (
(-265,-280,l),
(-225,-280,l),
(1265,1280,l),
(1225,1280,l)
);
}
);
width = 1000;
}
);
},
